<?xml version="1.0" encoding="UTF-8"?>
<svg xmlns="http://www.w3.org/2000/svg" xmlns:xlink="http://www.w3.org/1999/xlink" width="px" height="200px" viewBox="0 0 227 200" version="1.1">
<g id="surface1">
<path style=" stroke:none;fill-rule:nonzero;fill:rgb(94.509804%,94.509804%,94.509804%);fill-opacity:1;" d="M 197.765625 192.757812 L 197.765625 172.941406 C 197.765625 172.941406 205.464844 186.992188 197.765625 192.757812 Z M 197.765625 192.757812 "/>
<path style=" stroke:none;fill-rule:nonzero;fill:rgb(94.509804%,94.509804%,94.509804%);fill-opacity:1;" d="M 198.242188 192.753906 L 183.683594 179.351562 C 183.683594 179.351562 199.210938 183.164062 198.242188 192.753906 Z M 198.242188 192.753906 "/>
<path style=" stroke:none;fill-rule:nonzero;fill:rgb(94.509804%,94.509804%,94.509804%);fill-opacity:1;" d="M 29.082031 192.757812 L 29.082031 172.941406 C 29.082031 172.941406 21.378906 186.992188 29.082031 192.757812 Z M 29.082031 192.757812 "/>
<path style=" stroke:none;fill-rule:nonzero;fill:rgb(94.509804%,94.509804%,94.509804%);fill-opacity:1;" d="M 28.605469 192.753906 L 43.160156 179.351562 C 43.160156 179.351562 27.632812 183.164062 28.605469 192.753906 Z M 28.605469 192.753906 "/>
<path style=" stroke:none;fill-rule:nonzero;fill:rgb(24.705882%,23.921569%,33.72549%);fill-opacity:1;" d="M 161.375 45.765625 L 160.320312 45.765625 L 160.320312 16.777344 C 160.320312 7.511719 152.828125 0 143.589844 0 L 82.355469 0 C 73.117188 0 65.625 7.511719 65.625 16.777344 L 65.625 175.8125 C 65.625 185.078125 73.117188 192.589844 82.355469 192.589844 L 143.589844 192.589844 C 152.828125 192.589844 160.320312 185.078125 160.320312 175.8125 L 160.320312 66.402344 L 161.375 66.402344 Z M 161.375 45.765625 "/>
<path style=" stroke:none;fill-rule:nonzero;fill:rgb(100%,100%,100%);fill-opacity:1;" d="M 144.265625 4.363281 L 136.273438 4.363281 C 137.019531 6.199219 136.804688 8.289062 135.703125 9.933594 C 134.601562 11.578125 132.753906 12.566406 130.777344 12.566406 L 95.695312 12.566406 C 93.71875 12.566406 91.871094 11.578125 90.769531 9.933594 C 89.667969 8.289062 89.453125 6.199219 90.199219 4.363281 L 82.734375 4.363281 C 75.835938 4.363281 70.242188 9.976562 70.242188 16.894531 L 70.242188 175.695312 C 70.242188 182.617188 75.835938 188.226562 82.734375 188.226562 L 144.265625 188.226562 C 151.164062 188.226562 156.757812 182.617188 156.757812 175.695312 L 156.757812 16.894531 C 156.757812 9.976562 151.164062 4.363281 144.265625 4.363281 Z M 144.265625 4.363281 "/>
<path style=" stroke:none;fill-rule:nonzero;fill:rgb(89.803922%,89.803922%,89.803922%);fill-opacity:1;" d="M 142.722656 185.5 L 84.277344 185.5 C 77.558594 185.5 72.097656 180.609375 72.097656 174.59375 L 72.097656 166.703125 C 72.097656 161.910156 76.449219 158.011719 81.796875 158.011719 L 145.203125 158.011719 C 150.550781 158.011719 154.902344 161.910156 154.902344 166.703125 L 154.902344 174.59375 C 154.902344 180.609375 149.441406 185.5 142.722656 185.5 Z M 142.722656 185.5 "/>
<path style=" stroke:none;fill-rule:nonzero;fill:rgb(0%,0%,54.509804%);fill-opacity:1;" d="M 90.421875 52.835938 L 77.382812 52.835938 C 76.894531 52.832031 76.503906 52.4375 76.5 51.949219 L 76.5 38.875 C 76.503906 38.386719 76.894531 37.992188 77.382812 37.992188 L 90.421875 37.992188 C 90.90625 37.992188 91.300781 38.386719 91.300781 38.875 L 91.300781 51.949219 C 91.300781 52.4375 90.90625 52.832031 90.421875 52.835938 Z M 90.421875 52.835938 "/>
<path style=" stroke:none;fill-rule:nonzero;fill:rgb(89.803922%,89.803922%,89.803922%);fill-opacity:1;" d="M 110.152344 52.835938 L 97.113281 52.835938 C 96.628906 52.832031 96.234375 52.4375 96.234375 51.949219 L 96.234375 38.875 C 96.234375 38.386719 96.628906 37.992188 97.113281 37.992188 L 110.152344 37.992188 C 110.640625 37.992188 111.03125 38.386719 111.035156 38.875 L 111.035156 51.949219 C 111.03125 52.4375 110.640625 52.832031 110.152344 52.835938 Z M 110.152344 52.835938 "/>
<path style=" stroke:none;fill-rule:nonzero;fill:rgb(89.803922%,89.803922%,89.803922%);fill-opacity:1;" d="M 129.886719 52.835938 L 116.847656 52.835938 C 116.359375 52.832031 115.96875 52.4375 115.964844 51.949219 L 115.964844 38.875 C 115.96875 38.386719 116.359375 37.992188 116.847656 37.992188 L 129.886719 37.992188 C 130.371094 37.992188 130.765625 38.386719 130.765625 38.875 L 130.765625 51.949219 C 130.765625 52.4375 130.371094 52.832031 129.886719 52.835938 Z M 129.886719 52.835938 "/>
<path style=" stroke:none;fill-rule:nonzero;fill:rgb(89.803922%,89.803922%,89.803922%);fill-opacity:1;" d="M 149.617188 52.835938 L 136.578125 52.835938 C 136.09375 52.832031 135.699219 52.4375 135.699219 51.949219 L 135.699219 38.875 C 135.699219 38.386719 136.09375 37.992188 136.578125 37.992188 L 149.617188 37.992188 C 150.105469 37.992188 150.496094 38.386719 150.5 38.875 L 150.5 51.949219 C 150.496094 52.4375 150.105469 52.832031 149.617188 52.835938 Z M 149.617188 52.835938 "/>
<path style=" stroke:none;fill-rule:nonzero;fill:rgb(89.803922%,89.803922%,89.803922%);fill-opacity:1;" d="M 90.375 77.042969 L 77.335938 77.042969 C 76.851562 77.042969 76.457031 76.648438 76.457031 76.160156 L 76.457031 63.082031 C 76.457031 62.59375 76.851562 62.199219 77.335938 62.199219 L 90.375 62.199219 C 90.859375 62.199219 91.253906 62.59375 91.253906 63.082031 L 91.253906 76.160156 C 91.253906 76.648438 90.859375 77.042969 90.375 77.042969 Z M 90.375 77.042969 "/>
<path style=" stroke:none;fill-rule:nonzero;fill:rgb(89.803922%,89.803922%,89.803922%);fill-opacity:1;" d="M 110.105469 77.042969 L 97.070312 77.042969 C 96.582031 77.042969 96.1875 76.648438 96.1875 76.160156 L 96.1875 63.082031 C 96.1875 62.59375 96.582031 62.199219 97.070312 62.199219 L 110.105469 62.199219 C 110.59375 62.199219 110.984375 62.59375 110.988281 63.082031 L 110.988281 76.160156 C 110.984375 76.648438 110.59375 77.042969 110.105469 77.042969 Z M 110.105469 77.042969 "/>
<path style=" stroke:none;fill-rule:nonzero;fill:rgb(0%,0%,54.509804%);fill-opacity:1;" d="M 129.839844 77.042969 L 116.800781 77.042969 C 116.316406 77.042969 115.921875 76.648438 115.917969 76.160156 L 115.917969 63.082031 C 115.921875 62.59375 116.316406 62.199219 116.800781 62.199219 L 129.839844 62.199219 C 130.324219 62.199219 130.71875 62.59375 130.71875 63.082031 L 130.71875 76.160156 C 130.71875 76.648438 130.324219 77.042969 129.839844 77.042969 Z M 129.839844 77.042969 "/>
<path style=" stroke:none;fill-rule:nonzero;fill:rgb(0%,0%,54.509804%);fill-opacity:1;" d="M 149.570312 77.042969 L 136.535156 77.042969 C 136.046875 77.042969 135.652344 76.648438 135.652344 76.160156 L 135.652344 63.082031 C 135.652344 62.59375 136.046875 62.199219 136.535156 62.199219 L 149.570312 62.199219 C 150.058594 62.199219 150.449219 62.59375 150.453125 63.082031 L 150.453125 76.160156 C 150.449219 76.648438 150.058594 77.042969 149.570312 77.042969 Z M 149.570312 77.042969 "/>
<path style=" stroke:none;fill-rule:nonzero;fill:rgb(89.803922%,89.803922%,89.803922%);fill-opacity:1;" d="M 90.328125 101.25 L 77.289062 101.25 C 76.804688 101.25 76.410156 100.855469 76.410156 100.367188 L 76.410156 87.292969 C 76.410156 86.804688 76.804688 86.410156 77.289062 86.40625 L 90.328125 86.40625 C 90.8125 86.410156 91.207031 86.804688 91.207031 87.292969 L 91.207031 100.367188 C 91.207031 100.855469 90.8125 101.25 90.328125 101.25 Z M 90.328125 101.25 "/>
<path style=" stroke:none;fill-rule:nonzero;fill:rgb(89.803922%,89.803922%,89.803922%);fill-opacity:1;" d="M 110.058594 101.25 L 97.023438 101.25 C 96.535156 101.25 96.140625 100.855469 96.140625 100.367188 L 96.140625 87.292969 C 96.140625 86.804688 96.535156 86.410156 97.023438 86.40625 L 110.058594 86.40625 C 110.546875 86.410156 110.941406 86.804688 110.941406 87.292969 L 110.941406 100.367188 C 110.941406 100.855469 110.546875 101.25 110.058594 101.25 Z M 110.058594 101.25 "/>
<path style=" stroke:none;fill-rule:nonzero;fill:rgb(89.803922%,89.803922%,89.803922%);fill-opacity:1;" d="M 129.792969 101.25 L 116.753906 101.25 C 116.269531 101.25 115.875 100.855469 115.875 100.367188 L 115.875 87.292969 C 115.875 86.804688 116.269531 86.410156 116.753906 86.40625 L 129.792969 86.40625 C 130.277344 86.410156 130.671875 86.804688 130.671875 87.292969 L 130.671875 100.367188 C 130.671875 100.855469 130.277344 101.25 129.792969 101.25 Z M 129.792969 101.25 "/>
<path style=" stroke:none;fill-rule:nonzero;fill:rgb(89.803922%,89.803922%,89.803922%);fill-opacity:1;" d="M 149.523438 101.25 L 136.488281 101.25 C 136 101.25 135.605469 100.855469 135.605469 100.367188 L 135.605469 87.292969 C 135.605469 86.804688 136 86.410156 136.488281 86.40625 L 149.523438 86.40625 C 150.011719 86.410156 150.40625 86.804688 150.40625 87.292969 L 150.40625 100.367188 C 150.40625 100.855469 150.011719 101.25 149.523438 101.25 Z M 149.523438 101.25 "/>
<path style=" stroke:none;fill-rule:nonzero;fill:rgb(89.803922%,89.803922%,89.803922%);fill-opacity:1;" d="M 90.28125 125.460938 L 77.242188 125.460938 C 76.757812 125.457031 76.363281 125.0625 76.363281 124.574219 L 76.363281 111.5 C 76.363281 111.011719 76.757812 110.617188 77.242188 110.617188 L 90.28125 110.617188 C 90.765625 110.617188 91.160156 111.011719 91.160156 111.5 L 91.160156 124.574219 C 91.160156 125.0625 90.765625 125.457031 90.28125 125.460938 Z M 90.28125 125.460938 "/>
<path style=" stroke:none;fill-rule:nonzero;fill:rgb(89.803922%,89.803922%,89.803922%);fill-opacity:1;" d="M 110.011719 125.460938 L 96.976562 125.460938 C 96.488281 125.457031 96.09375 125.0625 96.09375 124.574219 L 96.09375 111.5 C 96.09375 111.011719 96.488281 110.617188 96.976562 110.617188 L 110.011719 110.617188 C 110.5 110.617188 110.894531 111.011719 110.894531 111.5 L 110.894531 124.574219 C 110.894531 125.0625 110.5 125.457031 110.011719 125.460938 Z M 110.011719 125.460938 "/>
<path style=" stroke:none;fill-rule:nonzero;fill:rgb(89.803922%,89.803922%,89.803922%);fill-opacity:1;" d="M 129.746094 125.460938 L 116.707031 125.460938 C 116.222656 125.457031 115.828125 125.0625 115.828125 124.574219 L 115.828125 111.5 C 115.828125 111.011719 116.222656 110.617188 116.707031 110.617188 L 129.746094 110.617188 C 130.230469 110.617188 130.625 111.011719 130.625 111.5 L 130.625 124.574219 C 130.625 125.0625 130.230469 125.457031 129.746094 125.460938 Z M 129.746094 125.460938 "/>
<path style=" stroke:none;fill-rule:nonzero;fill:rgb(89.803922%,89.803922%,89.803922%);fill-opacity:1;" d="M 149.476562 125.460938 L 136.441406 125.460938 C 135.953125 125.457031 135.558594 125.0625 135.558594 124.574219 L 135.558594 111.5 C 135.558594 111.011719 135.953125 110.617188 136.441406 110.617188 L 149.476562 110.617188 C 149.964844 110.617188 150.359375 111.011719 150.359375 111.5 L 150.359375 124.574219 C 150.359375 125.0625 149.964844 125.457031 149.476562 125.460938 Z M 149.476562 125.460938 "/>
<path style=" stroke:none;fill-rule:nonzero;fill:rgb(100%,100%,100%);fill-opacity:1;" d="M 90.421875 179.53125 L 77.382812 179.53125 C 76.894531 179.53125 76.503906 179.132812 76.5 178.648438 L 76.5 165.570312 C 76.503906 165.082031 76.894531 164.6875 77.382812 164.6875 L 90.421875 164.6875 C 90.90625 164.6875 91.300781 165.082031 91.300781 165.570312 L 91.300781 178.648438 C 91.300781 179.132812 90.90625 179.53125 90.421875 179.53125 Z M 90.421875 179.53125 "/>
<path style=" stroke:none;fill-rule:nonzero;fill:rgb(100%,100%,100%);fill-opacity:1;" d="M 110.152344 179.53125 L 97.113281 179.53125 C 96.628906 179.53125 96.234375 179.132812 96.234375 178.648438 L 96.234375 165.570312 C 96.234375 165.082031 96.628906 164.6875 97.113281 164.6875 L 110.152344 164.6875 C 110.640625 164.6875 111.03125 165.082031 111.035156 165.570312 L 111.035156 178.648438 C 111.03125 179.132812 110.640625 179.53125 110.152344 179.53125 Z M 110.152344 179.53125 "/>
<path style=" stroke:none;fill-rule:nonzero;fill:rgb(100%,100%,100%);fill-opacity:1;" d="M 129.886719 179.53125 L 116.847656 179.53125 C 116.359375 179.53125 115.96875 179.132812 115.964844 178.648438 L 115.964844 165.570312 C 115.96875 165.082031 116.359375 164.6875 116.847656 164.6875 L 129.886719 164.6875 C 130.371094 164.6875 130.765625 165.082031 130.765625 165.570312 L 130.765625 178.648438 C 130.765625 179.132812 130.371094 179.53125 129.886719 179.53125 Z M 129.886719 179.53125 "/>
<path style=" stroke:none;fill-rule:nonzero;fill:rgb(100%,100%,100%);fill-opacity:1;" d="M 149.617188 179.53125 L 136.578125 179.53125 C 136.09375 179.53125 135.699219 179.132812 135.699219 178.648438 L 135.699219 165.570312 C 135.699219 165.082031 136.09375 164.6875 136.578125 164.6875 L 149.617188 164.6875 C 150.105469 164.6875 150.496094 165.082031 150.5 165.570312 L 150.5 178.648438 C 150.496094 179.132812 150.105469 179.53125 149.617188 179.53125 Z M 149.617188 179.53125 "/>
<path style=" stroke:none;fill-rule:nonzero;fill:rgb(89.803922%,89.803922%,89.803922%);fill-opacity:1;" d="M 108.871094 150.199219 C 108.871094 151.171875 108.082031 151.964844 107.109375 151.964844 C 106.136719 151.964844 105.347656 151.171875 105.347656 150.199219 C 105.347656 149.222656 106.136719 148.429688 107.109375 148.429688 C 108.082031 148.429688 108.871094 149.222656 108.871094 150.199219 Z M 108.871094 150.199219 "/>
<path style=" stroke:none;fill-rule:nonzero;fill:rgb(89.803922%,89.803922%,89.803922%);fill-opacity:1;" d="M 115.214844 150.199219 C 115.214844 151.171875 114.425781 151.964844 113.453125 151.964844 C 112.480469 151.964844 111.691406 151.171875 111.691406 150.199219 C 111.691406 149.222656 112.480469 148.429688 113.453125 148.429688 C 114.425781 148.429688 115.214844 149.222656 115.214844 150.199219 Z M 115.214844 150.199219 "/>
<path style=" stroke:none;fill-rule:nonzero;fill:rgb(89.803922%,89.803922%,89.803922%);fill-opacity:1;" d="M 121.558594 150.199219 C 121.558594 151.171875 120.769531 151.964844 119.796875 151.964844 C 118.824219 151.964844 118.035156 151.171875 118.035156 150.199219 C 118.035156 149.222656 118.824219 148.429688 119.796875 148.429688 C 120.769531 148.429688 121.558594 149.222656 121.558594 150.199219 Z M 121.558594 150.199219 "/>
<path style=" stroke:none;fill-rule:nonzero;fill:rgb(79.607843%,79.607843%,79.607843%);fill-opacity:1;" d="M 226.726562 192.875 L 0.273438 192.875 C 0.121094 192.875 0 192.753906 0 192.601562 C 0 192.453125 0.121094 192.328125 0.273438 192.328125 L 226.726562 192.328125 C 226.878906 192.328125 227 192.453125 227 192.601562 C 227 192.753906 226.878906 192.875 226.726562 192.875 Z M 226.726562 192.875 "/>
<path style=" stroke:none;fill-rule:nonzero;fill:rgb(100%,71.764706%,71.764706%);fill-opacity:1;" d="M 89.152344 138.933594 C 89.898438 138.183594 90.273438 137.144531 90.183594 136.089844 C 90.089844 135.035156 89.535156 134.078125 88.671875 133.472656 L 92.109375 121.242188 L 85.839844 123.246094 L 83.53125 134.550781 C 82.59375 136.109375 82.96875 138.125 84.402344 139.242188 C 85.835938 140.363281 87.875 140.226562 89.152344 138.933594 Z M 89.152344 138.933594 "/>
<path style=" stroke:none;fill-rule:nonzero;fill:rgb(24.705882%,23.921569%,33.72549%);fill-opacity:1;" d="M 90.933594 131.4375 C 90.824219 131.457031 90.707031 131.46875 90.59375 131.464844 L 84.578125 131.34375 C 84.117188 131.335938 83.6875 131.128906 83.390625 130.777344 C 83.09375 130.429688 82.964844 129.964844 83.03125 129.511719 L 89.136719 88.144531 C 89.511719 85.671875 91.628906 83.84375 94.121094 83.839844 C 95.667969 83.84375 97.125 84.558594 98.074219 85.777344 C 99.023438 86.996094 99.363281 88.589844 98.992188 90.09375 L 94.667969 107.667969 L 92.210938 130.042969 C 92.140625 130.738281 91.621094 131.304688 90.933594 131.4375 Z M 90.933594 131.4375 "/>
<path style=" stroke:none;fill-rule:nonzero;fill:rgb(100%,71.764706%,71.764706%);fill-opacity:1;" d="M 93.449219 196.742188 L 96.800781 196.742188 L 98.394531 183.785156 L 93.449219 183.785156 Z M 93.449219 196.742188 "/>
<path style=" stroke:none;fill-rule:nonzero;fill:rgb(18.431373%,18.039216%,25.490196%);fill-opacity:1;" d="M 92.597656 195.644531 L 99.191406 195.644531 C 101.515625 195.644531 103.394531 197.53125 103.394531 199.859375 L 103.394531 199.996094 L 92.597656 199.996094 Z M 92.597656 195.644531 "/>
<path style=" stroke:none;fill-rule:nonzero;fill:rgb(100%,71.764706%,71.764706%);fill-opacity:1;" d="M 107.730469 195.648438 L 111.058594 196.023438 L 114.082031 183.328125 L 109.171875 182.773438 Z M 107.730469 195.648438 "/>
<path style=" stroke:none;fill-rule:nonzero;fill:rgb(18.431373%,18.039216%,25.490196%);fill-opacity:1;" d="M 107.003906 194.464844 L 113.558594 195.203125 C 115.867188 195.460938 117.527344 197.546875 117.265625 199.859375 L 117.25 199.996094 L 106.519531 198.789062 Z M 107.003906 194.464844 "/>
<path style=" stroke:none;fill-rule:nonzero;fill:rgb(18.431373%,18.039216%,25.490196%);fill-opacity:1;" d="M 90.308594 124.644531 C 90.308594 124.644531 85.714844 134.839844 89.769531 141.460938 L 92.1875 193.015625 L 97.734375 193.015625 L 103.113281 151.371094 L 112.675781 163.699219 L 106.847656 192.472656 L 113.632812 192.855469 L 123.054688 163.699219 C 123.054688 163.699219 115.816406 131.546875 113.425781 130.773438 L 111.855469 123.425781 Z M 90.308594 124.644531 "/>
<path style=" stroke:none;fill-rule:nonzero;fill:rgb(79.607843%,79.607843%,79.607843%);fill-opacity:1;" d="M 88.265625 133.59375 C 88.265625 133.59375 84.128906 138.355469 95.054688 140 C 105.980469 141.644531 117.453125 139.179688 117.726562 135.890625 C 118 132.601562 88.265625 133.59375 88.265625 133.59375 Z M 88.265625 133.59375 "/>
<path style=" stroke:none;fill-rule:nonzero;fill:rgb(100%,71.764706%,71.764706%);fill-opacity:1;" d="M 143.039062 74.535156 C 143.003906 75.476562 142.554688 76.351562 141.816406 76.929688 C 141.074219 77.507812 140.117188 77.726562 139.199219 77.527344 L 135.066406 83.503906 L 130.835938 81.871094 L 136.789062 73.515625 C 137.234375 71.957031 138.769531 70.980469 140.363281 71.242188 C 141.960938 71.5 143.109375 72.914062 143.039062 74.535156 Z M 143.039062 74.535156 "/>
<path style=" stroke:none;fill-rule:nonzero;fill:rgb(24.705882%,23.921569%,33.72549%);fill-opacity:1;" d="M 108.109375 82.222656 L 102.269531 79.570312 L 94.789062 80.109375 C 94.789062 80.109375 85.765625 90.683594 89.320312 100.820312 L 87.132812 136.164062 C 101.066406 140 107.398438 132.804688 117.453125 135.890625 L 114.347656 96.609375 Z M 108.109375 82.222656 "/>
<path style=" stroke:none;fill-rule:nonzero;fill:rgb(24.705882%,23.921569%,33.72549%);fill-opacity:1;" d="M 104.207031 84.792969 L 108.109375 82.222656 C 108.109375 82.222656 113.53125 81.398438 115.695312 83.507812 C 115.695312 83.507812 123.050781 84.125 124.828125 85.964844 L 126.785156 86.410156 L 133.28125 77.96875 L 137.257812 80.136719 L 131.523438 95.753906 L 114.347656 96.609375 Z M 104.207031 84.792969 "/>
<path style=" stroke:none;fill-rule:nonzero;fill:rgb(100%,71.764706%,71.764706%);fill-opacity:1;" d="M 109.21875 64.050781 C 111.660156 68.53125 110.019531 74.148438 105.550781 76.597656 C 101.085938 79.046875 95.484375 77.402344 93.042969 72.921875 C 90.601562 68.441406 92.242188 62.824219 96.710938 60.375 C 101.175781 57.925781 106.777344 59.570312 109.21875 64.050781 Z M 109.21875 64.050781 "/>
<path style=" stroke:none;fill-rule:nonzero;fill:rgb(18.431373%,18.039216%,25.490196%);fill-opacity:1;" d="M 93.160156 61.257812 C 94.804688 58.289062 96.859375 56.367188 100.246094 56.4375 C 103.628906 56.507812 106.558594 56.375 108.082031 59.40625 C 108.484375 58.652344 108.6875 57.804688 108.667969 56.945312 C 109.605469 57.558594 110.09375 58.671875 109.90625 59.78125 C 110.507812 59.425781 110.890625 58.789062 110.921875 58.089844 C 112.050781 58.46875 112.34375 60.066406 111.773438 61.113281 C 111.199219 62.160156 110.078125 62.765625 109.003906 63.277344 C 107.925781 63.789062 108.425781 66.5 107.722656 67.464844 C 107.230469 68.136719 107.007812 68.960938 106.675781 69.726562 C 106.664062 69.757812 106.640625 69.78125 106.609375 69.796875 C 105.851562 70.21875 105.375 70.976562 105.507812 71.835938 C 105.523438 71.898438 105.519531 71.96875 105.496094 72.03125 C 104.539062 73.84375 103.503906 75.738281 101.765625 76.820312 C 100.371094 77.664062 98.699219 77.921875 97.117188 77.539062 C 95.339844 77.113281 93.804688 75.933594 92.695312 74.476562 C 91.589844 73.019531 90.878906 71.296875 90.34375 69.546875 C 89.867188 67.992188 89.523438 66.328125 89.898438 64.75 C 90.273438 63.167969 91.550781 61.703125 93.164062 61.582031 "/>
</g>
</svg>
