<?xml version="1.0" encoding="UTF-8"?>
<svg xmlns="http://www.w3.org/2000/svg" xmlns:xlink="http://www.w3.org/1999/xlink" width="1280px" height="928px" viewBox="0 0 1279 928" version="1.1">
<g id="surface1">
<path style=" stroke:none;fill-rule:nonzero;fill:rgb(94.901961%,94.901961%,94.901961%);fill-opacity:1;" d="M 692.351562 172.886719 C 692.035156 208.863281 689.402344 244.78125 684.464844 280.417969 C 684.292969 281.667969 684.105469 282.917969 683.929688 284.171875 L 347.171875 282.289062 C 346.183594 281.046875 345.210938 279.789062 344.269531 278.515625 C 341.125 274.300781 338.175781 269.96875 335.472656 265.488281 C 322.46875 243.898438 316.519531 218.621094 322.484375 201.179688 L 322.589844 200.910156 C 323.878906 197.089844 325.90625 193.5625 328.558594 190.53125 C 342.160156 175.214844 369.65625 177.765625 394.609375 190.128906 C 372.226562 165.621094 354.40625 134.691406 353.054688 107.085938 C 351.726562 80.15625 365.800781 60.921875 381.0625 44.574219 C 381.566406 44.035156 382.066406 43.507812 382.566406 42.984375 C 382.808594 42.714844 383.066406 42.457031 383.308594 42.1875 C 395.21875 29.730469 409.105469 17.449219 429.199219 18.933594 C 451.242188 20.566406 475.679688 39.039062 492.8125 60.558594 C 509.949219 82.066406 521.335938 106.5 532.875 130.347656 C 544.433594 154.179688 556.933594 178.617188 575.476562 198.988281 C 550.363281 167.203125 530.113281 131.042969 522.632812 95.871094 C 515.152344 60.699219 521.734375 26.921875 544.117188 10.355469 C 550.914062 5.484375 558.777344 2.308594 567.050781 1.097656 C 568.015625 0.9375 569 0.808594 569.996094 0.695312 C 590.714844 -1.664062 615.457031 5.503906 636.507812 22.644531 C 659.691406 41.515625 675.761719 69.488281 683.761719 96.046875 C 691.757812 122.605469 692.609375 148.171875 692.351562 172.886719 Z M 692.351562 172.886719 "/>
<path style=" stroke:none;fill-rule:nonzero;fill:rgb(100%,100%,100%);fill-opacity:1;" d="M 472.023438 282.988281 L 465.585938 282.949219 C 463.539062 281.671875 461.484375 280.40625 459.421875 279.160156 C 458.144531 278.351562 456.851562 277.574219 455.558594 276.78125 C 434.199219 263.730469 412.703125 251.214844 391.078125 239.226562 C 369.472656 227.230469 347.753906 215.785156 325.929688 204.894531 C 324.738281 204.375 324.085938 203.078125 324.378906 201.808594 C 324.402344 201.726562 324.4375 201.652344 324.488281 201.582031 C 324.792969 201.011719 325.472656 200.773438 326.464844 201.261719 C 329.140625 202.605469 331.832031 203.949219 334.511719 205.320312 C 356.394531 216.398438 378.183594 228.027344 399.878906 240.210938 C 421.5625 252.390625 443.121094 265.105469 464.554688 278.359375 C 465.003906 278.632812 465.457031 278.921875 465.90625 279.195312 C 467.949219 280.457031 469.980469 281.722656 472.023438 282.988281 Z M 472.023438 282.988281 "/>
<path style=" stroke:none;fill-rule:nonzero;fill:rgb(100%,100%,100%);fill-opacity:1;" d="M 555.050781 283.449219 L 551.070312 283.429688 C 550.171875 282.171875 549.289062 280.914062 548.390625 279.65625 C 527.289062 250.054688 506.195312 220.449219 485.101562 190.847656 C 450.5625 142.382812 416.03125 93.917969 381.511719 45.453125 C 381.308594 45.191406 381.15625 44.894531 381.0625 44.574219 C 380.769531 43.5 381.554688 42.871094 382.566406 42.984375 C 383.425781 43.105469 384.195312 43.59375 384.671875 44.324219 C 404.035156 71.5 423.394531 98.671875 442.75 125.828125 C 477.113281 174.050781 511.46875 222.269531 545.820312 270.480469 C 548.003906 273.542969 550.1875 276.617188 552.375 279.679688 C 553.273438 280.9375 554.167969 282.191406 555.050781 283.449219 Z M 555.050781 283.449219 "/>
<path style=" stroke:none;fill-rule:nonzero;fill:rgb(100%,100%,100%);fill-opacity:1;" d="M 643.761719 260.316406 C 643.558594 267.03125 643.117188 273.636719 642.535156 280.183594 C 642.421875 281.433594 642.308594 282.6875 642.199219 283.9375 L 638.019531 283.914062 C 638.148438 282.664062 638.273438 281.410156 638.386719 280.160156 C 639.269531 270.703125 639.898438 261.140625 639.980469 251.316406 C 640.09375 224.082031 637.441406 196.910156 632.0625 170.210938 C 626.351562 141.464844 618.144531 113.269531 607.542969 85.949219 C 596.414062 57.132812 582.996094 29.253906 567.421875 2.582031 C 567.128906 2.144531 566.996094 1.621094 567.050781 1.097656 C 567.222656 -0.0898438 568.808594 -0.445312 569.996094 0.695312 C 570.230469 0.917969 570.429688 1.171875 570.59375 1.453125 C 572.519531 4.765625 574.414062 8.09375 576.269531 11.425781 C 591.273438 38.25 604.113281 66.222656 614.671875 95.085938 C 624.726562 122.5 632.375 150.734375 637.53125 179.476562 C 642.363281 206.140625 644.449219 233.226562 643.761719 260.316406 Z M 643.761719 260.316406 "/>
<path style=" stroke:none;fill-rule:nonzero;fill:rgb(24.705882%,23.921569%,33.72549%);fill-opacity:1;" d="M 928.664062 281.378906 L 13.152344 281.378906 C 5.890625 281.386719 0.0078125 287.273438 0 294.535156 L 0 915.195312 C 0.0078125 922.460938 5.890625 928.347656 13.152344 928.351562 L 928.664062 928.351562 C 932.511719 928.351562 936.164062 926.664062 938.664062 923.734375 C 938.765625 923.621094 938.863281 923.5 938.949219 923.375 C 939.734375 922.414062 940.371094 921.339844 940.835938 920.191406 C 941.496094 918.609375 941.835938 916.910156 941.828125 915.195312 L 941.828125 294.535156 C 941.820312 287.265625 935.929688 281.378906 928.664062 281.378906 Z M 938.074219 915.195312 C 938.074219 917.03125 937.535156 918.824219 936.519531 920.355469 C 935.617188 921.703125 934.394531 922.800781 932.960938 923.554688 C 931.632812 924.242188 930.15625 924.597656 928.664062 924.59375 L 13.152344 924.59375 C 7.964844 924.589844 3.761719 920.382812 3.753906 915.195312 L 3.753906 294.535156 C 3.761719 289.347656 7.964844 285.140625 13.152344 285.136719 L 928.664062 285.136719 C 933.855469 285.136719 938.066406 289.34375 938.074219 294.535156 Z M 938.074219 915.195312 "/>
<path style=" stroke:none;fill-rule:nonzero;fill:rgb(24.705882%,23.921569%,33.72549%);fill-opacity:1;" d="M 1.875 334.113281 L 939.945312 334.113281 L 939.945312 337.875 L 1.875 337.875 Z M 1.875 334.113281 "/>
<path style=" stroke:none;fill-rule:nonzero;fill:rgb(24.705882%,23.921569%,33.72549%);fill-opacity:1;" d="M 45.113281 309.589844 C 45.113281 315.820312 40.0625 320.875 33.832031 320.875 C 27.601562 320.875 22.554688 315.820312 22.554688 309.589844 C 22.554688 303.359375 27.601562 298.304688 33.832031 298.304688 C 40.0625 298.304688 45.113281 303.359375 45.113281 309.589844 Z M 45.113281 309.589844 "/>
<path style=" stroke:none;fill-rule:nonzero;fill:rgb(24.705882%,23.921569%,33.72549%);fill-opacity:1;" d="M 77.539062 309.589844 C 77.539062 315.820312 72.488281 320.875 66.261719 320.875 C 60.03125 320.875 54.980469 315.820312 54.980469 309.589844 C 54.980469 303.359375 60.03125 298.304688 66.261719 298.304688 C 72.488281 298.304688 77.539062 303.359375 77.539062 309.589844 Z M 77.539062 309.589844 "/>
<path style=" stroke:none;fill-rule:nonzero;fill:rgb(24.705882%,23.921569%,33.72549%);fill-opacity:1;" d="M 109.96875 309.589844 C 109.96875 315.820312 104.917969 320.875 98.6875 320.875 C 92.460938 320.875 87.410156 315.820312 87.410156 309.589844 C 87.410156 303.359375 92.460938 298.304688 98.6875 298.304688 C 104.917969 298.304688 109.96875 303.359375 109.96875 309.589844 Z M 109.96875 309.589844 "/>
<path style=" stroke:none;fill-rule:nonzero;fill:rgb(24.705882%,23.921569%,33.72549%);fill-opacity:1;" d="M 706.34375 421.183594 L 235.769531 421.183594 C 224.941406 421.183594 216.160156 412.402344 216.160156 401.570312 C 216.160156 390.734375 224.941406 381.953125 235.769531 381.953125 L 706.34375 381.953125 C 717.171875 381.953125 725.953125 390.734375 725.953125 401.570312 C 725.953125 412.402344 717.171875 421.183594 706.34375 421.183594 Z M 235.769531 384.96875 C 226.605469 384.96875 219.179688 392.402344 219.179688 401.570312 C 219.179688 410.734375 226.605469 418.167969 235.769531 418.167969 L 706.34375 418.167969 C 715.507812 418.167969 722.9375 410.734375 722.9375 401.570312 C 722.9375 392.402344 715.507812 384.96875 706.34375 384.96875 Z M 235.769531 384.96875 "/>
<path style=" stroke:none;fill-rule:nonzero;fill:rgb(0%,0%,54.509804%);fill-opacity:1;" d="M 274.839844 651.476562 L 93.851562 651.476562 C 79.695312 651.460938 68.226562 639.984375 68.210938 625.824219 L 68.210938 541.324219 C 68.226562 527.164062 79.695312 515.6875 93.851562 515.671875 L 274.839844 515.671875 C 288.996094 515.6875 300.464844 527.164062 300.480469 541.324219 L 300.480469 625.824219 C 300.464844 639.984375 288.996094 651.460938 274.839844 651.476562 Z M 274.839844 651.476562 "/>
<path style=" stroke:none;fill-rule:nonzero;fill:rgb(0%,0%,54.509804%);fill-opacity:1;" d="M 561.410156 651.476562 L 380.417969 651.476562 C 366.265625 651.460938 354.792969 639.984375 354.777344 625.824219 L 354.777344 541.324219 C 354.792969 527.164062 366.265625 515.6875 380.417969 515.671875 L 561.410156 515.671875 C 575.5625 515.6875 587.035156 527.164062 587.050781 541.324219 L 587.050781 625.824219 C 587.035156 639.984375 575.5625 651.460938 561.410156 651.476562 Z M 561.410156 651.476562 "/>
<path style=" stroke:none;fill-rule:nonzero;fill:rgb(0%,0%,54.509804%);fill-opacity:1;" d="M 847.976562 651.476562 L 666.988281 651.476562 C 652.832031 651.460938 641.363281 639.984375 641.347656 625.824219 L 641.347656 541.324219 C 641.363281 527.164062 652.832031 515.6875 666.988281 515.671875 L 847.976562 515.671875 C 862.132812 515.6875 873.601562 527.164062 873.617188 541.324219 L 873.617188 625.824219 C 873.601562 639.984375 862.132812 651.460938 847.976562 651.476562 Z M 847.976562 651.476562 "/>
<path style=" stroke:none;fill-rule:nonzero;fill:rgb(0%,0%,54.509804%);fill-opacity:1;" d="M 274.839844 829.53125 L 93.851562 829.53125 C 79.695312 829.515625 68.226562 818.039062 68.210938 803.878906 L 68.210938 719.378906 C 68.226562 705.21875 79.695312 693.742188 93.851562 693.726562 L 274.839844 693.726562 C 288.996094 693.742188 300.464844 705.21875 300.480469 719.378906 L 300.480469 803.878906 C 300.464844 818.039062 288.996094 829.515625 274.839844 829.53125 Z M 274.839844 829.53125 "/>
<path style=" stroke:none;fill-rule:nonzero;fill:rgb(0%,0%,54.509804%);fill-opacity:1;" d="M 561.410156 829.53125 L 380.417969 829.53125 C 366.265625 829.515625 354.792969 818.039062 354.777344 803.878906 L 354.777344 719.378906 C 354.792969 705.21875 366.265625 693.742188 380.417969 693.726562 L 561.410156 693.726562 C 575.5625 693.742188 587.035156 705.21875 587.050781 719.378906 L 587.050781 803.878906 C 587.035156 818.039062 575.5625 829.515625 561.410156 829.53125 Z M 561.410156 829.53125 "/>
<path style=" stroke:none;fill-rule:nonzero;fill:rgb(0%,0%,54.509804%);fill-opacity:1;" d="M 847.976562 829.53125 L 666.988281 829.53125 C 652.832031 829.515625 641.363281 818.039062 641.347656 803.878906 L 641.347656 719.378906 C 641.363281 705.21875 652.832031 693.742188 666.988281 693.726562 L 847.976562 693.726562 C 862.132812 693.742188 873.601562 705.21875 873.617188 719.378906 L 873.617188 803.878906 C 873.601562 818.039062 862.132812 829.515625 847.976562 829.53125 Z M 847.976562 829.53125 "/>
<path style=" stroke:none;fill-rule:nonzero;fill:rgb(18.431373%,18.039216%,25.490196%);fill-opacity:1;" d="M 1101.199219 375.339844 C 1101.199219 402.839844 1078.914062 425.136719 1051.425781 425.136719 C 1023.9375 425.136719 1001.652344 402.839844 1001.652344 375.339844 C 1001.652344 347.839844 1023.9375 325.542969 1051.425781 325.542969 C 1078.914062 325.542969 1101.199219 347.839844 1101.199219 375.339844 Z M 1101.199219 375.339844 "/>
<path style=" stroke:none;fill-rule:nonzero;fill:rgb(100%,72.156863%,72.156863%);fill-opacity:1;" d="M 926.738281 634.378906 C 924.503906 630.132812 924.265625 625.117188 926.085938 620.679688 C 927.90625 616.238281 931.597656 612.835938 936.167969 611.382812 L 999.238281 477.902344 L 1028.085938 498.144531 L 957.019531 622.984375 C 958.996094 631.003906 954.664062 639.230469 946.9375 642.136719 C 939.210938 645.046875 930.53125 641.710938 926.738281 634.378906 Z M 926.738281 634.378906 "/>
<path style=" stroke:none;fill-rule:nonzero;fill:rgb(0%,0%,54.509804%);fill-opacity:1;" d="M 980.78125 495.625 C 980.171875 493.601562 980.476562 491.410156 981.613281 489.628906 L 1001.222656 458.875 C 1005.761719 448.71875 1017.660156 444.148438 1027.824219 448.660156 C 1037.988281 453.171875 1042.589844 465.0625 1038.109375 475.246094 L 1028.230469 510.484375 C 1027.660156 512.519531 1026.230469 514.207031 1024.320312 515.101562 C 1022.40625 516 1020.199219 516.019531 1018.269531 515.15625 L 984.773438 500.171875 C 982.84375 499.308594 981.386719 497.648438 980.78125 495.625 Z M 980.78125 495.625 "/>
<path style=" stroke:none;fill-rule:nonzero;fill:rgb(100%,72.156863%,72.156863%);fill-opacity:1;" d="M 1139.472656 647.613281 C 1134.800781 646.527344 1130.851562 643.425781 1128.683594 639.148438 C 1126.515625 634.867188 1126.355469 629.847656 1128.242188 625.4375 L 1068.511719 490.429688 L 1102.679688 481.820312 L 1150.648438 617.238281 C 1158.007812 620.984375 1161.398438 629.644531 1158.546875 637.390625 C 1155.695312 645.140625 1147.5 649.53125 1139.472656 647.613281 Z M 1139.472656 647.613281 "/>
<path style=" stroke:none;fill-rule:nonzero;fill:rgb(100%,72.156863%,72.156863%);fill-opacity:1;" d="M 1155.753906 892.324219 L 1138.378906 898.65625 L 1105.710938 834.617188 L 1131.351562 825.277344 Z M 1155.753906 892.324219 "/>
<path style=" stroke:none;fill-rule:nonzero;fill:rgb(18.431373%,18.039216%,25.490196%);fill-opacity:1;" d="M 1124.160156 898.210938 L 1157.667969 886.003906 L 1165.351562 907.109375 L 1110.742188 927.003906 C 1106.5 915.34375 1112.507812 902.453125 1124.160156 898.210938 Z M 1124.160156 898.210938 "/>
<path style=" stroke:none;fill-rule:nonzero;fill:rgb(18.431373%,18.039216%,25.490196%);fill-opacity:1;" d="M 1108.320312 851.820312 L 1042.128906 735.929688 C 1040.824219 733.648438 1040.855469 730.839844 1042.207031 728.585938 L 1072.011719 678.886719 C 1073.457031 676.476562 1076.152344 675.117188 1078.945312 675.390625 C 1081.738281 675.660156 1084.121094 677.515625 1085.074219 680.15625 L 1141.429688 836.28125 C 1142.714844 839.804688 1141.101562 843.726562 1137.707031 845.320312 L 1117.738281 854.78125 C 1116.773438 855.238281 1115.722656 855.476562 1114.65625 855.476562 C 1112.042969 855.480469 1109.625 854.085938 1108.320312 851.820312 Z M 1108.320312 851.820312 "/>
<path style=" stroke:none;fill-rule:nonzero;fill:rgb(100%,72.156863%,72.156863%);fill-opacity:1;" d="M 1083.941406 392.6875 C 1083.941406 413.152344 1067.355469 429.746094 1046.894531 429.746094 C 1026.4375 429.746094 1009.851562 413.152344 1009.851562 392.6875 C 1009.851562 372.21875 1026.4375 355.625 1046.894531 355.625 C 1067.355469 355.625 1083.941406 372.21875 1083.941406 392.6875 Z M 1083.941406 392.6875 "/>
<path style=" stroke:none;fill-rule:nonzero;fill:rgb(0%,0%,54.509804%);fill-opacity:1;" d="M 994.203125 560.558594 C 965.03125 495.839844 994.441406 459.671875 1008.441406 447.125 C 1012.472656 443.507812 1017.699219 441.507812 1023.117188 441.511719 L 1075.300781 441.511719 C 1082.921875 441.511719 1089.996094 445.457031 1094.003906 451.941406 C 1098.007812 458.425781 1098.371094 466.523438 1094.964844 473.339844 L 1060.078125 543.144531 L 994.488281 561.1875 Z M 994.203125 560.558594 "/>
<path style=" stroke:none;fill-rule:nonzero;fill:rgb(0%,0%,54.509804%);fill-opacity:1;" d="M 1070.546875 514.625 C 1068.621094 513.761719 1067.164062 512.101562 1066.558594 510.078125 L 1056.113281 475.125 C 1051.40625 465.050781 1055.730469 453.0625 1065.785156 448.320312 C 1075.839844 443.574219 1087.835938 447.859375 1092.613281 457.902344 L 1112.808594 488.417969 C 1113.972656 490.179688 1114.316406 492.363281 1113.742188 494.398438 C 1113.171875 496.433594 1111.742188 498.117188 1109.832031 499.011719 L 1076.597656 514.578125 C 1074.683594 515.472656 1072.476562 515.492188 1070.546875 514.625 Z M 1070.546875 514.625 "/>
<path style=" stroke:none;fill-rule:nonzero;fill:rgb(100%,72.156863%,72.156863%);fill-opacity:1;" d="M 1036.394531 909.824219 L 1017.902344 909.824219 L 1009.105469 838.46875 L 1036.394531 838.46875 Z M 1036.394531 909.824219 "/>
<path style=" stroke:none;fill-rule:nonzero;fill:rgb(18.431373%,18.039216%,25.490196%);fill-opacity:1;" d="M 1004.695312 904.539062 L 1040.355469 904.539062 L 1040.355469 927 L 982.242188 927 C 982.242188 914.59375 992.292969 904.539062 1004.695312 904.539062 Z M 1004.695312 904.539062 "/>
<path style=" stroke:none;fill-rule:nonzero;fill:rgb(18.431373%,18.039216%,25.490196%);fill-opacity:1;" d="M 1028.558594 882.585938 L 998.953125 879.167969 C 997.015625 878.945312 995.253906 877.953125 994.054688 876.414062 C 992.855469 874.875 992.328125 872.921875 992.582031 870.988281 L 1019.003906 671.960938 C 1019.097656 671.265625 1019.058594 670.5625 1018.894531 669.882812 L 992.339844 560.265625 C 991.832031 558.21875 992.246094 556.054688 993.476562 554.339844 C 997.59375 548.660156 1011.703125 535.425781 1053.675781 535.175781 L 1053.722656 535.175781 C 1056.578125 535.175781 1059.167969 536.839844 1060.355469 539.4375 L 1065.953125 551.761719 C 1066.371094 552.675781 1067.023438 553.464844 1067.84375 554.042969 C 1075.546875 559.5 1112.882812 590.132812 1090.960938 657.390625 C 1069.414062 723.492188 1041.8125 851.824219 1036.496094 876.878906 C 1035.796875 880.234375 1032.835938 882.636719 1029.410156 882.632812 C 1029.125 882.632812 1028.839844 882.617188 1028.558594 882.585938 Z M 1028.558594 882.585938 "/>
<path style=" stroke:none;fill-rule:nonzero;fill:rgb(18.431373%,18.039216%,25.490196%);fill-opacity:1;" d="M 1085.820312 369.375 C 1077.355469 375.210938 1067.308594 378.316406 1057.027344 378.277344 C 1060.695312 380.820312 1064.871094 382.539062 1069.265625 383.3125 C 1055.59375 386.246094 1041.46875 386.328125 1027.765625 383.546875 C 1024.722656 383.058594 1021.78125 382.046875 1019.078125 380.5625 C 1016.355469 379.039062 1014.40625 376.433594 1013.71875 373.386719 C 1012.804688 368.183594 1016.859375 363.457031 1021.070312 360.269531 C 1034.128906 350.542969 1050.863281 347.195312 1066.65625 351.15625 C 1071.75 352.472656 1076.851562 354.699219 1080.160156 358.789062 C 1083.464844 362.882812 1084.445312 369.1875 1081.292969 373.402344 Z M 1085.820312 369.375 "/>
<path style=" stroke:none;fill-rule:nonzero;fill:rgb(18.431373%,18.039216%,25.490196%);fill-opacity:1;" d="M 1061.085938 343.59375 C 1056.855469 342.183594 1052.5 340.707031 1049.148438 337.765625 C 1045.792969 334.824219 1043.667969 330.011719 1045.171875 325.8125 C 1046.625 321.765625 1051.050781 319.402344 1055.335938 319.082031 C 1059.621094 318.765625 1063.839844 320.089844 1067.929688 321.402344 C 1066.082031 318.605469 1064.167969 313.179688 1062.496094 307.457031 C 1058.675781 294.402344 1074.589844 282.480469 1088.152344 283.464844 C 1088.550781 283.496094 1088.9375 283.535156 1089.3125 283.589844 C 1102.984375 285.585938 1110.078125 290.804688 1119.628906 300.796875 C 1131.574219 313.296875 1137.824219 330.164062 1142.007812 346.941406 C 1146.191406 363.722656 1148.648438 380.992188 1154.53125 397.253906 C 1160.417969 413.515625 1170.34375 429.144531 1185.523438 437.421875 C 1202.46875 446.359375 1222.980469 445.09375 1238.703125 434.144531 C 1240.832031 448.628906 1235.933594 463.261719 1225.515625 473.539062 C 1215.09375 483.820312 1200.402344 488.515625 1185.957031 486.179688 C 1166.359375 483.011719 1150.664062 467.222656 1142.28125 449.222656 C 1133.894531 431.222656 1131.605469 411.078125 1129.503906 391.332031 C 1127.398438 371.582031 1125.269531 351.441406 1117.15625 333.316406 C 1113.875 325.984375 1109.042969 318.515625 1100.40625 317.347656 C 1095.769531 316.589844 1091.199219 319.039062 1089.261719 323.320312 C 1085.464844 332.515625 1098.457031 340.300781 1095.128906 349.066406 C 1093.65625 352.527344 1090.304688 354.816406 1086.542969 354.929688 C 1080.265625 355.34375 1075.105469 351.742188 1070.246094 348.265625 C 1060.304688 341.15625 1061.085938 343.59375 1061.085938 343.59375 Z M 1061.085938 343.59375 "/>
<path style=" stroke:none;fill-rule:nonzero;fill:rgb(24.705882%,23.921569%,33.72549%);fill-opacity:1;" d="M 1277.921875 928.351562 L 931.019531 928.351562 C 930.1875 928.351562 929.511719 927.675781 929.511719 926.84375 C 929.511719 926.011719 930.1875 925.335938 931.019531 925.335938 L 1277.921875 925.335938 C 1278.753906 925.335938 1279.429688 926.011719 1279.429688 926.84375 C 1279.429688 927.675781 1278.753906 928.351562 1277.921875 928.351562 Z M 1277.921875 928.351562 "/>
</g>
</svg>
