<?xml version="1.0" encoding="UTF-8"?>
<svg xmlns="http://www.w3.org/2000/svg" xmlns:xlink="http://www.w3.org/1999/xlink" width="600px" height="427px" viewBox="0 0 600 427" version="1.1">
<g id="surface1">
<path style=" stroke:none;fill-rule:nonzero;fill:rgb(94.901961%,94.901961%,94.901961%);fill-opacity:1;" d="M 324.75 79.546875 C 324.605469 96.101562 323.371094 112.632812 321.058594 129.027344 C 320.976562 129.601562 320.890625 130.179688 320.808594 130.757812 L 163.09375 129.890625 C 162.628906 129.316406 162.175781 128.742188 161.734375 128.152344 C 160.261719 126.214844 158.878906 124.21875 157.613281 122.160156 C 151.523438 112.226562 148.734375 100.59375 151.53125 92.570312 L 151.578125 92.445312 C 152.183594 90.6875 153.132812 89.0625 154.375 87.671875 C 160.746094 80.621094 173.621094 81.796875 185.308594 87.484375 C 174.828125 76.207031 166.480469 61.976562 165.847656 49.273438 C 165.226562 36.882812 171.816406 28.035156 178.964844 20.511719 C 179.199219 20.261719 179.433594 20.019531 179.667969 19.777344 C 179.78125 19.65625 179.902344 19.535156 180.015625 19.414062 C 185.59375 13.679688 192.097656 8.027344 201.507812 8.710938 C 211.832031 9.464844 223.277344 17.960938 231.300781 27.863281 C 239.328125 37.761719 244.660156 49.003906 250.0625 59.976562 C 255.476562 70.941406 261.332031 82.1875 270.015625 91.558594 C 258.253906 76.933594 248.769531 60.296875 245.265625 44.109375 C 241.761719 27.929688 244.847656 12.390625 255.328125 4.765625 C 258.511719 2.523438 262.195312 1.0625 266.070312 0.507812 C 266.523438 0.433594 266.980469 0.371094 267.449219 0.316406 C 277.152344 -0.765625 288.738281 2.535156 298.597656 10.417969 C 309.457031 19.101562 316.984375 31.976562 320.726562 44.195312 C 324.472656 56.414062 324.871094 68.179688 324.75 79.546875 Z M 324.75 79.546875 "/>
<path style=" stroke:none;fill-rule:nonzero;fill:rgb(100%,100%,100%);fill-opacity:1;" d="M 221.566406 130.207031 L 218.550781 130.195312 C 217.589844 129.605469 216.628906 129.023438 215.664062 128.449219 C 215.066406 128.078125 214.460938 127.71875 213.855469 127.355469 C 203.851562 121.351562 193.785156 115.59375 183.65625 110.074219 C 173.535156 104.558594 163.367188 99.289062 153.144531 94.277344 C 152.585938 94.039062 152.28125 93.441406 152.417969 92.859375 C 152.429688 92.820312 152.445312 92.785156 152.46875 92.753906 C 152.609375 92.488281 152.929688 92.382812 153.394531 92.605469 C 154.648438 93.226562 155.910156 93.84375 157.164062 94.476562 C 167.410156 99.570312 177.617188 104.921875 187.777344 110.527344 C 197.933594 116.132812 208.027344 121.984375 218.066406 128.082031 C 218.277344 128.207031 218.488281 128.335938 218.699219 128.464844 C 219.65625 129.046875 220.609375 129.628906 221.566406 130.207031 Z M 221.566406 130.207031 "/>
<path style=" stroke:none;fill-rule:nonzero;fill:rgb(100%,100%,100%);fill-opacity:1;" d="M 260.449219 130.421875 L 258.585938 130.414062 C 258.164062 129.835938 257.75 129.257812 257.332031 128.679688 C 247.449219 115.054688 237.566406 101.433594 227.691406 87.816406 C 211.515625 65.515625 195.34375 43.214844 179.175781 20.914062 C 179.078125 20.792969 179.007812 20.65625 178.964844 20.511719 C 178.828125 20.015625 179.195312 19.726562 179.667969 19.777344 C 180.074219 19.835938 180.429688 20.058594 180.65625 20.394531 C 189.722656 32.898438 198.789062 45.402344 207.855469 57.898438 C 223.949219 80.085938 240.039062 102.269531 256.125 124.457031 C 257.148438 125.863281 258.171875 127.28125 259.195312 128.6875 C 259.617188 129.265625 260.035156 129.84375 260.449219 130.421875 Z M 260.449219 130.421875 "/>
<path style=" stroke:none;fill-rule:nonzero;fill:rgb(100%,100%,100%);fill-opacity:1;" d="M 301.996094 119.78125 C 301.902344 122.871094 301.691406 125.90625 301.421875 128.921875 C 301.367188 129.496094 301.316406 130.070312 301.261719 130.648438 L 299.308594 130.636719 C 299.367188 130.0625 299.425781 129.484375 299.480469 128.910156 C 299.890625 124.558594 300.1875 120.160156 300.226562 115.636719 C 300.277344 103.105469 299.035156 90.601562 296.515625 78.316406 C 293.839844 65.09375 290 52.121094 285.03125 39.546875 C 279.820312 26.289062 273.539062 13.457031 266.242188 1.1875 C 266.105469 0.984375 266.042969 0.746094 266.070312 0.507812 C 266.152344 -0.0429688 266.894531 -0.203125 267.449219 0.316406 C 267.558594 0.421875 267.652344 0.539062 267.730469 0.667969 C 268.632812 2.191406 269.515625 3.722656 270.386719 5.257812 C 277.414062 17.601562 283.425781 30.472656 288.371094 43.753906 C 293.082031 56.367188 296.664062 69.355469 299.078125 82.582031 C 301.339844 94.851562 302.316406 107.3125 301.996094 119.78125 Z M 301.996094 119.78125 "/>
<path style=" stroke:none;fill-rule:nonzero;fill:rgb(24.705882%,23.921569%,33.72549%);fill-opacity:1;" d="M 435.425781 129.46875 L 6.660156 129.46875 C 3.257812 129.472656 0.503906 132.183594 0.5 135.523438 L 0.5 421.105469 C 0.503906 424.449219 3.257812 427.160156 6.660156 427.160156 L 435.425781 427.160156 C 437.226562 427.160156 438.9375 426.386719 440.109375 425.035156 C 440.15625 424.988281 440.203125 424.929688 440.242188 424.871094 C 440.609375 424.429688 440.90625 423.9375 441.125 423.40625 C 441.433594 422.679688 441.59375 421.894531 441.589844 421.105469 L 441.589844 135.523438 C 441.585938 132.179688 438.828125 129.46875 435.425781 129.46875 Z M 439.832031 421.105469 C 439.832031 421.953125 439.578125 422.777344 439.105469 423.484375 C 438.683594 424.101562 438.109375 424.605469 437.4375 424.957031 C 436.816406 425.269531 436.125 425.4375 435.425781 425.433594 L 6.660156 425.433594 C 4.230469 425.433594 2.261719 423.496094 2.257812 421.105469 L 2.257812 135.523438 C 2.261719 133.136719 4.230469 131.203125 6.660156 131.199219 L 435.425781 131.199219 C 437.855469 131.199219 439.828125 133.132812 439.832031 135.523438 Z M 439.832031 421.105469 "/>
<path style=" stroke:none;fill-rule:nonzero;fill:rgb(24.705882%,23.921569%,33.72549%);fill-opacity:1;" d="M 1.378906 153.738281 L 440.707031 153.738281 L 440.707031 155.464844 L 1.378906 155.464844 Z M 1.378906 153.738281 "/>
<path style=" stroke:none;fill-rule:nonzero;fill:rgb(24.705882%,23.921569%,33.72549%);fill-opacity:1;" d="M 21.628906 142.453125 C 21.628906 145.320312 19.261719 147.644531 16.34375 147.644531 C 13.425781 147.644531 11.0625 145.320312 11.0625 142.453125 C 11.0625 139.585938 13.425781 137.261719 16.34375 137.261719 C 19.261719 137.261719 21.628906 139.585938 21.628906 142.453125 Z M 21.628906 142.453125 "/>
<path style=" stroke:none;fill-rule:nonzero;fill:rgb(24.705882%,23.921569%,33.72549%);fill-opacity:1;" d="M 36.816406 142.453125 C 36.816406 145.320312 34.449219 147.644531 31.53125 147.644531 C 28.613281 147.644531 26.25 145.320312 26.25 142.453125 C 26.25 139.585938 28.613281 137.261719 31.53125 137.261719 C 34.449219 137.261719 36.816406 139.585938 36.816406 142.453125 Z M 36.816406 142.453125 "/>
<path style=" stroke:none;fill-rule:nonzero;fill:rgb(24.705882%,23.921569%,33.72549%);fill-opacity:1;" d="M 52.003906 142.453125 C 52.003906 145.320312 49.636719 147.644531 46.71875 147.644531 C 43.800781 147.644531 41.4375 145.320312 41.4375 142.453125 C 41.4375 139.585938 43.800781 137.261719 46.71875 137.261719 C 49.636719 137.261719 52.003906 139.585938 52.003906 142.453125 Z M 52.003906 142.453125 "/>
<path style=" stroke:none;fill-rule:nonzero;fill:rgb(24.705882%,23.921569%,33.72549%);fill-opacity:1;" d="M 331.304688 193.796875 L 110.917969 193.796875 C 105.847656 193.796875 101.734375 189.757812 101.734375 184.773438 C 101.734375 179.789062 105.847656 175.746094 110.917969 175.746094 L 331.304688 175.746094 C 336.378906 175.746094 340.488281 179.789062 340.488281 184.773438 C 340.488281 189.757812 336.378906 193.796875 331.304688 193.796875 Z M 110.917969 177.132812 C 106.628906 177.132812 103.148438 180.554688 103.148438 184.773438 C 103.148438 188.992188 106.628906 192.410156 110.917969 192.410156 L 331.304688 192.410156 C 335.597656 192.410156 339.074219 188.992188 339.074219 184.773438 C 339.074219 180.554688 335.597656 177.132812 331.304688 177.132812 Z M 110.917969 177.132812 "/>
<path style=" stroke:none;fill-rule:nonzero;fill:rgb(0%,0%,54.509804%);fill-opacity:1;" d="M 129.21875 299.761719 L 44.453125 299.761719 C 37.824219 299.753906 32.453125 294.476562 32.445312 287.960938 L 32.445312 249.078125 C 32.453125 242.566406 37.824219 237.285156 44.453125 237.277344 L 129.21875 237.277344 C 135.847656 237.285156 141.21875 242.566406 141.226562 249.078125 L 141.226562 287.960938 C 141.21875 294.476562 135.847656 299.753906 129.21875 299.761719 Z M 129.21875 299.761719 "/>
<path style=" stroke:none;fill-rule:nonzero;fill:rgb(0%,0%,54.509804%);fill-opacity:1;" d="M 263.429688 299.761719 L 178.664062 299.761719 C 172.035156 299.753906 166.664062 294.476562 166.65625 287.960938 L 166.65625 249.078125 C 166.664062 242.566406 172.035156 237.285156 178.664062 237.277344 L 263.429688 237.277344 C 270.058594 237.285156 275.429688 242.566406 275.4375 249.078125 L 275.4375 287.960938 C 275.429688 294.476562 270.058594 299.753906 263.429688 299.761719 Z M 263.429688 299.761719 "/>
<path style=" stroke:none;fill-rule:nonzero;fill:rgb(0%,0%,54.509804%);fill-opacity:1;" d="M 397.636719 299.761719 L 312.875 299.761719 C 306.246094 299.753906 300.871094 294.476562 300.867188 287.960938 L 300.867188 249.078125 C 300.871094 242.566406 306.246094 237.285156 312.875 237.277344 L 397.636719 237.277344 C 404.265625 237.285156 409.636719 242.566406 409.644531 249.078125 L 409.644531 287.960938 C 409.636719 294.476562 404.265625 299.753906 397.636719 299.761719 Z M 397.636719 299.761719 "/>
<path style=" stroke:none;fill-rule:nonzero;fill:rgb(0%,0%,54.509804%);fill-opacity:1;" d="M 129.21875 381.691406 L 44.453125 381.691406 C 37.824219 381.683594 32.453125 376.40625 32.445312 369.890625 L 32.445312 331.003906 C 32.453125 324.492188 37.824219 319.210938 44.453125 319.203125 L 129.21875 319.203125 C 135.847656 319.210938 141.21875 324.492188 141.226562 331.003906 L 141.226562 369.890625 C 141.21875 376.40625 135.847656 381.683594 129.21875 381.691406 Z M 129.21875 381.691406 "/>
<path style=" stroke:none;fill-rule:nonzero;fill:rgb(0%,0%,54.509804%);fill-opacity:1;" d="M 263.429688 381.691406 L 178.664062 381.691406 C 172.035156 381.683594 166.664062 376.40625 166.65625 369.890625 L 166.65625 331.003906 C 166.664062 324.492188 172.035156 319.210938 178.664062 319.203125 L 263.429688 319.203125 C 270.058594 319.210938 275.429688 324.492188 275.4375 331.003906 L 275.4375 369.890625 C 275.429688 376.40625 270.058594 381.683594 263.429688 381.691406 Z M 263.429688 381.691406 "/>
<path style=" stroke:none;fill-rule:nonzero;fill:rgb(0%,0%,54.509804%);fill-opacity:1;" d="M 397.636719 381.691406 L 312.875 381.691406 C 306.246094 381.683594 300.871094 376.40625 300.867188 369.890625 L 300.867188 331.003906 C 300.871094 324.492188 306.246094 319.210938 312.875 319.203125 L 397.636719 319.203125 C 404.265625 319.210938 409.636719 324.492188 409.644531 331.003906 L 409.644531 369.890625 C 409.636719 376.40625 404.265625 381.683594 397.636719 381.691406 Z M 397.636719 381.691406 "/>
<path style=" stroke:none;fill-rule:nonzero;fill:rgb(18.431373%,18.039216%,25.490196%);fill-opacity:1;" d="M 516.230469 172.707031 C 516.230469 185.359375 505.792969 195.617188 492.917969 195.617188 C 480.046875 195.617188 469.609375 185.359375 469.609375 172.707031 C 469.609375 160.050781 480.046875 149.792969 492.917969 149.792969 C 505.792969 149.792969 516.230469 160.050781 516.230469 172.707031 Z M 516.230469 172.707031 "/>
<path style=" stroke:none;fill-rule:nonzero;fill:rgb(100%,72.156863%,72.156863%);fill-opacity:1;" d="M 434.523438 291.894531 C 433.476562 289.941406 433.367188 287.632812 434.21875 285.589844 C 435.070312 283.550781 436.800781 281.984375 438.941406 281.316406 L 468.476562 219.894531 L 481.988281 229.210938 L 448.707031 286.652344 C 449.628906 290.339844 447.601562 294.128906 443.984375 295.46875 C 440.363281 296.800781 436.300781 295.269531 434.523438 291.894531 Z M 434.523438 291.894531 "/>
<path style=" stroke:none;fill-rule:nonzero;fill:rgb(0%,0%,54.509804%);fill-opacity:1;" d="M 459.832031 228.050781 C 459.546875 227.121094 459.691406 226.113281 460.222656 225.292969 L 469.40625 211.140625 C 471.53125 206.46875 477.105469 204.367188 481.867188 206.441406 C 486.625 208.519531 488.78125 213.992188 486.683594 218.675781 L 482.054688 234.886719 C 481.789062 235.824219 481.121094 236.601562 480.222656 237.011719 C 479.328125 237.425781 478.292969 237.433594 477.390625 237.039062 L 461.703125 230.144531 C 460.800781 229.746094 460.117188 228.984375 459.832031 228.050781 Z M 459.832031 228.050781 "/>
<path style=" stroke:none;fill-rule:nonzero;fill:rgb(100%,72.156863%,72.156863%);fill-opacity:1;" d="M 534.152344 297.984375 C 531.964844 297.484375 530.117188 296.058594 529.101562 294.089844 C 528.085938 292.121094 528.011719 289.8125 528.894531 287.785156 L 500.921875 225.664062 L 516.925781 221.703125 L 539.390625 284.007812 C 542.835938 285.734375 544.421875 289.714844 543.085938 293.28125 C 541.75 296.847656 537.914062 298.871094 534.152344 297.984375 Z M 534.152344 297.984375 "/>
<path style=" stroke:none;fill-rule:nonzero;fill:rgb(100%,72.156863%,72.156863%);fill-opacity:1;" d="M 541.777344 410.585938 L 533.640625 413.5 L 518.34375 384.03125 L 530.351562 379.734375 Z M 541.777344 410.585938 "/>
<path style=" stroke:none;fill-rule:nonzero;fill:rgb(18.431373%,18.039216%,25.490196%);fill-opacity:1;" d="M 526.984375 413.292969 L 542.675781 407.675781 L 546.273438 417.386719 L 520.699219 426.539062 C 518.714844 421.175781 521.527344 415.242188 526.984375 413.292969 Z M 526.984375 413.292969 "/>
<path style=" stroke:none;fill-rule:nonzero;fill:rgb(18.431373%,18.039216%,25.490196%);fill-opacity:1;" d="M 519.566406 391.945312 L 488.566406 338.625 C 487.953125 337.574219 487.96875 336.28125 488.601562 335.242188 L 502.5625 312.375 C 503.238281 311.265625 504.5 310.640625 505.808594 310.765625 C 507.113281 310.890625 508.230469 311.746094 508.679688 312.960938 L 535.070312 384.796875 C 535.671875 386.421875 534.917969 388.222656 533.328125 388.953125 L 523.976562 393.3125 C 523.523438 393.523438 523.03125 393.628906 522.53125 393.628906 C 521.308594 393.628906 520.175781 392.988281 519.566406 391.945312 Z M 519.566406 391.945312 "/>
<path style=" stroke:none;fill-rule:nonzero;fill:rgb(100%,72.156863%,72.156863%);fill-opacity:1;" d="M 508.148438 180.683594 C 508.148438 190.105469 500.378906 197.742188 490.796875 197.742188 C 481.214844 197.742188 473.449219 190.105469 473.449219 180.683594 C 473.449219 171.269531 481.214844 163.632812 490.796875 163.632812 C 500.378906 163.632812 508.148438 171.269531 508.148438 180.683594 Z M 508.148438 180.683594 "/>
<path style=" stroke:none;fill-rule:nonzero;fill:rgb(0%,0%,54.509804%);fill-opacity:1;" d="M 466.121094 257.929688 C 452.457031 228.152344 466.230469 211.511719 472.789062 205.734375 C 474.675781 204.070312 477.125 203.152344 479.660156 203.152344 L 504.101562 203.152344 C 507.667969 203.152344 510.984375 204.96875 512.859375 207.953125 C 514.734375 210.933594 514.90625 214.660156 513.308594 217.796875 L 496.972656 249.914062 L 466.253906 258.222656 Z M 466.121094 257.929688 "/>
<path style=" stroke:none;fill-rule:nonzero;fill:rgb(0%,0%,54.509804%);fill-opacity:1;" d="M 501.875 236.792969 C 500.972656 236.398438 500.289062 235.632812 500.007812 234.699219 L 495.113281 218.617188 C 492.910156 213.984375 494.933594 208.46875 499.644531 206.285156 C 504.351562 204.101562 509.972656 206.074219 512.207031 210.691406 L 521.667969 224.734375 C 522.210938 225.546875 522.371094 226.550781 522.105469 227.488281 C 521.835938 228.421875 521.167969 229.199219 520.273438 229.613281 L 504.707031 236.769531 C 503.8125 237.183594 502.777344 237.191406 501.875 236.792969 Z M 501.875 236.792969 "/>
<path style=" stroke:none;fill-rule:nonzero;fill:rgb(100%,72.156863%,72.156863%);fill-opacity:1;" d="M 485.878906 418.636719 L 477.21875 418.636719 L 473.097656 385.804688 L 485.878906 385.804688 Z M 485.878906 418.636719 "/>
<path style=" stroke:none;fill-rule:nonzero;fill:rgb(18.431373%,18.039216%,25.490196%);fill-opacity:1;" d="M 471.03125 416.207031 L 487.734375 416.207031 L 487.734375 426.539062 L 460.515625 426.539062 C 460.515625 420.832031 465.226562 416.207031 471.03125 416.207031 Z M 471.03125 416.207031 "/>
<path style=" stroke:none;fill-rule:nonzero;fill:rgb(18.431373%,18.039216%,25.490196%);fill-opacity:1;" d="M 482.210938 406.101562 L 468.34375 404.53125 C 467.4375 404.425781 466.609375 403.96875 466.050781 403.265625 C 465.488281 402.554688 465.242188 401.660156 465.359375 400.769531 L 477.734375 309.1875 C 477.777344 308.871094 477.761719 308.546875 477.683594 308.234375 L 465.246094 257.796875 C 465.007812 256.851562 465.203125 255.855469 465.777344 255.070312 C 467.707031 252.453125 474.316406 246.363281 493.972656 246.25 L 493.996094 246.25 C 495.332031 246.25 496.546875 247.015625 497.101562 248.214844 L 499.722656 253.878906 C 499.917969 254.300781 500.222656 254.667969 500.609375 254.929688 C 504.214844 257.441406 521.699219 271.539062 511.433594 302.484375 C 501.34375 332.898438 488.417969 391.949219 485.925781 403.476562 C 485.597656 405.019531 484.214844 406.128906 482.609375 406.125 C 482.476562 406.125 482.339844 406.117188 482.210938 406.101562 Z M 482.210938 406.101562 "/>
<path style=" stroke:none;fill-rule:nonzero;fill:rgb(18.431373%,18.039216%,25.490196%);fill-opacity:1;" d="M 509.027344 169.960938 C 505.0625 172.644531 500.355469 174.074219 495.542969 174.054688 C 497.261719 175.230469 499.214844 176.019531 501.273438 176.375 C 494.871094 177.726562 488.253906 177.757812 481.839844 176.484375 C 480.414062 176.257812 479.035156 175.792969 477.769531 175.105469 C 476.496094 174.40625 475.582031 173.207031 475.257812 171.808594 C 474.832031 169.410156 476.730469 167.238281 478.703125 165.769531 C 484.820312 161.292969 492.65625 159.757812 500.050781 161.578125 C 502.4375 162.183594 504.828125 163.207031 506.375 165.089844 C 507.925781 166.972656 508.382812 169.875 506.90625 171.8125 Z M 509.027344 169.960938 "/>
<path style=" stroke:none;fill-rule:nonzero;fill:rgb(18.431373%,18.039216%,25.490196%);fill-opacity:1;" d="M 497.445312 158.097656 C 495.460938 157.449219 493.421875 156.769531 491.851562 155.417969 C 490.28125 154.0625 489.285156 151.847656 489.992188 149.914062 C 490.671875 148.054688 492.742188 146.964844 494.75 146.820312 C 496.757812 146.675781 498.730469 147.285156 500.648438 147.886719 C 499.78125 146.601562 498.886719 144.105469 498.101562 141.46875 C 496.3125 135.460938 503.769531 129.980469 510.117188 130.429688 C 510.304688 130.441406 510.488281 130.460938 510.664062 130.488281 C 517.066406 131.40625 520.386719 133.808594 524.859375 138.40625 C 530.457031 144.160156 533.382812 151.917969 535.339844 159.636719 C 537.300781 167.359375 538.453125 175.304688 541.207031 182.785156 C 543.964844 190.269531 548.613281 197.464844 555.722656 201.273438 C 563.65625 205.382812 573.265625 204.800781 580.628906 199.761719 C 581.625 206.425781 579.332031 213.160156 574.449219 217.890625 C 569.570312 222.617188 562.691406 224.78125 555.925781 223.707031 C 546.746094 222.25 539.394531 214.984375 535.46875 206.703125 C 531.542969 198.417969 530.46875 189.148438 529.484375 180.0625 C 528.5 170.976562 527.503906 161.707031 523.703125 153.367188 C 522.164062 149.996094 519.902344 146.558594 515.859375 146.023438 C 513.6875 145.671875 511.546875 146.800781 510.640625 148.765625 C 508.863281 153 514.945312 156.582031 513.386719 160.617188 C 512.695312 162.207031 511.128906 163.261719 509.367188 163.316406 C 506.425781 163.503906 504.007812 161.847656 501.734375 160.246094 C 497.078125 156.976562 497.445312 158.097656 497.445312 158.097656 Z M 497.445312 158.097656 "/>
<path style=" stroke:none;fill-rule:nonzero;fill:rgb(24.705882%,23.921569%,33.72549%);fill-opacity:1;" d="M 598.996094 427.160156 L 436.53125 427.160156 C 436.140625 427.160156 435.824219 426.851562 435.824219 426.46875 C 435.824219 426.082031 436.140625 425.773438 436.53125 425.773438 L 598.996094 425.773438 C 599.382812 425.773438 599.699219 426.082031 599.699219 426.46875 C 599.699219 426.851562 599.382812 427.160156 598.996094 427.160156 Z M 598.996094 427.160156 "/>
</g>
</svg>
