<?xml version="1.0" encoding="UTF-8"?>
<svg xmlns="http://www.w3.org/2000/svg" xmlns:xlink="http://www.w3.org/1999/xlink" width="1280px" height="912px" viewBox="0 0 1280 912" version="1.1">
<g id="surface1">
<path style=" stroke:none;fill-rule:nonzero;fill:rgb(94.901961%,94.901961%,94.901961%);fill-opacity:1;" d="M 692.851562 169.90625 C 692.535156 205.261719 689.902344 240.5625 684.964844 275.582031 C 684.792969 276.8125 684.605469 278.039062 684.429688 279.273438 L 347.671875 277.421875 C 346.683594 276.203125 345.710938 274.964844 344.769531 273.714844 C 341.625 269.570312 338.675781 265.3125 335.972656 260.910156 C 322.96875 239.691406 317.019531 214.851562 322.984375 197.710938 L 323.089844 197.445312 C 324.378906 193.691406 326.40625 190.226562 329.058594 187.246094 C 342.660156 172.195312 370.15625 174.699219 395.109375 186.851562 C 372.726562 162.765625 354.90625 132.367188 353.554688 105.238281 C 352.226562 78.773438 366.300781 59.871094 381.5625 43.804688 C 382.066406 43.277344 382.566406 42.757812 383.066406 42.242188 C 383.308594 41.976562 383.566406 41.726562 383.808594 41.460938 C 395.71875 29.21875 409.605469 17.148438 429.699219 18.605469 C 451.742188 20.210938 476.179688 38.367188 493.3125 59.515625 C 510.449219 80.652344 521.835938 104.664062 533.375 128.101562 C 544.933594 151.519531 557.433594 175.539062 575.976562 195.558594 C 550.863281 164.320312 530.613281 128.785156 523.132812 94.21875 C 515.652344 59.652344 522.234375 26.457031 544.617188 10.175781 C 551.414062 5.390625 559.277344 2.269531 567.550781 1.078125 C 568.515625 0.921875 569.5 0.792969 570.496094 0.683594 C 591.214844 -1.636719 615.957031 5.410156 637.007812 22.253906 C 660.191406 40.800781 676.261719 68.289062 684.261719 94.390625 C 692.257812 120.492188 693.109375 145.617188 692.851562 169.90625 Z M 692.851562 169.90625 "/>
<path style=" stroke:none;fill-rule:nonzero;fill:rgb(100%,100%,100%);fill-opacity:1;" d="M 472.523438 278.109375 L 466.085938 278.070312 C 464.039062 276.816406 461.984375 275.570312 459.921875 274.347656 C 458.644531 273.550781 457.351562 272.789062 456.058594 272.007812 C 434.699219 259.183594 413.203125 246.882812 391.578125 235.101562 C 369.972656 223.3125 348.253906 212.066406 326.429688 201.363281 C 325.238281 200.851562 324.585938 199.578125 324.878906 198.328125 C 324.902344 198.25 324.9375 198.175781 324.988281 198.105469 C 325.292969 197.546875 325.972656 197.3125 326.964844 197.792969 C 329.640625 199.113281 332.332031 200.433594 335.011719 201.78125 C 356.894531 212.667969 378.683594 224.097656 400.378906 236.070312 C 422.0625 248.039062 443.621094 260.535156 465.054688 273.558594 C 465.503906 273.828125 465.957031 274.113281 466.40625 274.382812 C 468.449219 275.621094 470.480469 276.867188 472.523438 278.109375 Z M 472.523438 278.109375 "/>
<path style=" stroke:none;fill-rule:nonzero;fill:rgb(100%,100%,100%);fill-opacity:1;" d="M 555.550781 278.5625 L 551.570312 278.542969 C 550.671875 277.308594 549.789062 276.070312 548.890625 274.835938 C 527.789062 245.742188 506.695312 216.648438 485.601562 187.558594 C 451.0625 139.929688 416.53125 92.296875 382.011719 44.667969 C 381.808594 44.414062 381.65625 44.121094 381.5625 43.804688 C 381.269531 42.75 382.054688 42.132812 383.066406 42.242188 C 383.925781 42.363281 384.695312 42.84375 385.171875 43.558594 C 404.535156 70.265625 423.894531 96.96875 443.25 123.660156 C 477.613281 171.050781 511.96875 218.4375 546.320312 265.816406 C 548.503906 268.828125 550.6875 271.847656 552.875 274.859375 C 553.773438 276.09375 554.667969 277.324219 555.550781 278.5625 Z M 555.550781 278.5625 "/>
<path style=" stroke:none;fill-rule:nonzero;fill:rgb(100%,100%,100%);fill-opacity:1;" d="M 644.261719 255.828125 C 644.058594 262.425781 643.617188 268.917969 643.035156 275.351562 C 642.921875 276.582031 642.808594 277.8125 642.699219 279.042969 L 638.519531 279.019531 C 638.648438 277.789062 638.773438 276.558594 638.886719 275.328125 C 639.769531 266.035156 640.398438 256.636719 640.480469 246.984375 C 640.59375 220.21875 637.941406 193.515625 632.5625 167.277344 C 626.851562 139.027344 618.644531 111.316406 608.042969 84.46875 C 596.914062 56.148438 583.496094 28.75 567.921875 2.539062 C 567.628906 2.109375 567.496094 1.59375 567.550781 1.078125 C 567.722656 -0.0898438 569.308594 -0.4375 570.496094 0.683594 C 570.730469 0.902344 570.929688 1.152344 571.09375 1.429688 C 573.019531 4.683594 574.914062 7.953125 576.769531 11.230469 C 591.773438 37.589844 604.613281 65.082031 615.171875 93.445312 C 625.226562 120.386719 632.875 148.136719 638.03125 176.382812 C 642.863281 202.585938 644.949219 229.207031 644.261719 255.828125 Z M 644.261719 255.828125 "/>
<path style=" stroke:none;fill-rule:nonzero;fill:rgb(24.705882%,23.921569%,33.72549%);fill-opacity:1;" d="M 929.164062 276.527344 L 13.652344 276.527344 C 6.390625 276.535156 0.507812 282.320312 0.5 289.457031 L 0.5 899.417969 C 0.507812 906.554688 6.390625 912.339844 13.652344 912.34375 L 929.164062 912.34375 C 933.011719 912.34375 936.664062 910.6875 939.164062 907.808594 C 939.265625 907.695312 939.363281 907.578125 939.449219 907.453125 C 940.234375 906.511719 940.871094 905.453125 941.335938 904.324219 C 941.996094 902.769531 942.335938 901.101562 942.328125 899.417969 L 942.328125 289.457031 C 942.320312 282.3125 936.429688 276.527344 929.164062 276.527344 Z M 938.574219 899.417969 C 938.574219 901.21875 938.035156 902.984375 937.019531 904.488281 C 936.117188 905.8125 934.894531 906.890625 933.460938 907.632812 C 932.132812 908.308594 930.65625 908.65625 929.164062 908.652344 L 13.652344 908.652344 C 8.464844 908.648438 4.261719 904.515625 4.253906 899.417969 L 4.253906 289.457031 C 4.261719 284.359375 8.464844 280.222656 13.652344 280.21875 L 929.164062 280.21875 C 934.355469 280.21875 938.566406 284.355469 938.574219 289.457031 Z M 938.574219 899.417969 "/>
<path style=" stroke:none;fill-rule:nonzero;fill:rgb(24.705882%,23.921569%,33.72549%);fill-opacity:1;" d="M 2.375 328.351562 L 940.445312 328.351562 L 940.445312 332.050781 L 2.375 332.050781 Z M 2.375 328.351562 "/>
<path style=" stroke:none;fill-rule:nonzero;fill:rgb(24.705882%,23.921569%,33.72549%);fill-opacity:1;" d="M 45.613281 304.253906 C 45.613281 310.375 40.5625 315.34375 34.332031 315.34375 C 28.101562 315.34375 23.054688 310.375 23.054688 304.253906 C 23.054688 298.128906 28.101562 293.160156 34.332031 293.160156 C 40.5625 293.160156 45.613281 298.128906 45.613281 304.253906 Z M 45.613281 304.253906 "/>
<path style=" stroke:none;fill-rule:nonzero;fill:rgb(24.705882%,23.921569%,33.72549%);fill-opacity:1;" d="M 78.039062 304.253906 C 78.039062 310.375 72.988281 315.34375 66.761719 315.34375 C 60.53125 315.34375 55.480469 310.375 55.480469 304.253906 C 55.480469 298.128906 60.53125 293.160156 66.761719 293.160156 C 72.988281 293.160156 78.039062 298.128906 78.039062 304.253906 Z M 78.039062 304.253906 "/>
<path style=" stroke:none;fill-rule:nonzero;fill:rgb(24.705882%,23.921569%,33.72549%);fill-opacity:1;" d="M 110.46875 304.253906 C 110.46875 310.375 105.417969 315.34375 99.1875 315.34375 C 92.960938 315.34375 87.910156 310.375 87.910156 304.253906 C 87.910156 298.128906 92.960938 293.160156 99.1875 293.160156 C 105.417969 293.160156 110.46875 298.128906 110.46875 304.253906 Z M 110.46875 304.253906 "/>
<path style=" stroke:none;fill-rule:nonzero;fill:rgb(24.705882%,23.921569%,33.72549%);fill-opacity:1;" d="M 706.84375 413.921875 L 236.269531 413.921875 C 225.441406 413.921875 216.660156 405.292969 216.660156 394.648438 C 216.660156 383.996094 225.441406 375.367188 236.269531 375.367188 L 706.84375 375.367188 C 717.671875 375.367188 726.453125 383.996094 726.453125 394.648438 C 726.453125 405.292969 717.671875 413.921875 706.84375 413.921875 Z M 236.269531 378.332031 C 227.105469 378.332031 219.679688 385.636719 219.679688 394.648438 C 219.679688 403.652344 227.105469 410.957031 236.269531 410.957031 L 706.84375 410.957031 C 716.007812 410.957031 723.4375 403.652344 723.4375 394.648438 C 723.4375 385.636719 716.007812 378.332031 706.84375 378.332031 Z M 236.269531 378.332031 "/>
<path style=" stroke:none;fill-rule:nonzero;fill:rgb(0%,0%,54.509804%);fill-opacity:1;" d="M 275.339844 640.246094 L 94.351562 640.246094 C 80.195312 640.230469 68.726562 628.949219 68.710938 615.035156 L 68.710938 531.992188 C 68.726562 518.074219 80.195312 506.796875 94.351562 506.78125 L 275.339844 506.78125 C 289.496094 506.796875 300.964844 518.074219 300.980469 531.992188 L 300.980469 615.035156 C 300.964844 628.949219 289.496094 640.230469 275.339844 640.246094 Z M 275.339844 640.246094 "/>
<path style=" stroke:none;fill-rule:nonzero;fill:rgb(0%,0%,54.509804%);fill-opacity:1;" d="M 561.910156 640.246094 L 380.917969 640.246094 C 366.765625 640.230469 355.292969 628.949219 355.277344 615.035156 L 355.277344 531.992188 C 355.292969 518.074219 366.765625 506.796875 380.917969 506.78125 L 561.910156 506.78125 C 576.0625 506.796875 587.535156 518.074219 587.550781 531.992188 L 587.550781 615.035156 C 587.535156 628.949219 576.0625 640.230469 561.910156 640.246094 Z M 561.910156 640.246094 "/>
<path style=" stroke:none;fill-rule:nonzero;fill:rgb(0%,0%,54.509804%);fill-opacity:1;" d="M 848.476562 640.246094 L 667.488281 640.246094 C 653.332031 640.230469 641.863281 628.949219 641.847656 615.035156 L 641.847656 531.992188 C 641.863281 518.074219 653.332031 506.796875 667.488281 506.78125 L 848.476562 506.78125 C 862.632812 506.796875 874.101562 518.074219 874.117188 531.992188 L 874.117188 615.035156 C 874.101562 628.949219 862.632812 640.230469 848.476562 640.246094 Z M 848.476562 640.246094 "/>
<path style=" stroke:none;fill-rule:nonzero;fill:rgb(0%,0%,54.509804%);fill-opacity:1;" d="M 275.339844 815.230469 L 94.351562 815.230469 C 80.195312 815.214844 68.726562 803.933594 68.710938 790.019531 L 68.710938 706.976562 C 68.726562 693.058594 80.195312 681.78125 94.351562 681.765625 L 275.339844 681.765625 C 289.496094 681.78125 300.964844 693.058594 300.980469 706.976562 L 300.980469 790.019531 C 300.964844 803.933594 289.496094 815.214844 275.339844 815.230469 Z M 275.339844 815.230469 "/>
<path style=" stroke:none;fill-rule:nonzero;fill:rgb(0%,0%,54.509804%);fill-opacity:1;" d="M 561.910156 815.230469 L 380.917969 815.230469 C 366.765625 815.214844 355.292969 803.933594 355.277344 790.019531 L 355.277344 706.976562 C 355.292969 693.058594 366.765625 681.78125 380.917969 681.765625 L 561.910156 681.765625 C 576.0625 681.78125 587.535156 693.058594 587.550781 706.976562 L 587.550781 790.019531 C 587.535156 803.933594 576.0625 815.214844 561.910156 815.230469 Z M 561.910156 815.230469 "/>
<path style=" stroke:none;fill-rule:nonzero;fill:rgb(0%,0%,54.509804%);fill-opacity:1;" d="M 848.476562 815.230469 L 667.488281 815.230469 C 653.332031 815.214844 641.863281 803.933594 641.847656 790.019531 L 641.847656 706.976562 C 641.863281 693.058594 653.332031 681.78125 667.488281 681.765625 L 848.476562 681.765625 C 862.632812 681.78125 874.101562 693.058594 874.117188 706.976562 L 874.117188 790.019531 C 874.101562 803.933594 862.632812 815.214844 848.476562 815.230469 Z M 848.476562 815.230469 "/>
<path style=" stroke:none;fill-rule:nonzero;fill:rgb(18.431373%,18.039216%,25.490196%);fill-opacity:1;" d="M 1101.699219 368.867188 C 1101.699219 395.894531 1079.414062 417.808594 1051.925781 417.808594 C 1024.4375 417.808594 1002.152344 395.894531 1002.152344 368.867188 C 1002.152344 341.84375 1024.4375 319.929688 1051.925781 319.929688 C 1079.414062 319.929688 1101.699219 341.84375 1101.699219 368.867188 Z M 1101.699219 368.867188 "/>
<path style=" stroke:none;fill-rule:nonzero;fill:rgb(100%,72.156863%,72.156863%);fill-opacity:1;" d="M 927.238281 623.441406 C 925.003906 619.269531 924.765625 614.339844 926.585938 609.976562 C 928.40625 605.613281 932.097656 602.269531 936.667969 600.839844 L 999.738281 469.664062 L 1028.585938 489.554688 L 957.519531 612.242188 C 959.496094 620.125 955.164062 628.210938 947.4375 631.066406 C 939.710938 633.925781 931.03125 630.648438 927.238281 623.441406 Z M 927.238281 623.441406 "/>
<path style=" stroke:none;fill-rule:nonzero;fill:rgb(0%,0%,54.509804%);fill-opacity:1;" d="M 981.28125 487.078125 C 980.671875 485.089844 980.976562 482.9375 982.113281 481.1875 L 1001.722656 450.964844 C 1006.261719 440.980469 1018.160156 436.492188 1028.324219 440.925781 C 1038.488281 445.359375 1043.089844 457.042969 1038.609375 467.050781 L 1028.730469 501.683594 C 1028.160156 503.683594 1026.730469 505.339844 1024.820312 506.21875 C 1022.90625 507.101562 1020.699219 507.121094 1018.769531 506.273438 L 985.273438 491.546875 C 983.34375 490.699219 981.886719 489.066406 981.28125 487.078125 Z M 981.28125 487.078125 "/>
<path style=" stroke:none;fill-rule:nonzero;fill:rgb(100%,72.156863%,72.156863%);fill-opacity:1;" d="M 1139.972656 636.449219 C 1135.300781 635.378906 1131.351562 632.332031 1129.183594 628.128906 C 1127.015625 623.921875 1126.855469 618.988281 1128.742188 614.652344 L 1069.011719 481.972656 L 1103.179688 473.511719 L 1151.148438 606.597656 C 1158.507812 610.277344 1161.898438 618.789062 1159.046875 626.402344 C 1156.195312 634.015625 1148 638.332031 1139.972656 636.449219 Z M 1139.972656 636.449219 "/>
<path style=" stroke:none;fill-rule:nonzero;fill:rgb(100%,72.156863%,72.156863%);fill-opacity:1;" d="M 1156.253906 876.9375 L 1138.878906 883.164062 L 1106.210938 820.226562 L 1131.851562 811.046875 Z M 1156.253906 876.9375 "/>
<path style=" stroke:none;fill-rule:nonzero;fill:rgb(18.431373%,18.039216%,25.490196%);fill-opacity:1;" d="M 1124.660156 882.722656 L 1158.167969 870.726562 L 1165.851562 891.46875 L 1111.242188 911.019531 C 1107 899.5625 1113.007812 886.894531 1124.660156 882.722656 Z M 1124.660156 882.722656 "/>
<path style=" stroke:none;fill-rule:nonzero;fill:rgb(18.431373%,18.039216%,25.490196%);fill-opacity:1;" d="M 1108.820312 837.132812 L 1042.628906 723.242188 C 1041.324219 721 1041.355469 718.238281 1042.707031 716.023438 L 1072.511719 667.183594 C 1073.957031 664.8125 1076.652344 663.476562 1079.445312 663.746094 C 1082.238281 664.011719 1084.621094 665.835938 1085.574219 668.429688 L 1141.929688 821.863281 C 1143.214844 825.324219 1141.601562 829.179688 1138.207031 830.746094 L 1118.238281 840.042969 C 1117.273438 840.492188 1116.222656 840.726562 1115.15625 840.726562 C 1112.542969 840.730469 1110.125 839.359375 1108.820312 837.132812 Z M 1108.820312 837.132812 "/>
<path style=" stroke:none;fill-rule:nonzero;fill:rgb(100%,72.156863%,72.156863%);fill-opacity:1;" d="M 1084.441406 385.917969 C 1084.441406 406.027344 1067.855469 422.335938 1047.394531 422.335938 C 1026.9375 422.335938 1010.351562 406.027344 1010.351562 385.917969 C 1010.351562 365.800781 1026.9375 349.492188 1047.394531 349.492188 C 1067.855469 349.492188 1084.441406 365.800781 1084.441406 385.917969 Z M 1084.441406 385.917969 "/>
<path style=" stroke:none;fill-rule:nonzero;fill:rgb(0%,0%,54.509804%);fill-opacity:1;" d="M 994.703125 550.894531 C 965.53125 487.289062 994.941406 451.746094 1008.941406 439.414062 C 1012.972656 435.859375 1018.199219 433.894531 1023.617188 433.898438 L 1075.800781 433.898438 C 1083.421875 433.898438 1090.496094 437.777344 1094.503906 444.148438 C 1098.507812 450.523438 1098.871094 458.480469 1095.464844 465.179688 L 1060.578125 533.78125 L 994.988281 551.511719 Z M 994.703125 550.894531 "/>
<path style=" stroke:none;fill-rule:nonzero;fill:rgb(0%,0%,54.509804%);fill-opacity:1;" d="M 1071.046875 505.753906 C 1069.121094 504.902344 1067.664062 503.273438 1067.058594 501.285156 L 1056.613281 466.933594 C 1051.90625 457.03125 1056.230469 445.25 1066.285156 440.589844 C 1076.339844 435.925781 1088.335938 440.136719 1093.113281 450.007812 L 1113.308594 479.996094 C 1114.472656 481.726562 1114.816406 483.875 1114.242188 485.875 C 1113.671875 487.875 1112.242188 489.527344 1110.332031 490.40625 L 1077.097656 505.707031 C 1075.183594 506.585938 1072.976562 506.605469 1071.046875 505.753906 Z M 1071.046875 505.753906 "/>
<path style=" stroke:none;fill-rule:nonzero;fill:rgb(100%,72.156863%,72.156863%);fill-opacity:1;" d="M 1036.894531 894.136719 L 1018.402344 894.136719 L 1009.605469 824.011719 L 1036.894531 824.011719 Z M 1036.894531 894.136719 "/>
<path style=" stroke:none;fill-rule:nonzero;fill:rgb(18.431373%,18.039216%,25.490196%);fill-opacity:1;" d="M 1005.195312 888.945312 L 1040.855469 888.945312 L 1040.855469 911.015625 L 982.742188 911.015625 C 982.742188 898.824219 992.792969 888.945312 1005.195312 888.945312 Z M 1005.195312 888.945312 "/>
<path style=" stroke:none;fill-rule:nonzero;fill:rgb(18.431373%,18.039216%,25.490196%);fill-opacity:1;" d="M 1029.058594 867.367188 L 999.453125 864.011719 C 997.515625 863.792969 995.753906 862.816406 994.554688 861.304688 C 993.355469 859.789062 992.828125 857.871094 993.082031 855.972656 L 1019.503906 660.375 C 1019.597656 659.691406 1019.558594 659 1019.394531 658.332031 L 992.839844 550.605469 C 992.332031 548.59375 992.746094 546.46875 993.976562 544.78125 C 998.09375 539.199219 1012.203125 526.195312 1054.175781 525.949219 L 1054.222656 525.949219 C 1057.078125 525.949219 1059.667969 527.585938 1060.855469 530.136719 L 1066.453125 542.25 C 1066.871094 543.148438 1067.523438 543.921875 1068.34375 544.492188 C 1076.046875 549.851562 1113.382812 579.957031 1091.460938 646.054688 C 1069.914062 711.019531 1042.3125 837.136719 1036.996094 861.761719 C 1036.296875 865.058594 1033.335938 867.417969 1029.910156 867.414062 C 1029.625 867.414062 1029.339844 867.398438 1029.058594 867.367188 Z M 1029.058594 867.367188 "/>
<path style=" stroke:none;fill-rule:nonzero;fill:rgb(18.431373%,18.039216%,25.490196%);fill-opacity:1;" d="M 1086.320312 363.007812 C 1077.855469 368.742188 1067.808594 371.792969 1057.527344 371.753906 C 1061.195312 374.253906 1065.371094 375.945312 1069.765625 376.703125 C 1056.09375 379.585938 1041.96875 379.667969 1028.265625 376.933594 C 1025.222656 376.453125 1022.28125 375.460938 1019.578125 374 C 1016.855469 372.503906 1014.90625 369.945312 1014.21875 366.949219 C 1013.304688 361.835938 1017.359375 357.191406 1021.570312 354.058594 C 1034.628906 344.5 1051.363281 341.210938 1067.15625 345.101562 C 1072.25 346.394531 1077.351562 348.582031 1080.660156 352.601562 C 1083.964844 356.625 1084.945312 362.820312 1081.792969 366.964844 Z M 1086.320312 363.007812 "/>
<path style=" stroke:none;fill-rule:nonzero;fill:rgb(18.431373%,18.039216%,25.490196%);fill-opacity:1;" d="M 1061.585938 337.667969 C 1057.355469 336.285156 1053 334.832031 1049.648438 331.941406 C 1046.292969 329.050781 1044.167969 324.320312 1045.671875 320.195312 C 1047.125 316.21875 1051.550781 313.894531 1055.835938 313.582031 C 1060.121094 313.269531 1064.339844 314.570312 1068.429688 315.859375 C 1066.582031 313.113281 1064.667969 307.78125 1062.996094 302.15625 C 1059.175781 289.328125 1075.089844 277.609375 1088.652344 278.578125 C 1089.050781 278.609375 1089.4375 278.648438 1089.8125 278.699219 C 1103.484375 280.660156 1110.578125 285.789062 1120.128906 295.609375 C 1132.074219 307.894531 1138.324219 324.472656 1142.507812 340.960938 C 1146.691406 357.453125 1149.148438 374.421875 1155.03125 390.40625 C 1160.917969 406.386719 1170.84375 421.746094 1186.023438 429.878906 C 1202.96875 438.664062 1223.480469 437.417969 1239.203125 426.660156 C 1241.332031 440.894531 1236.433594 455.273438 1226.015625 465.375 C 1215.59375 475.480469 1200.902344 480.09375 1186.457031 477.796875 C 1166.859375 474.683594 1151.164062 459.167969 1142.78125 441.476562 C 1134.394531 423.789062 1132.105469 403.992188 1130.003906 384.585938 C 1127.898438 365.175781 1125.769531 345.382812 1117.65625 327.570312 C 1114.375 320.363281 1109.542969 313.023438 1100.90625 311.875 C 1096.269531 311.132812 1091.699219 313.539062 1089.761719 317.746094 C 1085.964844 326.78125 1098.957031 334.433594 1095.628906 343.046875 C 1094.15625 346.449219 1090.804688 348.699219 1087.042969 348.808594 C 1080.765625 349.21875 1075.605469 345.675781 1070.746094 342.261719 C 1060.804688 335.273438 1061.585938 337.667969 1061.585938 337.667969 Z M 1061.585938 337.667969 "/>
<path style=" stroke:none;fill-rule:nonzero;fill:rgb(24.705882%,23.921569%,33.72549%);fill-opacity:1;" d="M 1278.421875 912.34375 L 931.519531 912.34375 C 930.6875 912.34375 930.011719 911.679688 930.011719 910.863281 C 930.011719 910.046875 930.6875 909.382812 931.519531 909.382812 L 1278.421875 909.382812 C 1279.253906 909.382812 1279.929688 910.046875 1279.929688 910.863281 C 1279.929688 911.679688 1279.253906 912.34375 1278.421875 912.34375 Z M 1278.421875 912.34375 "/>
</g>
</svg>
