<?xml version="1.0" encoding="UTF-8"?>
<svg xmlns="http://www.w3.org/2000/svg" xmlns:xlink="http://www.w3.org/1999/xlink" width="600px" height="435px" viewBox="0 0 599 435" version="1.1">
<g id="surface1">
<path style=" stroke:none;fill-rule:nonzero;fill:rgb(94.901961%,94.901961%,94.901961%);fill-opacity:1;" d="M 324.25 81.039062 C 324.105469 97.902344 322.871094 114.742188 320.558594 131.445312 C 320.476562 132.03125 320.390625 132.617188 320.308594 133.207031 L 162.59375 132.324219 C 162.128906 131.738281 161.675781 131.152344 161.234375 130.554688 C 159.761719 128.578125 158.378906 126.546875 157.113281 124.449219 C 151.023438 114.328125 148.234375 102.476562 151.03125 94.304688 L 151.078125 94.175781 C 151.683594 92.386719 152.632812 90.730469 153.875 89.3125 C 160.246094 82.132812 173.121094 83.328125 184.808594 89.125 C 174.328125 77.632812 165.980469 63.136719 165.347656 50.195312 C 164.726562 37.574219 171.316406 28.558594 178.464844 20.894531 C 178.699219 20.640625 178.933594 20.394531 179.167969 20.148438 C 179.28125 20.023438 179.402344 19.902344 179.515625 19.777344 C 185.09375 13.9375 191.597656 8.179688 201.007812 8.875 C 211.332031 9.640625 222.777344 18.296875 230.800781 28.386719 C 238.828125 38.46875 244.160156 49.921875 249.5625 61.101562 C 254.976562 72.269531 260.832031 83.726562 269.515625 93.273438 C 257.753906 78.375 248.269531 61.425781 244.765625 44.9375 C 241.261719 28.453125 244.347656 12.621094 254.828125 4.855469 C 258.011719 2.570312 261.695312 1.082031 265.570312 0.515625 C 266.023438 0.441406 266.480469 0.378906 266.949219 0.324219 C 276.652344 -0.78125 288.238281 2.582031 298.097656 10.613281 C 308.957031 19.460938 316.484375 32.574219 320.226562 45.023438 C 323.972656 57.472656 324.371094 69.457031 324.25 81.039062 Z M 324.25 81.039062 "/>
<path style=" stroke:none;fill-rule:nonzero;fill:rgb(100%,100%,100%);fill-opacity:1;" d="M 221.066406 132.648438 L 218.050781 132.632812 C 217.089844 132.035156 216.128906 131.441406 215.164062 130.855469 C 214.566406 130.476562 213.960938 130.113281 213.355469 129.742188 C 203.351562 123.625 193.285156 117.757812 183.15625 112.136719 C 173.035156 106.515625 162.867188 101.148438 152.644531 96.042969 C 152.085938 95.800781 151.78125 95.191406 151.917969 94.597656 C 151.929688 94.558594 151.945312 94.523438 151.96875 94.492188 C 152.109375 94.222656 152.429688 94.113281 152.894531 94.339844 C 154.148438 94.972656 155.410156 95.601562 156.664062 96.246094 C 166.910156 101.4375 177.117188 106.886719 187.277344 112.597656 C 197.433594 118.308594 207.527344 124.269531 217.566406 130.480469 C 217.777344 130.609375 217.988281 130.742188 218.199219 130.871094 C 219.15625 131.464844 220.109375 132.058594 221.066406 132.648438 Z M 221.066406 132.648438 "/>
<path style=" stroke:none;fill-rule:nonzero;fill:rgb(100%,100%,100%);fill-opacity:1;" d="M 259.949219 132.867188 L 258.085938 132.855469 C 257.664062 132.269531 257.25 131.679688 256.832031 131.089844 C 246.949219 117.210938 237.066406 103.335938 227.191406 89.460938 C 211.015625 66.742188 194.84375 44.023438 178.675781 21.304688 C 178.578125 21.183594 178.507812 21.042969 178.464844 20.894531 C 178.328125 20.390625 178.695312 20.097656 179.167969 20.148438 C 179.574219 20.207031 179.929688 20.433594 180.15625 20.777344 C 189.222656 33.515625 198.289062 46.253906 207.355469 58.984375 C 223.449219 81.585938 239.539062 104.1875 255.625 126.789062 C 256.648438 128.222656 257.671875 129.664062 258.695312 131.097656 C 259.117188 131.6875 259.535156 132.277344 259.949219 132.867188 Z M 259.949219 132.867188 "/>
<path style=" stroke:none;fill-rule:nonzero;fill:rgb(100%,100%,100%);fill-opacity:1;" d="M 301.496094 122.023438 C 301.402344 125.171875 301.191406 128.265625 300.921875 131.335938 C 300.867188 131.921875 300.816406 132.507812 300.761719 133.097656 L 298.808594 133.085938 C 298.867188 132.5 298.925781 131.910156 298.980469 131.324219 C 299.390625 126.890625 299.6875 122.410156 299.726562 117.804688 C 299.777344 105.039062 298.535156 92.300781 296.015625 79.785156 C 293.339844 66.3125 289.5 53.097656 284.53125 40.289062 C 279.320312 26.78125 273.039062 13.710938 265.742188 1.210938 C 265.605469 1.003906 265.542969 0.761719 265.570312 0.515625 C 265.652344 -0.0429688 266.394531 -0.207031 266.949219 0.324219 C 267.058594 0.429688 267.152344 0.550781 267.230469 0.679688 C 268.132812 2.234375 269.015625 3.792969 269.886719 5.355469 C 276.914062 17.929688 282.925781 31.042969 287.871094 44.574219 C 292.582031 57.421875 296.164062 70.65625 298.578125 84.128906 C 300.839844 96.628906 301.816406 109.324219 301.496094 122.023438 Z M 301.496094 122.023438 "/>
<path style=" stroke:none;fill-rule:nonzero;fill:rgb(24.705882%,23.921569%,33.72549%);fill-opacity:1;" d="M 434.925781 131.894531 L 6.160156 131.894531 C 2.757812 131.898438 0.00390625 134.660156 0 138.0625 L 0 428.996094 C 0.00390625 432.402344 2.757812 435.164062 6.160156 435.164062 L 434.925781 435.164062 C 436.726562 435.164062 438.4375 434.375 439.609375 433 C 439.65625 432.949219 439.703125 432.890625 439.742188 432.832031 C 440.109375 432.382812 440.40625 431.878906 440.625 431.339844 C 440.933594 430.597656 441.09375 429.800781 441.089844 428.996094 L 441.089844 138.0625 C 441.085938 134.65625 438.328125 131.894531 434.925781 131.894531 Z M 439.332031 428.996094 C 439.332031 429.859375 439.078125 430.699219 438.605469 431.417969 C 438.183594 432.046875 437.609375 432.5625 436.9375 432.917969 C 436.316406 433.238281 435.625 433.40625 434.925781 433.402344 L 6.160156 433.402344 C 3.730469 433.402344 1.761719 431.429688 1.757812 428.996094 L 1.757812 138.0625 C 1.761719 135.632812 3.730469 133.660156 6.160156 133.65625 L 434.925781 133.65625 C 437.355469 133.65625 439.328125 135.628906 439.332031 138.0625 Z M 439.332031 428.996094 "/>
<path style=" stroke:none;fill-rule:nonzero;fill:rgb(24.705882%,23.921569%,33.72549%);fill-opacity:1;" d="M 0.878906 156.617188 L 440.207031 156.617188 L 440.207031 158.378906 L 0.878906 158.378906 Z M 0.878906 156.617188 "/>
<path style=" stroke:none;fill-rule:nonzero;fill:rgb(24.705882%,23.921569%,33.72549%);fill-opacity:1;" d="M 21.128906 145.121094 C 21.128906 148.042969 18.761719 150.410156 15.84375 150.410156 C 12.925781 150.410156 10.5625 148.042969 10.5625 145.121094 C 10.5625 142.199219 12.925781 139.832031 15.84375 139.832031 C 18.761719 139.832031 21.128906 142.199219 21.128906 145.121094 Z M 21.128906 145.121094 "/>
<path style=" stroke:none;fill-rule:nonzero;fill:rgb(24.705882%,23.921569%,33.72549%);fill-opacity:1;" d="M 36.316406 145.121094 C 36.316406 148.042969 33.949219 150.410156 31.03125 150.410156 C 28.113281 150.410156 25.75 148.042969 25.75 145.121094 C 25.75 142.199219 28.113281 139.832031 31.03125 139.832031 C 33.949219 139.832031 36.316406 142.199219 36.316406 145.121094 Z M 36.316406 145.121094 "/>
<path style=" stroke:none;fill-rule:nonzero;fill:rgb(24.705882%,23.921569%,33.72549%);fill-opacity:1;" d="M 51.503906 145.121094 C 51.503906 148.042969 49.136719 150.410156 46.21875 150.410156 C 43.300781 150.410156 40.9375 148.042969 40.9375 145.121094 C 40.9375 142.199219 43.300781 139.832031 46.21875 139.832031 C 49.136719 139.832031 51.503906 142.199219 51.503906 145.121094 Z M 51.503906 145.121094 "/>
<path style=" stroke:none;fill-rule:nonzero;fill:rgb(24.705882%,23.921569%,33.72549%);fill-opacity:1;" d="M 330.804688 197.429688 L 110.417969 197.429688 C 105.347656 197.429688 101.234375 193.3125 101.234375 188.234375 C 101.234375 183.15625 105.347656 179.039062 110.417969 179.039062 L 330.804688 179.039062 C 335.878906 179.039062 339.988281 183.15625 339.988281 188.234375 C 339.988281 193.3125 335.878906 197.429688 330.804688 197.429688 Z M 110.417969 180.453125 C 106.128906 180.453125 102.648438 183.9375 102.648438 188.234375 C 102.648438 192.53125 106.128906 196.015625 110.417969 196.015625 L 330.804688 196.015625 C 335.097656 196.015625 338.574219 192.53125 338.574219 188.234375 C 338.574219 183.9375 335.097656 180.453125 330.804688 180.453125 Z M 110.417969 180.453125 "/>
<path style=" stroke:none;fill-rule:nonzero;fill:rgb(0%,0%,54.509804%);fill-opacity:1;" d="M 128.71875 305.378906 L 43.953125 305.378906 C 37.324219 305.371094 31.953125 299.992188 31.945312 293.355469 L 31.945312 253.746094 C 31.953125 247.109375 37.324219 241.730469 43.953125 241.722656 L 128.71875 241.722656 C 135.347656 241.730469 140.71875 247.109375 140.726562 253.746094 L 140.726562 293.355469 C 140.71875 299.992188 135.347656 305.371094 128.71875 305.378906 Z M 128.71875 305.378906 "/>
<path style=" stroke:none;fill-rule:nonzero;fill:rgb(0%,0%,54.509804%);fill-opacity:1;" d="M 262.929688 305.378906 L 178.164062 305.378906 C 171.535156 305.371094 166.164062 299.992188 166.15625 293.355469 L 166.15625 253.746094 C 166.164062 247.109375 171.535156 241.730469 178.164062 241.722656 L 262.929688 241.722656 C 269.558594 241.730469 274.929688 247.109375 274.9375 253.746094 L 274.9375 293.355469 C 274.929688 299.992188 269.558594 305.371094 262.929688 305.378906 Z M 262.929688 305.378906 "/>
<path style=" stroke:none;fill-rule:nonzero;fill:rgb(0%,0%,54.509804%);fill-opacity:1;" d="M 397.136719 305.378906 L 312.375 305.378906 C 305.746094 305.371094 300.371094 299.992188 300.367188 293.355469 L 300.367188 253.746094 C 300.371094 247.109375 305.746094 241.730469 312.375 241.722656 L 397.136719 241.722656 C 403.765625 241.730469 409.136719 247.109375 409.144531 253.746094 L 409.144531 293.355469 C 409.136719 299.992188 403.765625 305.371094 397.136719 305.378906 Z M 397.136719 305.378906 "/>
<path style=" stroke:none;fill-rule:nonzero;fill:rgb(0%,0%,54.509804%);fill-opacity:1;" d="M 128.71875 388.84375 L 43.953125 388.84375 C 37.324219 388.835938 31.953125 383.457031 31.945312 376.820312 L 31.945312 337.207031 C 31.953125 330.570312 37.324219 325.191406 43.953125 325.183594 L 128.71875 325.183594 C 135.347656 325.191406 140.71875 330.570312 140.726562 337.207031 L 140.726562 376.820312 C 140.71875 383.457031 135.347656 388.835938 128.71875 388.84375 Z M 128.71875 388.84375 "/>
<path style=" stroke:none;fill-rule:nonzero;fill:rgb(0%,0%,54.509804%);fill-opacity:1;" d="M 262.929688 388.84375 L 178.164062 388.84375 C 171.535156 388.835938 166.164062 383.457031 166.15625 376.820312 L 166.15625 337.207031 C 166.164062 330.570312 171.535156 325.191406 178.164062 325.183594 L 262.929688 325.183594 C 269.558594 325.191406 274.929688 330.570312 274.9375 337.207031 L 274.9375 376.820312 C 274.929688 383.457031 269.558594 388.835938 262.929688 388.84375 Z M 262.929688 388.84375 "/>
<path style=" stroke:none;fill-rule:nonzero;fill:rgb(0%,0%,54.509804%);fill-opacity:1;" d="M 397.136719 388.84375 L 312.375 388.84375 C 305.746094 388.835938 300.371094 383.457031 300.367188 376.820312 L 300.367188 337.207031 C 300.371094 330.570312 305.746094 325.191406 312.375 325.183594 L 397.136719 325.183594 C 403.765625 325.191406 409.136719 330.570312 409.144531 337.207031 L 409.144531 376.820312 C 409.136719 383.457031 403.765625 388.835938 397.136719 388.84375 Z M 397.136719 388.84375 "/>
<path style=" stroke:none;fill-rule:nonzero;fill:rgb(18.431373%,18.039216%,25.490196%);fill-opacity:1;" d="M 515.730469 175.941406 C 515.730469 188.832031 505.292969 199.28125 492.417969 199.28125 C 479.546875 199.28125 469.109375 188.832031 469.109375 175.941406 C 469.109375 163.050781 479.546875 152.597656 492.417969 152.597656 C 505.292969 152.597656 515.730469 163.050781 515.730469 175.941406 Z M 515.730469 175.941406 "/>
<path style=" stroke:none;fill-rule:nonzero;fill:rgb(100%,72.156863%,72.156863%);fill-opacity:1;" d="M 434.023438 297.363281 C 432.976562 295.375 432.867188 293.023438 433.71875 290.941406 C 434.570312 288.863281 436.300781 287.265625 438.441406 286.585938 L 467.976562 224.015625 L 481.488281 233.503906 L 448.207031 292.023438 C 449.128906 295.78125 447.101562 299.640625 443.484375 301.003906 C 439.863281 302.363281 435.800781 300.800781 434.023438 297.363281 Z M 434.023438 297.363281 "/>
<path style=" stroke:none;fill-rule:nonzero;fill:rgb(0%,0%,54.509804%);fill-opacity:1;" d="M 459.332031 232.324219 C 459.046875 231.375 459.191406 230.347656 459.722656 229.515625 L 468.90625 215.097656 C 471.03125 210.335938 476.605469 208.195312 481.367188 210.308594 C 486.125 212.425781 488.28125 218 486.183594 222.773438 L 481.554688 239.289062 C 481.289062 240.242188 480.621094 241.035156 479.722656 241.453125 C 478.828125 241.875 477.792969 241.882812 476.890625 241.480469 L 461.203125 234.457031 C 460.300781 234.050781 459.617188 233.273438 459.332031 232.324219 Z M 459.332031 232.324219 "/>
<path style=" stroke:none;fill-rule:nonzero;fill:rgb(100%,72.156863%,72.156863%);fill-opacity:1;" d="M 533.652344 303.566406 C 531.464844 303.058594 529.617188 301.605469 528.601562 299.601562 C 527.585938 297.59375 527.511719 295.242188 528.394531 293.175781 L 500.421875 229.890625 L 516.425781 225.855469 L 538.890625 289.328125 C 542.335938 291.085938 543.921875 295.144531 542.585938 298.777344 C 541.25 302.410156 537.414062 304.46875 533.652344 303.566406 Z M 533.652344 303.566406 "/>
<path style=" stroke:none;fill-rule:nonzero;fill:rgb(100%,72.156863%,72.156863%);fill-opacity:1;" d="M 541.277344 418.277344 L 533.140625 421.246094 L 517.84375 391.226562 L 529.851562 386.847656 Z M 541.277344 418.277344 "/>
<path style=" stroke:none;fill-rule:nonzero;fill:rgb(18.431373%,18.039216%,25.490196%);fill-opacity:1;" d="M 526.484375 421.035156 L 542.175781 415.3125 L 545.773438 425.207031 L 520.199219 434.53125 C 518.214844 429.066406 521.027344 423.023438 526.484375 421.035156 Z M 526.484375 421.035156 "/>
<path style=" stroke:none;fill-rule:nonzero;fill:rgb(18.431373%,18.039216%,25.490196%);fill-opacity:1;" d="M 519.066406 399.289062 L 488.066406 344.96875 C 487.453125 343.898438 487.46875 342.582031 488.101562 341.523438 L 502.0625 318.226562 C 502.738281 317.097656 504 316.460938 505.308594 316.589844 C 506.613281 316.714844 507.730469 317.585938 508.179688 318.824219 L 534.570312 392.007812 C 535.171875 393.660156 534.417969 395.496094 532.828125 396.242188 L 523.476562 400.679688 C 523.023438 400.894531 522.53125 401.003906 522.03125 401.003906 C 520.808594 401.003906 519.675781 400.351562 519.066406 399.289062 Z M 519.066406 399.289062 "/>
<path style=" stroke:none;fill-rule:nonzero;fill:rgb(100%,72.156863%,72.156863%);fill-opacity:1;" d="M 507.648438 184.070312 C 507.648438 193.667969 499.878906 201.445312 490.296875 201.445312 C 480.714844 201.445312 472.949219 193.667969 472.949219 184.070312 C 472.949219 174.476562 480.714844 166.699219 490.296875 166.699219 C 499.878906 166.699219 507.648438 174.476562 507.648438 184.070312 Z M 507.648438 184.070312 "/>
<path style=" stroke:none;fill-rule:nonzero;fill:rgb(0%,0%,54.509804%);fill-opacity:1;" d="M 465.621094 262.761719 C 451.957031 232.425781 465.730469 215.472656 472.289062 209.589844 C 474.175781 207.894531 476.625 206.957031 479.160156 206.957031 L 503.601562 206.957031 C 507.167969 206.957031 510.484375 208.808594 512.359375 211.847656 C 514.234375 214.886719 514.40625 218.683594 512.808594 221.878906 L 496.472656 254.597656 L 465.753906 263.058594 Z M 465.621094 262.761719 "/>
<path style=" stroke:none;fill-rule:nonzero;fill:rgb(0%,0%,54.509804%);fill-opacity:1;" d="M 501.375 241.230469 C 500.472656 240.828125 499.789062 240.046875 499.507812 239.097656 L 494.613281 222.714844 C 492.410156 217.992188 494.433594 212.375 499.144531 210.148438 C 503.851562 207.925781 509.472656 209.933594 511.707031 214.640625 L 521.167969 228.945312 C 521.710938 229.773438 521.871094 230.796875 521.605469 231.75 C 521.335938 232.703125 520.667969 233.492188 519.773438 233.914062 L 504.207031 241.207031 C 503.3125 241.628906 502.277344 241.636719 501.375 241.230469 Z M 501.375 241.230469 "/>
<path style=" stroke:none;fill-rule:nonzero;fill:rgb(100%,72.156863%,72.156863%);fill-opacity:1;" d="M 485.378906 426.480469 L 476.71875 426.480469 L 472.597656 393.03125 L 485.378906 393.03125 Z M 485.378906 426.480469 "/>
<path style=" stroke:none;fill-rule:nonzero;fill:rgb(18.431373%,18.039216%,25.490196%);fill-opacity:1;" d="M 470.53125 424.003906 L 487.234375 424.003906 L 487.234375 434.53125 L 460.015625 434.53125 C 460.015625 428.714844 464.726562 424.003906 470.53125 424.003906 Z M 470.53125 424.003906 "/>
<path style=" stroke:none;fill-rule:nonzero;fill:rgb(18.431373%,18.039216%,25.490196%);fill-opacity:1;" d="M 481.710938 413.710938 L 467.84375 412.109375 C 466.9375 412.003906 466.109375 411.539062 465.550781 410.820312 C 464.988281 410.097656 464.742188 409.183594 464.859375 408.277344 L 477.234375 314.980469 C 477.277344 314.65625 477.261719 314.328125 477.183594 314.007812 L 464.746094 262.625 C 464.507812 261.664062 464.703125 260.648438 465.277344 259.847656 C 467.207031 257.183594 473.816406 250.980469 493.472656 250.863281 L 493.496094 250.863281 C 494.832031 250.863281 496.046875 251.644531 496.601562 252.863281 L 499.222656 258.636719 C 499.417969 259.066406 499.722656 259.4375 500.109375 259.707031 C 503.714844 262.265625 521.199219 276.625 510.933594 308.152344 C 500.84375 339.136719 487.917969 399.292969 485.425781 411.035156 C 485.097656 412.609375 483.714844 413.738281 482.109375 413.734375 C 481.976562 413.734375 481.839844 413.726562 481.710938 413.710938 Z M 481.710938 413.710938 "/>
<path style=" stroke:none;fill-rule:nonzero;fill:rgb(18.431373%,18.039216%,25.490196%);fill-opacity:1;" d="M 508.527344 173.144531 C 504.5625 175.878906 499.855469 177.335938 495.042969 177.316406 C 496.761719 178.511719 498.714844 179.316406 500.773438 179.679688 C 494.371094 181.054688 487.753906 181.089844 481.339844 179.789062 C 479.914062 179.558594 478.535156 179.085938 477.269531 178.386719 C 475.996094 177.675781 475.082031 176.453125 474.757812 175.027344 C 474.332031 172.585938 476.230469 170.371094 478.203125 168.875 C 484.320312 164.316406 492.15625 162.75 499.550781 164.605469 C 501.9375 165.222656 504.328125 166.265625 505.875 168.183594 C 507.425781 170.101562 507.882812 173.058594 506.40625 175.03125 Z M 508.527344 173.144531 "/>
<path style=" stroke:none;fill-rule:nonzero;fill:rgb(18.431373%,18.039216%,25.490196%);fill-opacity:1;" d="M 496.945312 161.058594 C 494.960938 160.398438 492.921875 159.707031 491.351562 158.328125 C 489.78125 156.949219 488.785156 154.691406 489.492188 152.722656 C 490.171875 150.828125 492.242188 149.71875 494.25 149.570312 C 496.257812 149.421875 498.230469 150.042969 500.148438 150.65625 C 499.28125 149.347656 498.386719 146.804688 497.601562 144.121094 C 495.8125 138 503.269531 132.414062 509.617188 132.875 C 509.804688 132.886719 509.988281 132.90625 510.164062 132.933594 C 516.566406 133.867188 519.886719 136.316406 524.359375 141 C 529.957031 146.859375 532.882812 154.765625 534.839844 162.628906 C 536.800781 170.496094 537.953125 178.589844 540.707031 186.210938 C 543.464844 193.835938 548.113281 201.164062 555.222656 205.042969 C 563.15625 209.230469 572.765625 208.636719 580.128906 203.503906 C 581.125 210.292969 578.832031 217.152344 573.949219 221.972656 C 569.070312 226.789062 562.191406 228.992188 555.425781 227.898438 C 546.246094 226.414062 538.894531 219.011719 534.96875 210.574219 C 531.042969 202.136719 529.96875 192.691406 528.984375 183.4375 C 528 174.179688 527.003906 164.738281 523.203125 156.242188 C 521.664062 152.804688 519.402344 149.304688 515.359375 148.757812 C 513.1875 148.402344 511.046875 149.550781 510.140625 151.554688 C 508.363281 155.867188 514.445312 159.515625 512.886719 163.625 C 512.195312 165.246094 510.628906 166.320312 508.867188 166.375 C 505.925781 166.566406 503.507812 164.878906 501.234375 163.25 C 496.578125 159.917969 496.945312 161.058594 496.945312 161.058594 Z M 496.945312 161.058594 "/>
<path style=" stroke:none;fill-rule:nonzero;fill:rgb(24.705882%,23.921569%,33.72549%);fill-opacity:1;" d="M 598.496094 435.164062 L 436.03125 435.164062 C 435.640625 435.164062 435.324219 434.847656 435.324219 434.457031 C 435.324219 434.066406 435.640625 433.75 436.03125 433.75 L 598.496094 433.75 C 598.882812 433.75 599.199219 434.066406 599.199219 434.457031 C 599.199219 434.847656 598.882812 435.164062 598.496094 435.164062 Z M 598.496094 435.164062 "/>
</g>
</svg>
