<?xml version="1.0" encoding="UTF-8"?>
<svg xmlns="http://www.w3.org/2000/svg" xmlns:xlink="http://www.w3.org/1999/xlink" width="300px" height="218px" viewBox="0 0 299 218" version="1.1">
<defs>
<filter id="alpha" filterUnits="objectBoundingBox" x="0%" y="0%" width="100%" height="100%">
  <feColorMatrix type="matrix" in="SourceGraphic" values="0 0 0 0 1 0 0 0 0 1 0 0 0 0 1 0 0 0 1 0"/>
</filter>
<mask id="mask0">
  <g filter="url(#alpha)">
<rect x="0" y="0" width="299" height="218" style="fill:rgb(0%,0%,0%);fill-opacity:0.2;stroke:none;"/>
  </g>
</mask>
<clipPath id="clip1">
  <rect x="0" y="0" width="299" height="218"/>
</clipPath>
<g id="surface5" clip-path="url(#clip1)">
<path style=" stroke:none;fill-rule:nonzero;fill:rgb(0%,0%,0%);fill-opacity:1;" d="M 206.675781 175.863281 C 206.671875 176.527344 206.664062 177.464844 206.632812 178.617188 C 206.628906 178.777344 206.621094 178.941406 206.617188 179.109375 C 206.582031 180.730469 206.523438 182.730469 206.445312 184.988281 C 206.441406 185.128906 206.4375 185.261719 206.429688 185.398438 C 206.320312 188.15625 206.15625 191.371094 205.867188 196.457031 C 205.332031 205.855469 204.394531 197.75 203.457031 201.046875 C 200.851562 199.4375 197.996094 197.753906 194.941406 196.023438 C 194.390625 195.710938 193.832031 195.398438 193.273438 195.082031 C 187.164062 191.664062 180.339844 188.082031 173.214844 184.53125 C 172.933594 184.390625 172.648438 184.25 172.367188 184.113281 C 156.050781 176.023438 138.238281 168.152344 123.808594 162.902344 C 121.027344 161.886719 118.367188 160.972656 115.867188 160.167969 C 110.601562 158.480469 106.050781 157.296875 102.546875 156.789062 C 98.898438 156.253906 96.378906 156.445312 95.363281 157.546875 C 95.324219 156.769531 95.285156 156.023438 95.242188 155.3125 C 95.230469 155.074219 95.214844 154.84375 95.199219 154.613281 C 95.222656 154.550781 95.253906 154.492188 95.28125 154.433594 C 95.285156 154.421875 95.289062 154.414062 95.292969 154.40625 C 95.300781 154.386719 95.308594 154.367188 95.320312 154.347656 C 95.332031 154.324219 95.34375 154.300781 95.359375 154.28125 C 95.371094 154.253906 95.386719 154.226562 95.402344 154.203125 C 95.4375 154.148438 95.476562 154.09375 95.515625 154.039062 C 95.546875 154 95.582031 153.960938 95.617188 153.925781 C 95.628906 153.90625 95.640625 153.890625 95.65625 153.875 C 95.671875 153.859375 95.6875 153.839844 95.707031 153.820312 C 95.714844 153.808594 95.726562 153.800781 95.738281 153.792969 C 95.769531 153.757812 95.800781 153.726562 95.835938 153.695312 C 95.972656 153.570312 96.117188 153.457031 96.269531 153.351562 C 96.324219 153.320312 96.378906 153.285156 96.433594 153.246094 C 96.816406 153.015625 97.21875 152.824219 97.636719 152.667969 C 97.78125 152.613281 97.925781 152.5625 98.082031 152.511719 C 98.140625 152.496094 98.191406 152.476562 98.25 152.457031 C 98.332031 152.429688 98.417969 152.40625 98.503906 152.386719 C 98.9375 152.253906 99.402344 152.144531 99.910156 152.042969 C 100.0625 152.011719 100.222656 151.980469 100.378906 151.953125 C 100.507812 151.933594 100.644531 151.910156 100.777344 151.886719 C 101.902344 151.707031 103.183594 151.574219 104.597656 151.484375 C 104.730469 151.476562 104.863281 151.46875 104.996094 151.464844 C 105.152344 151.457031 105.308594 151.449219 105.46875 151.441406 C 105.601562 151.433594 105.738281 151.429688 105.875 151.425781 C 106.007812 151.417969 106.144531 151.414062 106.285156 151.410156 C 106.667969 151.398438 107.0625 151.386719 107.464844 151.378906 C 108.613281 151.359375 109.820312 151.367188 111.089844 151.394531 C 111.679688 151.40625 112.28125 151.425781 112.894531 151.453125 C 112.933594 151.453125 112.976562 151.457031 113.011719 151.457031 C 113.546875 151.46875 114.09375 151.496094 114.644531 151.523438 C 115.03125 151.542969 115.421875 151.5625 115.8125 151.585938 C 116.179688 151.609375 116.554688 151.628906 116.929688 151.65625 C 117.222656 151.671875 117.515625 151.695312 117.8125 151.714844 C 118.0625 151.734375 118.3125 151.753906 118.5625 151.769531 C 118.863281 151.789062 119.164062 151.8125 119.46875 151.835938 C 119.886719 151.871094 120.304688 151.90625 120.730469 151.9375 C 121.152344 151.976562 121.582031 152.015625 122.007812 152.054688 C 122.4375 152.09375 122.871094 152.132812 123.304688 152.175781 C 123.351562 152.179688 123.390625 152.183594 123.433594 152.1875 C 123.828125 152.230469 124.222656 152.265625 124.625 152.308594 C 126.835938 152.535156 129.109375 152.796875 131.449219 153.097656 C 132.847656 153.277344 134.265625 153.46875 135.699219 153.671875 C 137.875 153.980469 140.085938 154.316406 142.3125 154.675781 C 144.542969 155.039062 146.785156 155.421875 149.042969 155.824219 C 149.609375 155.925781 150.179688 156.027344 150.753906 156.136719 C 151.453125 156.265625 152.152344 156.398438 152.851562 156.53125 C 153.292969 156.617188 153.734375 156.699219 154.175781 156.789062 C 154.699219 156.890625 155.226562 156.992188 155.75 157.097656 C 159.203125 157.78125 162.636719 158.515625 165.988281 159.28125 C 166.539062 159.40625 167.089844 159.535156 167.636719 159.660156 C 168.734375 159.917969 169.816406 160.175781 170.890625 160.4375 C 171.1875 160.511719 171.480469 160.582031 171.773438 160.65625 C 172.503906 160.839844 173.230469 161.019531 173.949219 161.203125 L 173.949219 161.207031 C 173.992188 161.214844 174.03125 161.226562 174.074219 161.238281 C 174.597656 161.371094 175.117188 161.503906 175.636719 161.644531 C 176.855469 161.960938 178.054688 162.285156 179.234375 162.609375 C 180.015625 162.832031 180.792969 163.050781 181.554688 163.269531 C 182.699219 163.605469 183.820312 163.941406 184.910156 164.277344 C 185.179688 164.359375 185.449219 164.445312 185.714844 164.523438 C 186.511719 164.777344 187.296875 165.027344 188.0625 165.273438 C 188.671875 165.472656 189.261719 165.675781 189.847656 165.875 C 190.433594 166.078125 191.007812 166.28125 191.570312 166.484375 C 191.933594 166.613281 192.292969 166.746094 192.644531 166.875 C 193.160156 167.066406 193.664062 167.257812 194.15625 167.449219 C 194.308594 167.507812 194.457031 167.570312 194.605469 167.625 C 194.882812 167.734375 195.152344 167.84375 195.417969 167.953125 C 195.597656 168.023438 195.773438 168.09375 195.945312 168.171875 C 196.117188 168.238281 196.292969 168.3125 196.460938 168.382812 C 196.628906 168.453125 196.796875 168.527344 196.964844 168.601562 C 197.105469 168.660156 197.242188 168.71875 197.375 168.78125 C 197.644531 168.898438 197.914062 169.015625 198.175781 169.140625 C 198.304688 169.199219 198.433594 169.257812 198.5625 169.320312 L 198.859375 169.457031 C 198.902344 169.476562 198.945312 169.496094 198.984375 169.515625 C 199.308594 169.667969 199.621094 169.820312 199.925781 169.972656 C 200.210938 170.117188 200.488281 170.261719 200.753906 170.40625 C 201.066406 170.574219 201.367188 170.734375 201.65625 170.902344 C 201.714844 170.933594 201.769531 170.96875 201.828125 171 C 202.023438 171.109375 202.207031 171.222656 202.394531 171.335938 C 202.757812 171.558594 203.105469 171.78125 203.425781 172 C 203.746094 172.222656 204.042969 172.441406 204.320312 172.65625 C 204.320312 172.660156 204.320312 172.660156 204.324219 172.660156 C 204.457031 172.765625 204.585938 172.875 204.707031 172.976562 C 204.90625 173.148438 205.085938 173.3125 205.253906 173.480469 C 205.3125 173.53125 205.363281 173.585938 205.414062 173.644531 C 205.4375 173.664062 205.457031 173.683594 205.476562 173.707031 C 205.554688 173.792969 205.632812 173.878906 205.710938 173.96875 C 205.800781 174.074219 205.886719 174.179688 205.964844 174.289062 C 206.003906 174.339844 206.042969 174.394531 206.078125 174.449219 C 206.125 174.511719 206.171875 174.582031 206.207031 174.644531 C 206.242188 174.699219 206.273438 174.757812 206.304688 174.808594 C 206.382812 174.949219 206.453125 175.089844 206.507812 175.242188 C 206.550781 175.34375 206.585938 175.445312 206.609375 175.554688 C 206.640625 175.65625 206.660156 175.757812 206.675781 175.863281 Z M 206.675781 175.863281 "/>
</g>
</defs>
<g id="surface1">
<path style=" stroke:none;fill-rule:nonzero;fill:rgb(94.901961%,94.901961%,94.901961%);fill-opacity:1;" d="M 184.269531 28.273438 C 184.269531 33.890625 179.730469 38.449219 174.128906 38.449219 C 168.523438 38.449219 163.984375 33.890625 163.984375 28.273438 C 163.984375 22.652344 168.523438 18.097656 174.128906 18.097656 C 179.730469 18.097656 184.269531 22.652344 184.269531 28.273438 Z M 184.269531 28.273438 "/>
<path style=" stroke:none;fill-rule:nonzero;fill:rgb(94.901961%,94.901961%,94.901961%);fill-opacity:1;" d="M 252.820312 189.472656 C 267.898438 177.953125 275.097656 158.59375 270.589844 140.125 C 270.480469 139.667969 270.359375 139.210938 270.234375 138.753906 C 267.246094 127.789062 259.851562 117.371094 249.074219 113.867188 C 240.023438 110.925781 230.148438 113.1875 220.707031 112.019531 C 202.171875 109.722656 187.804688 94.679688 177.695312 78.929688 C 167.585938 63.179688 159.8125 45.550781 146.378906 32.539062 C 124.234375 11.09375 88.113281 6.472656 60.660156 20.433594 C 33.203125 34.394531 15.714844 65.371094 16.460938 96.238281 C 17.207031 127.105469 35.476562 156.621094 62.003906 172.277344 C 71.75 178.03125 83.023438 182.105469 94.242188 180.679688 C 103.972656 179.441406 112.820312 174.195312 122.507812 172.636719 C 137.738281 170.1875 152.871094 177.097656 166.046875 185.148438 C 179.222656 193.199219 191.945312 202.738281 206.917969 206.472656 C 221.453125 210.09375 239.460938 199.679688 252.820312 189.472656 Z M 252.820312 189.472656 "/>
<path style=" stroke:none;fill-rule:nonzero;fill:rgb(24.705882%,23.921569%,33.72549%);fill-opacity:1;" d="M 231.15625 21.082031 C 230.824219 20.863281 230.492188 20.652344 230.160156 20.4375 C 220.605469 14.308594 210.363281 9.328125 199.648438 5.601562 L 197.164062 39.988281 L 181.410156 39.988281 L 181.410156 0.582031 C 180.421875 0.378906 179.421875 0.183594 178.421875 0 L 178.421875 39.988281 L 159.703125 39.988281 C 138.246094 39.988281 120.847656 22.535156 120.847656 1.011719 C 119.84375 1.226562 118.851562 1.460938 117.855469 1.707031 L 117.855469 39.988281 L 102.609375 39.988281 L 100.242188 7.199219 C 89.230469 11.4375 78.773438 17.007812 69.109375 23.789062 C 68.941406 23.902344 68.777344 24.023438 68.613281 24.136719 C 67.773438 24.726562 66.945312 25.328125 66.121094 25.9375 L 66.121094 157.117188 L 111.054688 157.117188 L 110.261719 146.082031 L 105.890625 85.503906 L 193.878906 85.503906 L 189.507812 146.082031 L 188.714844 157.117188 L 233.148438 157.117188 L 233.148438 22.410156 C 232.488281 21.960938 231.824219 21.519531 231.15625 21.082031 Z M 117.855469 75.5 L 105.167969 75.5 L 102.824219 42.988281 L 117.855469 42.988281 Z M 178.421875 75.5 L 157.117188 75.5 L 157.117188 74.855469 C 157.117188 74.230469 156.867188 73.628906 156.425781 73.1875 C 155.984375 72.746094 155.386719 72.5 154.765625 72.5 L 145.5 72.5 C 144.203125 72.5 143.152344 73.554688 143.152344 74.855469 L 143.152344 75.5 L 120.847656 75.5 L 120.847656 42.988281 L 178.421875 42.988281 Z M 181.410156 75.5 L 181.410156 42.988281 L 196.945312 42.988281 L 194.601562 75.5 Z M 181.410156 75.5 "/>
<path style=" stroke:none;fill-rule:nonzero;fill:rgb(24.705882%,23.921569%,33.72549%);fill-opacity:1;" d="M 0 165.515625 C 3.300781 169.441406 6.871094 173.125 10.683594 176.550781 L 288.25 176.929688 C 292.0625 173.507812 295.632812 169.820312 298.929688 165.898438 Z M 0 165.515625 "/>
<path style=" stroke:none;fill-rule:nonzero;fill:rgb(24.705882%,23.921569%,33.72549%);fill-opacity:1;" d="M 188.226562 130.1875 L 188.226562 162.851562 C 188.226562 163.71875 188.925781 164.417969 189.789062 164.421875 L 238.042969 164.421875 C 238.90625 164.417969 239.605469 163.71875 239.609375 162.851562 L 239.609375 130.1875 C 239.605469 129.320312 238.90625 128.621094 238.042969 128.617188 L 189.789062 128.617188 C 188.925781 128.621094 188.226562 129.320312 188.226562 130.1875 Z M 188.226562 130.1875 "/>
<path style=" stroke:none;fill-rule:nonzero;fill:rgb(0%,0%,54.509804%);fill-opacity:1;" d="M 189.359375 130.59375 L 189.359375 162.449219 C 189.359375 162.910156 189.730469 163.285156 190.195312 163.285156 L 237.640625 163.285156 C 238.101562 163.285156 238.476562 162.910156 238.476562 162.449219 L 238.476562 130.59375 C 238.476562 130.128906 238.101562 129.753906 237.640625 129.753906 L 190.195312 129.753906 C 189.730469 129.753906 189.359375 130.128906 189.359375 130.59375 Z M 189.359375 130.59375 "/>
<path style=" stroke:none;fill-rule:nonzero;fill:rgb(18.431373%,18.039216%,25.490196%);fill-opacity:1;" d="M 187.214844 169.21875 C 187.394531 169.445312 187.667969 169.578125 187.953125 169.574219 L 239.621094 169.574219 C 239.90625 169.574219 240.179688 169.445312 240.359375 169.222656 C 240.539062 169 240.609375 168.707031 240.550781 168.425781 L 239.75 164.605469 C 239.679688 164.289062 239.457031 164.027344 239.15625 163.910156 C 239.050781 163.867188 238.933594 163.847656 238.820312 163.847656 L 188.753906 163.847656 C 188.636719 163.847656 188.523438 163.867188 188.417969 163.910156 C 188.113281 164.027344 187.890625 164.289062 187.824219 164.605469 L 187.023438 168.425781 C 186.964844 168.707031 187.035156 169 187.214844 169.21875 Z M 187.214844 169.21875 "/>
<path style=" stroke:none;fill-rule:nonzero;fill:rgb(24.705882%,23.921569%,33.72549%);fill-opacity:1;" d="M 238.265625 165.492188 L 237.046875 165.492188 C 236.945312 165.492188 236.859375 165.410156 236.859375 165.308594 L 236.859375 164.722656 C 236.859375 164.617188 236.945312 164.535156 237.046875 164.535156 L 238.265625 164.535156 C 238.371094 164.535156 238.453125 164.617188 238.453125 164.722656 L 238.453125 165.308594 C 238.453125 165.410156 238.371094 165.492188 238.265625 165.492188 Z M 238.265625 165.492188 "/>
<path style=" stroke:none;fill-rule:nonzero;fill:rgb(24.705882%,23.921569%,33.72549%);fill-opacity:1;" d="M 235.085938 165.492188 L 233.863281 165.492188 C 233.761719 165.492188 233.679688 165.410156 233.679688 165.308594 L 233.679688 164.722656 C 233.679688 164.617188 233.761719 164.535156 233.863281 164.535156 L 235.085938 164.535156 C 235.1875 164.535156 235.269531 164.617188 235.269531 164.722656 L 235.269531 165.308594 C 235.269531 165.410156 235.1875 165.492188 235.085938 165.492188 Z M 235.085938 165.492188 "/>
<path style=" stroke:none;fill-rule:nonzero;fill:rgb(24.705882%,23.921569%,33.72549%);fill-opacity:1;" d="M 231.902344 165.492188 L 230.679688 165.492188 C 230.578125 165.492188 230.496094 165.410156 230.496094 165.308594 L 230.496094 164.722656 C 230.496094 164.617188 230.578125 164.535156 230.679688 164.535156 L 231.902344 164.535156 C 232.003906 164.535156 232.085938 164.617188 232.085938 164.722656 L 232.085938 165.308594 C 232.085938 165.410156 232.003906 165.492188 231.902344 165.492188 Z M 231.902344 165.492188 "/>
<path style=" stroke:none;fill-rule:nonzero;fill:rgb(24.705882%,23.921569%,33.72549%);fill-opacity:1;" d="M 228.71875 165.492188 L 227.5 165.492188 C 227.394531 165.492188 227.3125 165.410156 227.3125 165.308594 L 227.3125 164.722656 C 227.3125 164.617188 227.394531 164.535156 227.5 164.535156 L 228.71875 164.535156 C 228.820312 164.535156 228.90625 164.617188 228.90625 164.722656 L 228.90625 165.308594 C 228.90625 165.410156 228.820312 165.492188 228.71875 165.492188 Z M 228.71875 165.492188 "/>
<path style=" stroke:none;fill-rule:nonzero;fill:rgb(24.705882%,23.921569%,33.72549%);fill-opacity:1;" d="M 225.535156 165.492188 L 224.316406 165.492188 C 224.214844 165.492188 224.128906 165.410156 224.128906 165.308594 L 224.128906 164.722656 C 224.128906 164.617188 224.214844 164.535156 224.316406 164.535156 L 225.535156 164.535156 C 225.640625 164.535156 225.722656 164.617188 225.722656 164.722656 L 225.722656 165.308594 C 225.722656 165.410156 225.640625 165.492188 225.535156 165.492188 Z M 225.535156 165.492188 "/>
<path style=" stroke:none;fill-rule:nonzero;fill:rgb(24.705882%,23.921569%,33.72549%);fill-opacity:1;" d="M 222.355469 165.492188 L 221.132812 165.492188 C 221.03125 165.492188 220.949219 165.410156 220.949219 165.308594 L 220.949219 164.722656 C 220.949219 164.617188 221.03125 164.535156 221.132812 164.535156 L 222.355469 164.535156 C 222.457031 164.535156 222.539062 164.617188 222.539062 164.722656 L 222.539062 165.308594 C 222.539062 165.410156 222.457031 165.492188 222.355469 165.492188 Z M 222.355469 165.492188 "/>
<path style=" stroke:none;fill-rule:nonzero;fill:rgb(24.705882%,23.921569%,33.72549%);fill-opacity:1;" d="M 219.171875 165.492188 L 217.949219 165.492188 C 217.847656 165.492188 217.765625 165.410156 217.765625 165.308594 L 217.765625 164.722656 C 217.765625 164.617188 217.847656 164.535156 217.949219 164.535156 L 219.171875 164.535156 C 219.273438 164.535156 219.355469 164.617188 219.355469 164.722656 L 219.355469 165.308594 C 219.355469 165.410156 219.273438 165.492188 219.171875 165.492188 Z M 219.171875 165.492188 "/>
<path style=" stroke:none;fill-rule:nonzero;fill:rgb(24.705882%,23.921569%,33.72549%);fill-opacity:1;" d="M 215.988281 165.492188 L 214.769531 165.492188 C 214.664062 165.492188 214.582031 165.410156 214.582031 165.308594 L 214.582031 164.722656 C 214.582031 164.617188 214.664062 164.535156 214.769531 164.535156 L 215.988281 164.535156 C 216.089844 164.535156 216.175781 164.617188 216.175781 164.722656 L 216.175781 165.308594 C 216.175781 165.410156 216.089844 165.492188 215.988281 165.492188 Z M 215.988281 165.492188 "/>
<path style=" stroke:none;fill-rule:nonzero;fill:rgb(24.705882%,23.921569%,33.72549%);fill-opacity:1;" d="M 212.804688 165.492188 L 211.585938 165.492188 C 211.484375 165.492188 211.398438 165.410156 211.398438 165.308594 L 211.398438 164.722656 C 211.398438 164.617188 211.484375 164.535156 211.585938 164.535156 L 212.804688 164.535156 C 212.910156 164.535156 212.992188 164.617188 212.992188 164.722656 L 212.992188 165.308594 C 212.992188 165.410156 212.910156 165.492188 212.804688 165.492188 Z M 212.804688 165.492188 "/>
<path style=" stroke:none;fill-rule:nonzero;fill:rgb(24.705882%,23.921569%,33.72549%);fill-opacity:1;" d="M 209.625 165.492188 L 208.402344 165.492188 C 208.300781 165.492188 208.21875 165.410156 208.21875 165.308594 L 208.21875 164.722656 C 208.21875 164.617188 208.300781 164.535156 208.402344 164.535156 L 209.625 164.535156 C 209.726562 164.535156 209.808594 164.617188 209.808594 164.722656 L 209.808594 165.308594 C 209.808594 165.410156 209.726562 165.492188 209.625 165.492188 Z M 209.625 165.492188 "/>
<path style=" stroke:none;fill-rule:nonzero;fill:rgb(24.705882%,23.921569%,33.72549%);fill-opacity:1;" d="M 206.441406 165.492188 L 205.21875 165.492188 C 205.117188 165.492188 205.035156 165.410156 205.035156 165.308594 L 205.035156 164.722656 C 205.035156 164.617188 205.117188 164.535156 205.21875 164.535156 L 206.441406 164.535156 C 206.542969 164.535156 206.625 164.617188 206.625 164.722656 L 206.625 165.308594 C 206.625 165.410156 206.542969 165.492188 206.441406 165.492188 Z M 206.441406 165.492188 "/>
<path style=" stroke:none;fill-rule:nonzero;fill:rgb(24.705882%,23.921569%,33.72549%);fill-opacity:1;" d="M 203.257812 165.492188 L 202.039062 165.492188 C 201.933594 165.492188 201.851562 165.410156 201.851562 165.308594 L 201.851562 164.722656 C 201.851562 164.617188 201.933594 164.535156 202.039062 164.535156 L 203.257812 164.535156 C 203.359375 164.535156 203.445312 164.617188 203.445312 164.722656 L 203.445312 165.308594 C 203.445312 165.410156 203.359375 165.492188 203.257812 165.492188 Z M 203.257812 165.492188 "/>
<path style=" stroke:none;fill-rule:nonzero;fill:rgb(24.705882%,23.921569%,33.72549%);fill-opacity:1;" d="M 200.074219 165.492188 L 198.855469 165.492188 C 198.753906 165.492188 198.667969 165.410156 198.667969 165.308594 L 198.667969 164.722656 C 198.667969 164.617188 198.753906 164.535156 198.855469 164.535156 L 200.074219 164.535156 C 200.179688 164.535156 200.261719 164.617188 200.261719 164.722656 L 200.261719 165.308594 C 200.261719 165.410156 200.179688 165.492188 200.074219 165.492188 Z M 200.074219 165.492188 "/>
<path style=" stroke:none;fill-rule:nonzero;fill:rgb(24.705882%,23.921569%,33.72549%);fill-opacity:1;" d="M 196.894531 165.492188 L 195.671875 165.492188 C 195.570312 165.492188 195.488281 165.410156 195.488281 165.308594 L 195.488281 164.722656 C 195.488281 164.617188 195.570312 164.535156 195.671875 164.535156 L 196.894531 164.535156 C 196.996094 164.535156 197.078125 164.617188 197.078125 164.722656 L 197.078125 165.308594 C 197.078125 165.410156 196.996094 165.492188 196.894531 165.492188 Z M 196.894531 165.492188 "/>
<path style=" stroke:none;fill-rule:nonzero;fill:rgb(24.705882%,23.921569%,33.72549%);fill-opacity:1;" d="M 193.710938 165.492188 L 192.488281 165.492188 C 192.386719 165.492188 192.304688 165.410156 192.304688 165.308594 L 192.304688 164.722656 C 192.304688 164.617188 192.386719 164.535156 192.488281 164.535156 L 193.710938 164.535156 C 193.8125 164.535156 193.894531 164.617188 193.894531 164.722656 L 193.894531 165.308594 C 193.894531 165.410156 193.8125 165.492188 193.710938 165.492188 Z M 193.710938 165.492188 "/>
<path style=" stroke:none;fill-rule:nonzero;fill:rgb(24.705882%,23.921569%,33.72549%);fill-opacity:1;" d="M 190.527344 165.492188 L 189.308594 165.492188 C 189.203125 165.492188 189.121094 165.410156 189.121094 165.308594 L 189.121094 164.722656 C 189.121094 164.617188 189.203125 164.535156 189.308594 164.535156 L 190.527344 164.535156 C 190.628906 164.535156 190.714844 164.617188 190.714844 164.722656 L 190.714844 165.308594 C 190.714844 165.410156 190.628906 165.492188 190.527344 165.492188 Z M 190.527344 165.492188 "/>
<path style=" stroke:none;fill-rule:nonzero;fill:rgb(24.705882%,23.921569%,33.72549%);fill-opacity:1;" d="M 238.304688 167.089844 L 237.085938 167.089844 C 236.980469 167.089844 236.898438 167.007812 236.898438 166.902344 L 236.898438 166.316406 C 236.898438 166.214844 236.980469 166.132812 237.085938 166.132812 L 238.304688 166.132812 C 238.40625 166.132812 238.488281 166.214844 238.488281 166.316406 L 238.488281 166.902344 C 238.488281 167.007812 238.40625 167.089844 238.304688 167.089844 Z M 238.304688 167.089844 "/>
<path style=" stroke:none;fill-rule:nonzero;fill:rgb(24.705882%,23.921569%,33.72549%);fill-opacity:1;" d="M 235.121094 167.089844 L 233.902344 167.089844 C 233.800781 167.089844 233.714844 167.007812 233.714844 166.902344 L 233.714844 166.316406 C 233.714844 166.214844 233.800781 166.132812 233.902344 166.132812 L 235.121094 166.132812 C 235.222656 166.132812 235.308594 166.214844 235.308594 166.316406 L 235.308594 166.902344 C 235.308594 167.007812 235.222656 167.089844 235.121094 167.089844 Z M 235.121094 167.089844 "/>
<path style=" stroke:none;fill-rule:nonzero;fill:rgb(24.705882%,23.921569%,33.72549%);fill-opacity:1;" d="M 231.9375 167.089844 L 230.71875 167.089844 C 230.617188 167.089844 230.535156 167.007812 230.535156 166.902344 L 230.535156 166.316406 C 230.535156 166.214844 230.617188 166.132812 230.71875 166.132812 L 231.9375 166.132812 C 232.042969 166.132812 232.125 166.214844 232.125 166.316406 L 232.125 166.902344 C 232.125 167.007812 232.042969 167.089844 231.9375 167.089844 Z M 231.9375 167.089844 "/>
<path style=" stroke:none;fill-rule:nonzero;fill:rgb(24.705882%,23.921569%,33.72549%);fill-opacity:1;" d="M 228.757812 167.089844 L 227.535156 167.089844 C 227.433594 167.089844 227.351562 167.007812 227.351562 166.902344 L 227.351562 166.316406 C 227.351562 166.214844 227.433594 166.132812 227.535156 166.132812 L 228.757812 166.132812 C 228.859375 166.132812 228.941406 166.214844 228.941406 166.316406 L 228.941406 166.902344 C 228.941406 167.007812 228.859375 167.089844 228.757812 167.089844 Z M 228.757812 167.089844 "/>
<path style=" stroke:none;fill-rule:nonzero;fill:rgb(24.705882%,23.921569%,33.72549%);fill-opacity:1;" d="M 225.574219 167.089844 L 224.355469 167.089844 C 224.25 167.089844 224.167969 167.007812 224.167969 166.902344 L 224.167969 166.316406 C 224.167969 166.214844 224.25 166.132812 224.355469 166.132812 L 225.574219 166.132812 C 225.675781 166.132812 225.757812 166.214844 225.757812 166.316406 L 225.757812 166.902344 C 225.757812 167.007812 225.675781 167.089844 225.574219 167.089844 Z M 225.574219 167.089844 "/>
<path style=" stroke:none;fill-rule:nonzero;fill:rgb(24.705882%,23.921569%,33.72549%);fill-opacity:1;" d="M 222.390625 167.089844 L 221.171875 167.089844 C 221.070312 167.089844 220.984375 167.007812 220.984375 166.902344 L 220.984375 166.316406 C 220.984375 166.214844 221.070312 166.132812 221.171875 166.132812 L 222.390625 166.132812 C 222.492188 166.132812 222.578125 166.214844 222.578125 166.316406 L 222.578125 166.902344 C 222.578125 167.007812 222.492188 167.089844 222.390625 167.089844 Z M 222.390625 167.089844 "/>
<path style=" stroke:none;fill-rule:nonzero;fill:rgb(24.705882%,23.921569%,33.72549%);fill-opacity:1;" d="M 219.207031 167.089844 L 217.988281 167.089844 C 217.886719 167.089844 217.804688 167.007812 217.804688 166.902344 L 217.804688 166.316406 C 217.804688 166.214844 217.886719 166.132812 217.988281 166.132812 L 219.207031 166.132812 C 219.3125 166.132812 219.394531 166.214844 219.394531 166.316406 L 219.394531 166.902344 C 219.394531 167.007812 219.3125 167.089844 219.207031 167.089844 Z M 219.207031 167.089844 "/>
<path style=" stroke:none;fill-rule:nonzero;fill:rgb(24.705882%,23.921569%,33.72549%);fill-opacity:1;" d="M 216.027344 167.089844 L 214.804688 167.089844 C 214.703125 167.089844 214.621094 167.007812 214.621094 166.902344 L 214.621094 166.316406 C 214.621094 166.214844 214.703125 166.132812 214.804688 166.132812 L 216.027344 166.132812 C 216.128906 166.132812 216.210938 166.214844 216.210938 166.316406 L 216.210938 166.902344 C 216.210938 167.007812 216.128906 167.089844 216.027344 167.089844 Z M 216.027344 167.089844 "/>
<path style=" stroke:none;fill-rule:nonzero;fill:rgb(24.705882%,23.921569%,33.72549%);fill-opacity:1;" d="M 212.84375 167.089844 L 211.625 167.089844 C 211.519531 167.089844 211.4375 167.007812 211.4375 166.902344 L 211.4375 166.316406 C 211.4375 166.214844 211.519531 166.132812 211.625 166.132812 L 212.84375 166.132812 C 212.945312 166.132812 213.027344 166.214844 213.027344 166.316406 L 213.027344 166.902344 C 213.027344 167.007812 212.945312 167.089844 212.84375 167.089844 Z M 212.84375 167.089844 "/>
<path style=" stroke:none;fill-rule:nonzero;fill:rgb(24.705882%,23.921569%,33.72549%);fill-opacity:1;" d="M 209.660156 167.089844 L 208.441406 167.089844 C 208.339844 167.089844 208.253906 167.007812 208.253906 166.902344 L 208.253906 166.316406 C 208.253906 166.214844 208.339844 166.132812 208.441406 166.132812 L 209.660156 166.132812 C 209.761719 166.132812 209.847656 166.214844 209.847656 166.316406 L 209.847656 166.902344 C 209.847656 167.007812 209.761719 167.089844 209.660156 167.089844 Z M 209.660156 167.089844 "/>
<path style=" stroke:none;fill-rule:nonzero;fill:rgb(24.705882%,23.921569%,33.72549%);fill-opacity:1;" d="M 206.476562 167.089844 L 205.257812 167.089844 C 205.15625 167.089844 205.074219 167.007812 205.074219 166.902344 L 205.074219 166.316406 C 205.074219 166.214844 205.15625 166.132812 205.257812 166.132812 L 206.476562 166.132812 C 206.582031 166.132812 206.664062 166.214844 206.664062 166.316406 L 206.664062 166.902344 C 206.664062 167.007812 206.582031 167.089844 206.476562 167.089844 Z M 206.476562 167.089844 "/>
<path style=" stroke:none;fill-rule:nonzero;fill:rgb(24.705882%,23.921569%,33.72549%);fill-opacity:1;" d="M 203.296875 167.089844 L 202.074219 167.089844 C 201.972656 167.089844 201.890625 167.007812 201.890625 166.902344 L 201.890625 166.316406 C 201.890625 166.214844 201.972656 166.132812 202.074219 166.132812 L 203.296875 166.132812 C 203.398438 166.132812 203.480469 166.214844 203.480469 166.316406 L 203.480469 166.902344 C 203.480469 167.007812 203.398438 167.089844 203.296875 167.089844 Z M 203.296875 167.089844 "/>
<path style=" stroke:none;fill-rule:nonzero;fill:rgb(24.705882%,23.921569%,33.72549%);fill-opacity:1;" d="M 200.113281 167.089844 L 198.894531 167.089844 C 198.789062 167.089844 198.707031 167.007812 198.707031 166.902344 L 198.707031 166.316406 C 198.707031 166.214844 198.789062 166.132812 198.894531 166.132812 L 200.113281 166.132812 C 200.214844 166.132812 200.296875 166.214844 200.296875 166.316406 L 200.296875 166.902344 C 200.296875 167.007812 200.214844 167.089844 200.113281 167.089844 Z M 200.113281 167.089844 "/>
<path style=" stroke:none;fill-rule:nonzero;fill:rgb(24.705882%,23.921569%,33.72549%);fill-opacity:1;" d="M 196.929688 167.089844 L 195.710938 167.089844 C 195.609375 167.089844 195.523438 167.007812 195.523438 166.902344 L 195.523438 166.316406 C 195.523438 166.214844 195.609375 166.132812 195.710938 166.132812 L 196.929688 166.132812 C 197.03125 166.132812 197.117188 166.214844 197.117188 166.316406 L 197.117188 166.902344 C 197.117188 167.007812 197.03125 167.089844 196.929688 167.089844 Z M 196.929688 167.089844 "/>
<path style=" stroke:none;fill-rule:nonzero;fill:rgb(24.705882%,23.921569%,33.72549%);fill-opacity:1;" d="M 193.746094 167.089844 L 192.527344 167.089844 C 192.425781 167.089844 192.34375 167.007812 192.34375 166.902344 L 192.34375 166.316406 C 192.34375 166.214844 192.425781 166.132812 192.527344 166.132812 L 193.746094 166.132812 C 193.851562 166.132812 193.933594 166.214844 193.933594 166.316406 L 193.933594 166.902344 C 193.933594 167.007812 193.851562 167.089844 193.746094 167.089844 Z M 193.746094 167.089844 "/>
<path style=" stroke:none;fill-rule:nonzero;fill:rgb(24.705882%,23.921569%,33.72549%);fill-opacity:1;" d="M 190.566406 167.089844 L 189.34375 167.089844 C 189.242188 167.089844 189.160156 167.007812 189.160156 166.902344 L 189.160156 166.316406 C 189.160156 166.214844 189.242188 166.132812 189.34375 166.132812 L 190.566406 166.132812 C 190.667969 166.132812 190.75 166.214844 190.75 166.316406 L 190.75 166.902344 C 190.75 167.007812 190.667969 167.089844 190.566406 167.089844 Z M 190.566406 167.089844 "/>
<path style=" stroke:none;fill-rule:nonzero;fill:rgb(24.705882%,23.921569%,33.72549%);fill-opacity:1;" d="M 223.027344 169.003906 L 210.667969 169.003906 C 210.566406 169.003906 210.484375 168.921875 210.484375 168.820312 L 210.484375 168.234375 C 210.484375 168.128906 210.566406 168.046875 210.667969 168.046875 L 223.027344 168.046875 C 223.128906 168.046875 223.214844 168.128906 223.214844 168.234375 L 223.214844 168.820312 C 223.214844 168.921875 223.128906 169.003906 223.027344 169.003906 Z M 223.027344 169.003906 "/>
<path style=" stroke:none;fill-rule:nonzero;fill:rgb(100%,100%,100%);fill-opacity:1;" d="M 196.492188 136.722656 L 197.574219 136.722656 C 197.902344 136.722656 198.167969 136.988281 198.167969 137.316406 C 198.167969 137.644531 197.902344 137.910156 197.574219 137.910156 L 196.492188 137.910156 C 196.167969 137.910156 195.902344 137.644531 195.902344 137.316406 C 195.902344 136.988281 196.167969 136.722656 196.492188 136.722656 Z M 196.492188 136.722656 "/>
<path style=" stroke:none;fill-rule:nonzero;fill:rgb(100%,100%,100%);fill-opacity:1;" d="M 208.851562 136.722656 L 209.929688 136.722656 C 210.257812 136.722656 210.523438 136.988281 210.523438 137.316406 C 210.523438 137.644531 210.257812 137.910156 209.929688 137.910156 L 208.851562 137.910156 C 208.523438 137.910156 208.257812 137.644531 208.257812 137.316406 C 208.257812 136.988281 208.523438 136.722656 208.851562 136.722656 Z M 208.851562 136.722656 "/>
<path style=" stroke:none;fill-rule:nonzero;fill:rgb(100%,100%,100%);fill-opacity:1;" d="M 212.351562 136.722656 L 213.429688 136.722656 C 213.757812 136.722656 214.023438 136.988281 214.023438 137.316406 C 214.023438 137.644531 213.757812 137.910156 213.429688 137.910156 L 212.351562 137.910156 C 212.023438 137.910156 211.757812 137.644531 211.757812 137.316406 C 211.757812 136.988281 212.023438 136.722656 212.351562 136.722656 Z M 212.351562 136.722656 "/>
<path style=" stroke:none;fill-rule:nonzero;fill:rgb(100%,100%,100%);fill-opacity:1;" d="M 199.855469 136.621094 L 206.570312 136.621094 C 206.898438 136.621094 207.164062 136.886719 207.164062 137.21875 C 207.164062 137.546875 206.898438 137.8125 206.570312 137.8125 L 199.855469 137.8125 C 199.527344 137.8125 199.261719 137.546875 199.261719 137.21875 C 199.261719 136.886719 199.527344 136.621094 199.855469 136.621094 Z M 199.855469 136.621094 "/>
<path style=" stroke:none;fill-rule:nonzero;fill:rgb(100%,100%,100%);fill-opacity:1;" d="M 216.328125 136.621094 L 223.042969 136.621094 C 223.371094 136.621094 223.636719 136.886719 223.636719 137.21875 C 223.636719 137.546875 223.371094 137.8125 223.042969 137.8125 L 216.328125 137.8125 C 216.003906 137.8125 215.738281 137.546875 215.738281 137.21875 C 215.738281 136.886719 216.003906 136.621094 216.328125 136.621094 Z M 216.328125 136.621094 "/>
<path style=" stroke:none;fill-rule:nonzero;fill:rgb(100%,100%,100%);fill-opacity:1;" d="M 199.789062 139.40625 L 200.867188 139.40625 C 201.195312 139.40625 201.460938 139.671875 201.460938 140.003906 C 201.460938 140.332031 201.195312 140.597656 200.867188 140.597656 L 199.789062 140.597656 C 199.460938 140.597656 199.195312 140.332031 199.195312 140.003906 C 199.195312 139.671875 199.460938 139.40625 199.789062 139.40625 Z M 199.789062 139.40625 "/>
<path style=" stroke:none;fill-rule:nonzero;fill:rgb(100%,100%,100%);fill-opacity:1;" d="M 212.144531 139.40625 L 213.226562 139.40625 C 213.554688 139.40625 213.816406 139.671875 213.816406 140.003906 C 213.816406 140.332031 213.554688 140.597656 213.226562 140.597656 L 212.144531 140.597656 C 211.816406 140.597656 211.550781 140.332031 211.550781 140.003906 C 211.550781 139.671875 211.816406 139.40625 212.144531 139.40625 Z M 212.144531 139.40625 "/>
<path style=" stroke:none;fill-rule:nonzero;fill:rgb(100%,100%,100%);fill-opacity:1;" d="M 215.644531 139.40625 L 216.726562 139.40625 C 217.054688 139.40625 217.320312 139.671875 217.320312 140.003906 C 217.320312 140.332031 217.054688 140.597656 216.726562 140.597656 L 215.644531 140.597656 C 215.316406 140.597656 215.050781 140.332031 215.050781 140.003906 C 215.050781 139.671875 215.316406 139.40625 215.644531 139.40625 Z M 215.644531 139.40625 "/>
<path style=" stroke:none;fill-rule:nonzero;fill:rgb(100%,100%,100%);fill-opacity:1;" d="M 203.148438 139.308594 L 209.863281 139.308594 C 210.191406 139.308594 210.457031 139.574219 210.457031 139.902344 C 210.457031 140.230469 210.191406 140.496094 209.863281 140.496094 L 203.148438 140.496094 C 202.820312 140.496094 202.554688 140.230469 202.554688 139.902344 C 202.554688 139.574219 202.820312 139.308594 203.148438 139.308594 Z M 203.148438 139.308594 "/>
<path style=" stroke:none;fill-rule:nonzero;fill:rgb(100%,100%,100%);fill-opacity:1;" d="M 219.625 139.308594 L 226.339844 139.308594 C 226.667969 139.308594 226.933594 139.574219 226.933594 139.902344 C 226.933594 140.230469 226.667969 140.496094 226.339844 140.496094 L 219.625 140.496094 C 219.296875 140.496094 219.03125 140.230469 219.03125 139.902344 C 219.03125 139.574219 219.296875 139.308594 219.625 139.308594 Z M 219.625 139.308594 "/>
<path style=" stroke:none;fill-rule:nonzero;fill:rgb(100%,100%,100%);fill-opacity:1;" d="M 203.082031 142.09375 L 204.164062 142.09375 C 204.492188 142.09375 204.757812 142.359375 204.757812 142.6875 C 204.757812 143.015625 204.492188 143.28125 204.164062 143.28125 L 203.082031 143.28125 C 202.757812 143.28125 202.492188 143.015625 202.492188 142.6875 C 202.492188 142.359375 202.757812 142.09375 203.082031 142.09375 Z M 203.082031 142.09375 "/>
<path style=" stroke:none;fill-rule:nonzero;fill:rgb(100%,100%,100%);fill-opacity:1;" d="M 215.441406 142.09375 L 216.519531 142.09375 C 216.847656 142.09375 217.113281 142.359375 217.113281 142.6875 C 217.113281 143.015625 216.847656 143.28125 216.519531 143.28125 L 215.441406 143.28125 C 215.113281 143.28125 214.847656 143.015625 214.847656 142.6875 C 214.847656 142.359375 215.113281 142.09375 215.441406 142.09375 Z M 215.441406 142.09375 "/>
<path style=" stroke:none;fill-rule:nonzero;fill:rgb(100%,100%,100%);fill-opacity:1;" d="M 218.941406 142.09375 L 220.019531 142.09375 C 220.347656 142.09375 220.613281 142.359375 220.613281 142.6875 C 220.613281 143.015625 220.347656 143.28125 220.019531 143.28125 L 218.941406 143.28125 C 218.613281 143.28125 218.347656 143.015625 218.347656 142.6875 C 218.347656 142.359375 218.613281 142.09375 218.941406 142.09375 Z M 218.941406 142.09375 "/>
<path style=" stroke:none;fill-rule:nonzero;fill:rgb(100%,100%,100%);fill-opacity:1;" d="M 206.445312 141.992188 L 213.160156 141.992188 C 213.488281 141.992188 213.753906 142.261719 213.753906 142.589844 C 213.753906 142.917969 213.488281 143.183594 213.160156 143.183594 L 206.445312 143.183594 C 206.117188 143.183594 205.851562 142.917969 205.851562 142.589844 C 205.851562 142.261719 206.117188 141.992188 206.445312 141.992188 Z M 206.445312 141.992188 "/>
<path style=" stroke:none;fill-rule:nonzero;fill:rgb(100%,100%,100%);fill-opacity:1;" d="M 222.917969 141.992188 L 229.632812 141.992188 C 229.960938 141.992188 230.226562 142.261719 230.226562 142.589844 C 230.226562 142.917969 229.960938 143.183594 229.632812 143.183594 L 222.917969 143.183594 C 222.59375 143.183594 222.328125 142.917969 222.328125 142.589844 C 222.328125 142.261719 222.59375 141.992188 222.917969 141.992188 Z M 222.917969 141.992188 "/>
<path style=" stroke:none;fill-rule:nonzero;fill:rgb(100%,100%,100%);fill-opacity:1;" d="M 206.378906 144.777344 L 207.457031 144.777344 C 207.785156 144.777344 208.050781 145.042969 208.050781 145.375 C 208.050781 145.703125 207.785156 145.96875 207.457031 145.96875 L 206.378906 145.96875 C 206.050781 145.96875 205.785156 145.703125 205.785156 145.375 C 205.785156 145.042969 206.050781 144.777344 206.378906 144.777344 Z M 206.378906 144.777344 "/>
<path style=" stroke:none;fill-rule:nonzero;fill:rgb(100%,100%,100%);fill-opacity:1;" d="M 218.734375 144.777344 L 219.816406 144.777344 C 220.144531 144.777344 220.410156 145.042969 220.410156 145.375 C 220.410156 145.703125 220.144531 145.96875 219.816406 145.96875 L 218.734375 145.96875 C 218.40625 145.96875 218.140625 145.703125 218.140625 145.375 C 218.140625 145.042969 218.40625 144.777344 218.734375 144.777344 Z M 218.734375 144.777344 "/>
<path style=" stroke:none;fill-rule:nonzero;fill:rgb(100%,100%,100%);fill-opacity:1;" d="M 222.234375 144.777344 L 223.316406 144.777344 C 223.644531 144.777344 223.910156 145.042969 223.910156 145.375 C 223.910156 145.703125 223.644531 145.96875 223.316406 145.96875 L 222.234375 145.96875 C 221.910156 145.96875 221.644531 145.703125 221.644531 145.375 C 221.644531 145.042969 221.910156 144.777344 222.234375 144.777344 Z M 222.234375 144.777344 "/>
<path style=" stroke:none;fill-rule:nonzero;fill:rgb(100%,100%,100%);fill-opacity:1;" d="M 209.738281 144.679688 L 216.453125 144.679688 C 216.78125 144.679688 217.046875 144.945312 217.046875 145.273438 C 217.046875 145.601562 216.78125 145.867188 216.453125 145.867188 L 209.738281 145.867188 C 209.410156 145.867188 209.144531 145.601562 209.144531 145.273438 C 209.144531 144.945312 209.410156 144.679688 209.738281 144.679688 Z M 209.738281 144.679688 "/>
<path style=" stroke:none;fill-rule:nonzero;fill:rgb(100%,100%,100%);fill-opacity:1;" d="M 208.851562 155.457031 L 209.929688 155.457031 C 210.257812 155.457031 210.523438 155.722656 210.523438 156.050781 C 210.523438 156.382812 210.257812 156.648438 209.929688 156.648438 L 208.851562 156.648438 C 208.523438 156.648438 208.257812 156.382812 208.257812 156.050781 C 208.257812 155.722656 208.523438 155.457031 208.851562 155.457031 Z M 208.851562 155.457031 "/>
<path style=" stroke:none;fill-rule:nonzero;fill:rgb(100%,100%,100%);fill-opacity:1;" d="M 212.351562 155.457031 L 213.429688 155.457031 C 213.757812 155.457031 214.023438 155.722656 214.023438 156.050781 C 214.023438 156.382812 213.757812 156.648438 213.429688 156.648438 L 212.351562 156.648438 C 212.023438 156.648438 211.757812 156.382812 211.757812 156.050781 C 211.757812 155.722656 212.023438 155.457031 212.351562 155.457031 Z M 212.351562 155.457031 "/>
<path style=" stroke:none;fill-rule:nonzero;fill:rgb(100%,100%,100%);fill-opacity:1;" d="M 216.328125 155.554688 L 223.042969 155.554688 C 223.371094 155.554688 223.636719 155.824219 223.636719 156.152344 C 223.636719 156.480469 223.371094 156.746094 223.042969 156.746094 L 216.328125 156.746094 C 216.003906 156.746094 215.738281 156.480469 215.738281 156.152344 C 215.738281 155.824219 216.003906 155.554688 216.328125 155.554688 Z M 216.328125 155.554688 "/>
<path style=" stroke:none;fill-rule:nonzero;fill:rgb(100%,100%,100%);fill-opacity:1;" d="M 196.492188 155.457031 L 197.574219 155.457031 C 197.902344 155.457031 198.167969 155.722656 198.167969 156.050781 C 198.167969 156.382812 197.902344 156.648438 197.574219 156.648438 L 196.492188 156.648438 C 196.167969 156.648438 195.902344 156.382812 195.902344 156.050781 C 195.902344 155.722656 196.167969 155.457031 196.492188 155.457031 Z M 196.492188 155.457031 "/>
<path style=" stroke:none;fill-rule:nonzero;fill:rgb(100%,100%,100%);fill-opacity:1;" d="M 199.855469 155.554688 L 206.570312 155.554688 C 206.898438 155.554688 207.164062 155.824219 207.164062 156.152344 C 207.164062 156.480469 206.898438 156.746094 206.570312 156.746094 L 199.855469 156.746094 C 199.527344 156.746094 199.261719 156.480469 199.261719 156.152344 C 199.261719 155.824219 199.527344 155.554688 199.855469 155.554688 Z M 199.855469 155.554688 "/>
<path style=" stroke:none;fill-rule:nonzero;fill:rgb(100%,100%,100%);fill-opacity:1;" d="M 199.789062 152.773438 L 200.867188 152.773438 C 201.195312 152.773438 201.460938 153.039062 201.460938 153.367188 C 201.460938 153.695312 201.195312 153.960938 200.867188 153.960938 L 199.789062 153.960938 C 199.460938 153.960938 199.195312 153.695312 199.195312 153.367188 C 199.195312 153.039062 199.460938 152.773438 199.789062 152.773438 Z M 199.789062 152.773438 "/>
<path style=" stroke:none;fill-rule:nonzero;fill:rgb(100%,100%,100%);fill-opacity:1;" d="M 212.144531 152.773438 L 213.226562 152.773438 C 213.554688 152.773438 213.816406 153.039062 213.816406 153.367188 C 213.816406 153.695312 213.554688 153.960938 213.226562 153.960938 L 212.144531 153.960938 C 211.816406 153.960938 211.550781 153.695312 211.550781 153.367188 C 211.550781 153.039062 211.816406 152.773438 212.144531 152.773438 Z M 212.144531 152.773438 "/>
<path style=" stroke:none;fill-rule:nonzero;fill:rgb(100%,100%,100%);fill-opacity:1;" d="M 215.644531 152.773438 L 216.726562 152.773438 C 217.054688 152.773438 217.320312 153.039062 217.320312 153.367188 C 217.320312 153.695312 217.054688 153.960938 216.726562 153.960938 L 215.644531 153.960938 C 215.316406 153.960938 215.050781 153.695312 215.050781 153.367188 C 215.050781 153.039062 215.316406 152.773438 215.644531 152.773438 Z M 215.644531 152.773438 "/>
<path style=" stroke:none;fill-rule:nonzero;fill:rgb(100%,100%,100%);fill-opacity:1;" d="M 203.148438 152.871094 L 209.863281 152.871094 C 210.191406 152.871094 210.457031 153.136719 210.457031 153.464844 C 210.457031 153.792969 210.191406 154.0625 209.863281 154.0625 L 203.148438 154.0625 C 202.820312 154.0625 202.554688 153.792969 202.554688 153.464844 C 202.554688 153.136719 202.820312 152.871094 203.148438 152.871094 Z M 203.148438 152.871094 "/>
<path style=" stroke:none;fill-rule:nonzero;fill:rgb(100%,100%,100%);fill-opacity:1;" d="M 203.082031 150.085938 L 204.164062 150.085938 C 204.492188 150.085938 204.757812 150.351562 204.757812 150.679688 C 204.757812 151.007812 204.492188 151.277344 204.164062 151.277344 L 203.082031 151.277344 C 202.757812 151.277344 202.492188 151.007812 202.492188 150.679688 C 202.492188 150.351562 202.757812 150.085938 203.082031 150.085938 Z M 203.082031 150.085938 "/>
<path style=" stroke:none;fill-rule:nonzero;fill:rgb(100%,100%,100%);fill-opacity:1;" d="M 215.441406 150.085938 L 216.519531 150.085938 C 216.847656 150.085938 217.113281 150.351562 217.113281 150.679688 C 217.113281 151.007812 216.847656 151.277344 216.519531 151.277344 L 215.441406 151.277344 C 215.113281 151.277344 214.847656 151.007812 214.847656 150.679688 C 214.847656 150.351562 215.113281 150.085938 215.441406 150.085938 Z M 215.441406 150.085938 "/>
<path style=" stroke:none;fill-rule:nonzero;fill:rgb(100%,100%,100%);fill-opacity:1;" d="M 218.941406 150.085938 L 220.019531 150.085938 C 220.347656 150.085938 220.613281 150.351562 220.613281 150.679688 C 220.613281 151.007812 220.347656 151.277344 220.019531 151.277344 L 218.941406 151.277344 C 218.613281 151.277344 218.347656 151.007812 218.347656 150.679688 C 218.347656 150.351562 218.613281 150.085938 218.941406 150.085938 Z M 218.941406 150.085938 "/>
<path style=" stroke:none;fill-rule:nonzero;fill:rgb(100%,100%,100%);fill-opacity:1;" d="M 206.445312 150.183594 L 213.160156 150.183594 C 213.488281 150.183594 213.753906 150.453125 213.753906 150.78125 C 213.753906 151.109375 213.488281 151.375 213.160156 151.375 L 206.445312 151.375 C 206.117188 151.375 205.851562 151.109375 205.851562 150.78125 C 205.851562 150.453125 206.117188 150.183594 206.445312 150.183594 Z M 206.445312 150.183594 "/>
<path style=" stroke:none;fill-rule:nonzero;fill:rgb(100%,100%,100%);fill-opacity:1;" d="M 206.378906 147.402344 L 207.457031 147.402344 C 207.785156 147.402344 208.050781 147.667969 208.050781 147.996094 C 208.050781 148.324219 207.785156 148.589844 207.457031 148.589844 L 206.378906 148.589844 C 206.050781 148.589844 205.785156 148.324219 205.785156 147.996094 C 205.785156 147.667969 206.050781 147.402344 206.378906 147.402344 Z M 206.378906 147.402344 "/>
<path style=" stroke:none;fill-rule:nonzero;fill:rgb(100%,100%,100%);fill-opacity:1;" d="M 218.734375 147.402344 L 219.816406 147.402344 C 220.144531 147.402344 220.410156 147.667969 220.410156 147.996094 C 220.410156 148.324219 220.144531 148.589844 219.816406 148.589844 L 218.734375 148.589844 C 218.40625 148.589844 218.140625 148.324219 218.140625 147.996094 C 218.140625 147.667969 218.40625 147.402344 218.734375 147.402344 Z M 218.734375 147.402344 "/>
<path style=" stroke:none;fill-rule:nonzero;fill:rgb(100%,100%,100%);fill-opacity:1;" d="M 222.234375 147.402344 L 223.316406 147.402344 C 223.644531 147.402344 223.910156 147.667969 223.910156 147.996094 C 223.910156 148.324219 223.644531 148.589844 223.316406 148.589844 L 222.234375 148.589844 C 221.910156 148.589844 221.644531 148.324219 221.644531 147.996094 C 221.644531 147.667969 221.910156 147.402344 222.234375 147.402344 Z M 222.234375 147.402344 "/>
<path style=" stroke:none;fill-rule:nonzero;fill:rgb(100%,100%,100%);fill-opacity:1;" d="M 209.738281 147.5 L 216.453125 147.5 C 216.78125 147.5 217.046875 147.765625 217.046875 148.09375 C 217.046875 148.421875 216.78125 148.691406 216.453125 148.691406 L 209.738281 148.691406 C 209.410156 148.691406 209.144531 148.421875 209.144531 148.09375 C 209.144531 147.765625 209.410156 147.5 209.738281 147.5 Z M 209.738281 147.5 "/>
<path style=" stroke:none;fill-rule:nonzero;fill:rgb(100%,71.372549%,71.372549%);fill-opacity:1;" d="M 191.828125 186.933594 L 186.757812 178.890625 L 202.679688 166.160156 L 209.25 158.855469 C 210.984375 156.925781 213.617188 156.066406 216.152344 156.605469 C 218.691406 157.140625 220.75 158.988281 221.566406 161.457031 C 222.796875 165.195312 220.851562 169.242188 217.167969 170.601562 L 206.777344 174.441406 Z M 191.828125 186.933594 "/>
<path style=" stroke:none;fill-rule:nonzero;fill:rgb(18.431373%,18.039216%,25.490196%);fill-opacity:1;" d="M 72.828125 128.621094 L 72.828125 167.707031 L 100.125 167.707031 L 100.125 128.621094 C 100.125 128.042969 99.75 127.53125 99.203125 127.363281 C 99.074219 127.320312 98.945312 127.300781 98.8125 127.300781 L 74.144531 127.300781 C 73.417969 127.300781 72.828125 127.890625 72.828125 128.621094 Z M 83.480469 142.050781 C 83.496094 140.445312 84.796875 139.15625 86.394531 139.15625 C 87.992188 139.15625 89.292969 140.445312 89.308594 142.050781 L 89.308594 146.585938 C 89.300781 148.195312 88 149.496094 86.394531 149.496094 C 84.792969 149.496094 83.488281 148.195312 83.480469 146.585938 Z M 83.480469 142.050781 "/>
<path style=" stroke:none;fill-rule:nonzero;fill:rgb(24.705882%,23.921569%,33.72549%);fill-opacity:1;" d="M 72.742188 166.457031 L 72.742188 170.226562 C 72.746094 170.632812 73.070312 170.964844 73.476562 170.964844 L 99.476562 170.964844 C 99.882812 170.964844 100.207031 170.632812 100.207031 170.226562 L 100.207031 166.457031 Z M 72.742188 166.457031 "/>
<path style=" stroke:none;fill-rule:nonzero;fill:rgb(24.705882%,23.921569%,33.72549%);fill-opacity:1;" d="M 29.886719 69.730469 L 29.886719 141.097656 C 29.886719 142.992188 31.417969 144.527344 33.304688 144.527344 L 138.734375 144.527344 C 140.621094 144.527344 142.152344 142.992188 142.152344 141.097656 L 142.152344 69.730469 C 142.148438 67.839844 140.617188 66.304688 138.734375 66.304688 L 33.304688 66.304688 C 31.417969 66.304688 29.890625 67.839844 29.886719 69.730469 Z M 29.886719 69.730469 "/>
<path style=" stroke:none;fill-rule:nonzero;fill:rgb(100%,100%,100%);fill-opacity:1;" d="M 32.359375 70.617188 L 32.359375 140.21875 C 32.359375 141.230469 33.175781 142.050781 34.183594 142.050781 L 137.855469 142.050781 C 138.863281 142.050781 139.679688 141.230469 139.683594 140.21875 L 139.683594 70.617188 C 139.683594 69.605469 138.863281 68.78125 137.855469 68.78125 L 34.183594 68.78125 C 33.175781 68.78125 32.359375 69.605469 32.359375 70.617188 Z M 32.359375 70.617188 "/>
<path style=" stroke:none;fill-rule:nonzero;fill:rgb(18.431373%,18.039216%,25.490196%);fill-opacity:1;" d="M 51.597656 170.710938 C 51.8125 170.980469 52.136719 171.136719 52.480469 171.132812 L 114.15625 171.132812 C 114.496094 171.132812 114.820312 170.980469 115.035156 170.710938 C 115.25 170.445312 115.335938 170.097656 115.265625 169.761719 L 114.308594 165.199219 C 114.226562 164.820312 113.960938 164.511719 113.601562 164.375 C 113.472656 164.324219 113.335938 164.296875 113.199219 164.296875 L 53.433594 164.296875 C 53.292969 164.296875 53.15625 164.324219 53.03125 164.375 C 52.667969 164.511719 52.402344 164.820312 52.324219 165.199219 L 51.367188 169.761719 C 51.296875 170.097656 51.382812 170.445312 51.597656 170.710938 Z M 51.597656 170.710938 "/>
<path style=" stroke:none;fill-rule:nonzero;fill:rgb(24.705882%,23.921569%,33.72549%);fill-opacity:1;" d="M 134.492188 78.367188 L 37.488281 78.367188 C 37.277344 78.363281 37.109375 78.191406 37.109375 77.980469 C 37.109375 77.769531 37.277344 77.597656 37.488281 77.59375 L 134.492188 77.59375 C 134.699219 77.597656 134.867188 77.769531 134.867188 77.980469 C 134.867188 78.191406 134.699219 78.363281 134.492188 78.367188 Z M 134.492188 78.367188 "/>
<path style=" stroke:none;fill-rule:nonzero;fill:rgb(24.705882%,23.921569%,33.72549%);fill-opacity:1;" d="M 46.351562 73.300781 C 46.351562 72.019531 45.339844 70.980469 44.089844 70.980469 C 42.84375 70.980469 41.828125 72.019531 41.828125 73.300781 C 41.828125 74.582031 42.84375 75.617188 44.089844 75.617188 C 45.339844 75.617188 46.351562 74.582031 46.351562 73.300781 Z M 46.351562 73.300781 "/>
<path style=" stroke:none;fill-rule:nonzero;fill:rgb(24.705882%,23.921569%,33.72549%);fill-opacity:1;" d="M 54.160156 73.300781 C 54.160156 72.019531 53.148438 70.980469 51.898438 70.980469 C 50.652344 70.980469 49.640625 72.019531 49.640625 73.300781 C 49.640625 74.582031 50.652344 75.617188 51.898438 75.617188 C 53.148438 75.617188 54.160156 74.582031 54.160156 73.300781 Z M 54.160156 73.300781 "/>
<path style=" stroke:none;fill-rule:nonzero;fill:rgb(24.705882%,23.921569%,33.72549%);fill-opacity:1;" d="M 61.972656 73.300781 C 61.972656 72.019531 60.957031 70.980469 59.710938 70.980469 C 58.460938 70.980469 57.449219 72.019531 57.449219 73.300781 C 57.449219 74.582031 58.460938 75.617188 59.710938 75.617188 C 60.957031 75.617188 61.972656 74.582031 61.972656 73.300781 Z M 61.972656 73.300781 "/>
<path style=" stroke:none;fill-rule:nonzero;fill:rgb(24.705882%,23.921569%,33.72549%);fill-opacity:1;" d="M 129.789062 71.554688 L 124.242188 71.554688 C 124.011719 71.5625 123.832031 71.746094 123.832031 71.976562 C 123.832031 72.207031 124.011719 72.390625 124.242188 72.398438 L 129.789062 72.398438 C 130.019531 72.394531 130.203125 72.207031 130.203125 71.976562 C 130.203125 71.746094 130.019531 71.558594 129.789062 71.554688 Z M 129.789062 71.554688 "/>
<path style=" stroke:none;fill-rule:nonzero;fill:rgb(24.705882%,23.921569%,33.72549%);fill-opacity:1;" d="M 129.789062 73.136719 L 124.242188 73.136719 C 124.011719 73.140625 123.832031 73.328125 123.832031 73.558594 C 123.832031 73.789062 124.011719 73.972656 124.242188 73.980469 L 129.789062 73.980469 C 130.019531 73.976562 130.203125 73.789062 130.203125 73.558594 C 130.203125 73.328125 130.019531 73.140625 129.789062 73.136719 Z M 129.789062 73.136719 "/>
<path style=" stroke:none;fill-rule:nonzero;fill:rgb(24.705882%,23.921569%,33.72549%);fill-opacity:1;" d="M 129.789062 74.71875 L 124.242188 74.71875 C 124.011719 74.722656 123.832031 74.910156 123.832031 75.140625 C 123.832031 75.367188 124.011719 75.554688 124.242188 75.5625 L 129.789062 75.5625 C 130.019531 75.558594 130.203125 75.371094 130.203125 75.140625 C 130.203125 74.910156 130.019531 74.722656 129.789062 74.71875 Z M 129.789062 74.71875 "/>
<path style=" stroke:none;fill-rule:nonzero;fill:rgb(18.431373%,18.039216%,25.490196%);fill-opacity:1;" d="M 263.511719 168.113281 C 263.855469 169.113281 264.804688 169.78125 265.863281 169.761719 L 275.925781 169.503906 C 276.992188 169.480469 277.917969 168.757812 278.199219 167.726562 L 279.625 152.449219 C 280.128906 152.679688 280.679688 152.792969 281.234375 152.78125 C 283.261719 152.730469 284.863281 151.042969 284.8125 149.007812 C 284.761719 146.976562 283.078125 145.367188 281.050781 145.417969 C 280.828125 145.417969 280.605469 145.441406 280.390625 145.488281 C 279.914062 144.972656 279.242188 144.679688 278.539062 144.6875 L 263.054688 145.089844 C 262.929688 145.09375 262.800781 145.109375 262.675781 145.136719 C 261.988281 145.265625 261.390625 145.683594 261.035156 146.289062 C 260.679688 146.890625 260.601562 147.621094 260.824219 148.285156 Z M 279.917969 151.414062 L 280.929688 147.773438 C 281.042969 147.351562 281.046875 146.90625 280.9375 146.484375 C 280.988281 146.484375 281.03125 146.460938 281.078125 146.460938 C 282.527344 146.433594 283.722656 147.582031 283.757812 149.035156 C 283.792969 150.484375 282.648438 151.691406 281.203125 151.726562 C 280.753906 151.742188 280.308594 151.632812 279.917969 151.414062 Z M 279.917969 151.414062 "/>
<path style=" stroke:none;fill-rule:nonzero;fill:rgb(24.705882%,23.921569%,33.72549%);fill-opacity:1;" d="M 262.675781 145.136719 C 263.003906 147.027344 266.710938 148.359375 271.171875 148.125 C 275.273438 147.9375 278.625 146.492188 279.238281 144.78125 C 279.011719 144.714844 278.777344 144.683594 278.539062 144.6875 L 263.054688 145.089844 C 262.929688 145.09375 262.800781 145.109375 262.675781 145.136719 Z M 262.675781 145.136719 "/>
<path style=" stroke:none;fill-rule:nonzero;fill:rgb(0%,0%,54.509804%);fill-opacity:1;" d="M 271.988281 159.714844 C 272.007812 159.710938 272.027344 159.703125 272.046875 159.691406 L 274.230469 158.257812 C 274.285156 158.222656 274.316406 158.160156 274.316406 158.097656 C 274.316406 158.03125 274.285156 157.972656 274.230469 157.9375 L 271.960938 156.445312 C 271.902344 156.40625 271.832031 156.402344 271.769531 156.433594 C 271.710938 156.464844 271.667969 156.523438 271.667969 156.59375 C 271.664062 156.660156 271.695312 156.726562 271.753906 156.761719 L 273.78125 158.097656 L 271.839844 159.371094 C 271.761719 159.421875 271.730469 159.523438 271.769531 159.609375 C 271.804688 159.695312 271.898438 159.738281 271.988281 159.714844 Z M 271.988281 159.714844 "/>
<path style=" stroke:none;fill-rule:nonzero;fill:rgb(0%,0%,54.509804%);fill-opacity:1;" d="M 268.535156 159.875 C 268.613281 159.855469 268.667969 159.792969 268.679688 159.71875 C 268.6875 159.640625 268.652344 159.566406 268.585938 159.527344 L 266.570312 158.367188 L 268.515625 156.917969 C 268.601562 156.855469 268.617188 156.734375 268.554688 156.648438 C 268.492188 156.566406 268.375 156.546875 268.289062 156.609375 L 266.109375 158.234375 C 266.058594 158.273438 266.03125 158.335938 266.035156 158.398438 C 266.039062 158.464844 266.074219 158.523438 266.128906 158.554688 L 268.394531 159.855469 C 268.4375 159.882812 268.488281 159.886719 268.535156 159.875 Z M 268.535156 159.875 "/>
<path style=" stroke:none;fill-rule:nonzero;fill:rgb(0%,0%,54.509804%);fill-opacity:1;" d="M 271.773438 160.972656 C 271.789062 160.96875 271.808594 160.960938 271.824219 160.953125 C 271.867188 160.925781 271.898438 160.882812 271.910156 160.835938 C 271.921875 160.785156 271.914062 160.734375 271.886719 160.691406 L 268.789062 155.582031 C 268.734375 155.492188 268.617188 155.460938 268.527344 155.515625 C 268.4375 155.570312 268.410156 155.6875 268.464844 155.777344 L 271.5625 160.890625 C 271.605469 160.960938 271.691406 160.996094 271.773438 160.972656 Z M 271.773438 160.972656 "/>
<path style=" stroke:none;fill-rule:nonzero;fill:rgb(0%,0%,54.509804%);fill-opacity:1;" d="M 80.789062 99.40625 L 97.578125 99.40625 C 98.265625 99.40625 98.820312 99.964844 98.820312 100.648438 L 98.820312 102.296875 C 98.820312 102.984375 98.265625 103.539062 97.578125 103.539062 L 80.789062 103.539062 C 80.105469 103.539062 79.550781 102.984375 79.550781 102.296875 L 79.550781 100.648438 C 79.550781 99.964844 80.105469 99.40625 80.789062 99.40625 Z M 80.789062 99.40625 "/>
<path style=" stroke:none;fill-rule:nonzero;fill:rgb(90.196078%,90.196078%,90.196078%);fill-opacity:1;" d="M 71.003906 107.671875 L 107.367188 107.671875 C 108.050781 107.671875 108.605469 108.230469 108.605469 108.917969 L 108.605469 110.5625 C 108.605469 111.25 108.050781 111.808594 107.367188 111.808594 L 71.003906 111.808594 C 70.320312 111.808594 69.765625 111.25 69.765625 110.5625 L 69.765625 108.917969 C 69.765625 108.230469 70.320312 107.671875 71.003906 107.671875 Z M 71.003906 107.671875 "/>
<path style=" stroke:none;fill-rule:nonzero;fill:rgb(90.196078%,90.196078%,90.196078%);fill-opacity:1;" d="M 71.003906 115.941406 L 107.367188 115.941406 C 108.050781 115.941406 108.605469 116.496094 108.605469 117.183594 L 108.605469 118.828125 C 108.605469 119.515625 108.050781 120.074219 107.367188 120.074219 L 71.003906 120.074219 C 70.320312 120.074219 69.765625 119.515625 69.765625 118.828125 L 69.765625 117.183594 C 69.765625 116.496094 70.320312 115.941406 71.003906 115.941406 Z M 71.003906 115.941406 "/>
<path style=" stroke:none;fill-rule:nonzero;fill:rgb(24.705882%,23.921569%,33.72549%);fill-opacity:1;" d="M 110.449219 143.625 L 110.53125 143.882812 L 110.535156 143.894531 L 113.015625 151.453125 L 115.867188 160.164062 L 121.230469 176.539062 L 121.28125 179.082031 L 121.28125 179.089844 L 121.683594 199.550781 L 120.578125 202.324219 L 121.820312 206.875 C 121.820312 206.875 121.25 200 118.179688 203.945312 C 116.441406 206.191406 114.410156 208.484375 112.742188 210.636719 C 115.171875 211.625 117.644531 212.515625 120.152344 213.316406 C 120.695312 213.488281 121.238281 213.65625 121.785156 213.820312 C 121.902344 213.855469 122.019531 213.890625 122.136719 213.925781 C 130.457031 216.390625 139.054688 217.777344 147.726562 218.050781 C 148.175781 218.0625 148.617188 218.070312 149.046875 218.082031 C 149.199219 218.085938 149.347656 218.089844 149.492188 218.089844 C 149.980469 218.09375 150.460938 218.097656 150.945312 218.097656 C 151.925781 218.097656 152.898438 218.082031 153.871094 218.054688 C 161.054688 217.851562 168.199219 216.882812 175.179688 215.164062 C 175.132812 212.273438 175.003906 208.894531 174.816406 205.285156 C 174.730469 203.515625 172.785156 201.597656 172.667969 199.746094 C 172.585938 198.355469 174.332031 197.046875 174.242188 195.632812 C 173.652344 186.933594 172.914062 190.273438 172.367188 184.113281 C 172.3125 183.507812 172.261719 182.929688 172.210938 182.378906 C 171.863281 178.421875 171.617188 175.949219 171.617188 175.949219 L 173.949219 161.207031 L 177.613281 138.058594 L 177.332031 137.59375 L 177.015625 137.4375 L 157.699219 127.84375 L 156.648438 125.148438 C 156.023438 123.5625 154.5 122.511719 152.796875 122.503906 L 140.070312 122.449219 C 138.730469 122.445312 137.472656 123.085938 136.6875 124.175781 L 133.242188 128.960938 Z M 110.449219 143.625 "/>
<path style=" stroke:none;fill-rule:nonzero;fill:rgb(24.705882%,23.921569%,33.72549%);fill-opacity:1;" d="M 124.164062 172.894531 L 121.28125 179.082031 L 119.316406 183.308594 L 115.929688 201.085938 L 114.234375 202.890625 L 112.785156 196.503906 L 97.589844 199.886719 C 97.089844 197.109375 97.453125 199.980469 97.148438 196.933594 C 97.234375 196.847656 97.324219 196.761719 97.414062 196.671875 C 97.660156 196.449219 97.863281 196.234375 97.859375 196.03125 C 97.683594 185.515625 98.203125 167.625 102.546875 156.789062 C 103.226562 155.019531 104.125 153.339844 105.21875 151.792969 C 105.304688 151.675781 105.386719 151.558594 105.46875 151.441406 C 107.46875 148.628906 108.734375 145.859375 110.53125 143.886719 L 110.53125 143.882812 C 110.542969 143.875 110.550781 143.863281 110.5625 143.851562 C 110.566406 143.851562 110.574219 143.847656 110.578125 143.839844 L 122.902344 137.285156 L 123.433594 152.1875 L 123.808594 162.902344 Z M 124.164062 172.894531 "/>
<path style=" stroke:none;fill-rule:nonzero;fill:rgb(24.705882%,23.921569%,33.72549%);fill-opacity:1;" d="M 168.609375 174.652344 L 172.210938 182.378906 L 173.46875 185.070312 L 176.851562 202.847656 L 178.539062 204.648438 L 179.996094 198.261719 L 180.679688 198.121094 L 193.011719 195.558594 L 196.605469 207.011719 C 198.277344 204.21875 197.757812 200.632812 195.367188 198.433594 C 195.121094 198.210938 194.917969 197.992188 194.921875 197.789062 C 195.125 185.421875 194.371094 162.84375 187.5625 153.554688 C 185.402344 150.605469 184.105469 147.667969 182.214844 145.613281 C 182.210938 145.609375 182.210938 145.601562 182.203125 145.601562 L 177.609375 138.058594 L 177.332031 137.59375 L 177.015625 137.4375 Z M 168.609375 174.652344 "/>
<path style=" stroke:none;fill-rule:nonzero;fill:rgb(100%,71.372549%,71.372549%);fill-opacity:1;" d="M 163.730469 101.835938 C 163.730469 111.214844 156.152344 118.816406 146.800781 118.816406 C 137.453125 118.816406 129.871094 111.214844 129.871094 101.835938 C 129.871094 92.457031 137.453125 84.851562 146.800781 84.851562 C 156.152344 84.851562 163.730469 92.457031 163.730469 101.835938 Z M 163.730469 101.835938 "/>
<path style=" stroke:none;fill-rule:nonzero;fill:rgb(18.431373%,18.039216%,25.490196%);fill-opacity:1;" d="M 169.683594 89.972656 C 169.417969 89.6875 169.046875 89.527344 168.660156 89.519531 L 168.914062 88.8125 C 169.085938 88.355469 168.996094 87.84375 168.683594 87.472656 C 168.371094 87.101562 167.886719 86.929688 167.410156 87.019531 L 166.484375 87.199219 L 166.570312 86.578125 C 166.640625 86.105469 166.453125 85.636719 166.085938 85.335938 C 165.71875 85.039062 165.21875 84.957031 164.773438 85.121094 C 164.371094 85.28125 163.917969 85.25 163.542969 85.035156 C 163.164062 84.828125 162.898438 84.460938 162.8125 84.039062 L 162.492188 82.476562 L 162.457031 82.394531 C 160.882812 79.761719 157.859375 77.851562 154.160156 77.148438 C 150.863281 76.519531 147.488281 76.839844 144.230469 77.140625 C 142.941406 77.261719 141.480469 77.398438 140.265625 78.148438 C 139.230469 78.789062 138.359375 80.066406 138.535156 81.359375 C 135.324219 80.371094 131.882812 82.34375 130.179688 84.828125 C 128.15625 87.785156 127.828125 91.488281 127.773438 94.386719 C 127.628906 101.238281 129.039062 106.84375 131.953125 111.054688 C 132.164062 111.359375 132.21875 111.996094 132.640625 112.207031 L 132.550781 112.066406 C 133.023438 112.304688 133.503906 112.683594 133.324219 113.09375 C 132.8125 114.265625 136.21875 116.859375 138.621094 117.71875 C 143 119.285156 148.824219 119.152344 152.921875 118.585938 L 153.066406 117.617188 C 154.542969 117.414062 155.582031 117.027344 155.875 116.425781 C 156.394531 115.984375 156.832031 115.589844 157.21875 115.222656 L 157.222656 115.21875 C 157.226562 115.210938 157.242188 115.199219 157.25 115.191406 C 159.101562 113.414062 159.53125 112.398438 159.722656 110.855469 C 159.910156 109.339844 159.582031 107.804688 159.242188 106.421875 C 166.363281 107.527344 156.4375 98.816406 163.070312 97.128906 C 163.148438 97.105469 163.226562 97.089844 163.304688 97.074219 C 163.496094 97.027344 163.691406 96.980469 163.878906 96.929688 C 164.773438 96.683594 165.632812 96.316406 166.429688 95.835938 C 168.285156 94.703125 168.894531 93.203125 169.851562 91.507812 C 170.136719 91.015625 170.066406 90.394531 169.683594 89.972656 Z M 169.683594 89.972656 "/>
<path style=" stroke:none;fill-rule:nonzero;fill:rgb(18.431373%,18.039216%,25.490196%);fill-opacity:1;" d="M 206.675781 175.863281 C 206.671875 176.527344 206.664062 177.464844 206.632812 178.617188 C 206.628906 178.777344 206.625 178.941406 206.621094 179.109375 C 206.574219 181.230469 206.523438 183.011719 206.445312 184.988281 C 206.441406 185.128906 206.4375 185.261719 206.429688 185.398438 C 206.320312 188.15625 206.15625 191.371094 205.867188 196.457031 C 205.332031 205.855469 204.394531 197.75 203.457031 201.046875 C 203.410156 201.210938 203.363281 201.40625 203.316406 201.632812 C 203.175781 202.464844 202.933594 203.273438 202.601562 204.046875 C 202.105469 204.34375 201.59375 204.628906 201.085938 204.914062 C 199.648438 205.71875 198.183594 206.492188 196.710938 207.226562 C 195.882812 207.640625 195.050781 208.042969 194.214844 208.433594 C 194.082031 208.492188 193.953125 208.554688 193.824219 208.613281 C 189.542969 210.597656 185.132812 212.285156 180.621094 213.664062 C 179.738281 213.933594 178.863281 214.191406 177.972656 214.429688 C 177.046875 214.691406 176.117188 214.933594 175.179688 215.164062 C 168.199219 216.882812 161.054688 217.851562 153.871094 218.054688 C 152.902344 218.085938 151.925781 218.097656 150.945312 218.097656 C 150.457031 218.097656 149.980469 218.09375 149.492188 218.089844 C 149.34375 218.089844 149.195312 218.085938 149.046875 218.082031 C 148.621094 218.070312 148.175781 218.0625 147.726562 218.050781 C 139.054688 217.78125 130.457031 216.394531 122.140625 213.925781 L 121.785156 213.820312 C 121.238281 213.652344 120.695312 213.488281 120.152344 213.316406 C 117.644531 212.519531 115.171875 211.625 112.738281 210.640625 C 110.882812 209.886719 109.046875 209.082031 107.230469 208.222656 C 107.214844 208.21875 107.199219 208.210938 107.183594 208.199219 C 106.804688 208.023438 106.421875 207.84375 106.042969 207.65625 C 105.992188 207.628906 105.9375 207.601562 105.886719 207.574219 C 104.46875 206.882812 103.066406 206.15625 101.679688 205.394531 C 100.511719 202.707031 98.871094 202.195312 97.855469 199.832031 C 97.558594 199.128906 97.34375 198.394531 97.214844 197.644531 C 97.214844 197.636719 97.210938 197.628906 97.210938 197.617188 C 97.316406 199.035156 96.761719 195.101562 97.207031 197.601562 C 97.203125 197.554688 97.199219 197.507812 97.195312 197.449219 C 97.183594 197.3125 97.171875 197.144531 97.148438 196.933594 C 95.84375 184.171875 95.929688 169.574219 95.363281 157.546875 C 95.324219 156.769531 95.285156 156.023438 95.242188 155.3125 C 95.234375 155.074219 95.21875 154.84375 95.203125 154.613281 C 95.230469 154.546875 95.257812 154.472656 95.292969 154.40625 C 95.300781 154.386719 95.308594 154.367188 95.320312 154.347656 C 95.332031 154.324219 95.34375 154.300781 95.359375 154.28125 C 95.367188 154.269531 95.375 154.253906 95.382812 154.242188 C 95.390625 154.226562 95.394531 154.214844 95.402344 154.203125 C 95.4375 154.148438 95.476562 154.09375 95.515625 154.039062 C 95.535156 154.015625 95.550781 153.996094 95.570312 153.976562 C 95.582031 153.957031 95.597656 153.941406 95.617188 153.925781 C 95.628906 153.90625 95.640625 153.890625 95.65625 153.875 C 95.671875 153.859375 95.6875 153.839844 95.707031 153.820312 C 95.714844 153.808594 95.726562 153.800781 95.738281 153.792969 C 95.769531 153.757812 95.800781 153.726562 95.835938 153.695312 C 95.972656 153.570312 96.117188 153.457031 96.269531 153.351562 C 96.324219 153.320312 96.378906 153.285156 96.433594 153.246094 C 96.816406 153.015625 97.21875 152.824219 97.636719 152.667969 C 97.78125 152.613281 97.925781 152.566406 98.082031 152.511719 C 98.140625 152.496094 98.191406 152.476562 98.25 152.457031 C 98.332031 152.429688 98.417969 152.40625 98.503906 152.386719 C 98.9375 152.253906 99.402344 152.144531 99.910156 152.042969 C 99.96875 152.03125 100.035156 152.019531 100.097656 152.003906 C 100.191406 151.984375 100.285156 151.96875 100.378906 151.953125 C 100.507812 151.933594 100.644531 151.910156 100.777344 151.886719 C 101.902344 151.707031 103.183594 151.574219 104.597656 151.484375 C 104.730469 151.476562 104.863281 151.46875 104.996094 151.464844 C 105.152344 151.457031 105.308594 151.449219 105.46875 151.441406 C 105.601562 151.433594 105.738281 151.429688 105.875 151.425781 C 106.007812 151.417969 106.144531 151.414062 106.285156 151.410156 C 106.667969 151.398438 107.0625 151.386719 107.464844 151.378906 C 108.613281 151.355469 109.820312 151.363281 111.089844 151.390625 C 111.679688 151.40625 112.28125 151.421875 112.894531 151.449219 C 112.9375 151.449219 112.976562 151.453125 113.011719 151.453125 C 113.546875 151.46875 114.089844 151.492188 114.644531 151.523438 C 115.03125 151.542969 115.421875 151.5625 115.8125 151.585938 C 116.179688 151.609375 116.554688 151.628906 116.929688 151.65625 C 117.222656 151.671875 117.515625 151.695312 117.8125 151.714844 C 118.0625 151.734375 118.3125 151.753906 118.5625 151.769531 L 118.90625 151.789062 C 119.089844 151.804688 119.277344 151.816406 119.46875 151.835938 C 119.886719 151.871094 120.304688 151.90625 120.730469 151.9375 C 121.152344 151.976562 121.582031 152.015625 122.007812 152.054688 C 122.4375 152.09375 122.871094 152.132812 123.304688 152.175781 C 123.351562 152.179688 123.390625 152.183594 123.433594 152.1875 C 123.828125 152.230469 124.222656 152.265625 124.625 152.308594 C 124.714844 152.316406 124.808594 152.324219 124.902344 152.335938 C 125.28125 152.375 125.667969 152.417969 126.050781 152.460938 C 126.171875 152.472656 126.289062 152.484375 126.40625 152.496094 C 126.707031 152.53125 127.003906 152.558594 127.304688 152.59375 C 127.703125 152.640625 128.109375 152.683594 128.507812 152.734375 C 128.8125 152.769531 129.121094 152.804688 129.429688 152.84375 C 129.910156 152.898438 130.402344 152.960938 130.890625 153.027344 C 131.078125 153.046875 131.265625 153.070312 131.449219 153.097656 C 132.847656 153.273438 134.261719 153.46875 135.699219 153.667969 C 137.875 153.976562 140.085938 154.3125 142.3125 154.675781 C 144.542969 155.039062 146.785156 155.421875 149.042969 155.824219 C 149.609375 155.925781 150.179688 156.027344 150.753906 156.136719 C 151.011719 156.183594 151.269531 156.234375 151.53125 156.285156 C 151.96875 156.363281 152.410156 156.449219 152.851562 156.53125 C 153.292969 156.617188 153.734375 156.699219 154.175781 156.789062 C 154.699219 156.890625 155.226562 156.992188 155.75 157.097656 C 159.203125 157.78125 162.636719 158.515625 165.988281 159.28125 C 166.539062 159.40625 167.089844 159.535156 167.636719 159.660156 C 168.734375 159.917969 169.816406 160.175781 170.890625 160.4375 C 171.1875 160.507812 171.480469 160.578125 171.773438 160.652344 C 172.5 160.835938 173.230469 161.019531 173.949219 161.203125 L 174.074219 161.238281 C 174.601562 161.367188 175.117188 161.5 175.636719 161.640625 C 176.855469 161.960938 178.054688 162.28125 179.234375 162.609375 C 180.015625 162.828125 180.789062 163.046875 181.554688 163.269531 C 182.699219 163.601562 183.820312 163.9375 184.910156 164.277344 C 185.179688 164.359375 185.449219 164.445312 185.714844 164.523438 C 186.511719 164.773438 187.300781 165.023438 188.0625 165.273438 C 188.671875 165.472656 189.261719 165.675781 189.847656 165.875 C 190.433594 166.078125 191.007812 166.28125 191.570312 166.484375 C 191.929688 166.613281 192.289062 166.75 192.644531 166.878906 C 193.15625 167.070312 193.664062 167.261719 194.15625 167.449219 C 194.308594 167.507812 194.457031 167.570312 194.605469 167.625 C 194.699219 167.667969 194.792969 167.703125 194.882812 167.742188 C 195.0625 167.8125 195.242188 167.882812 195.417969 167.953125 C 195.597656 168.023438 195.773438 168.09375 195.945312 168.171875 C 196.117188 168.238281 196.292969 168.3125 196.460938 168.382812 C 196.628906 168.453125 196.796875 168.527344 196.964844 168.601562 C 197.105469 168.660156 197.242188 168.71875 197.375 168.78125 C 197.644531 168.898438 197.914062 169.015625 198.175781 169.140625 C 198.304688 169.199219 198.433594 169.257812 198.5625 169.320312 L 198.859375 169.457031 C 198.902344 169.480469 198.945312 169.496094 198.984375 169.515625 C 199.082031 169.5625 199.179688 169.613281 199.273438 169.65625 C 199.496094 169.761719 199.710938 169.871094 199.925781 169.972656 C 200.210938 170.117188 200.488281 170.261719 200.753906 170.40625 C 201.023438 170.550781 201.285156 170.695312 201.535156 170.835938 C 201.578125 170.859375 201.613281 170.882812 201.65625 170.902344 C 201.714844 170.933594 201.769531 170.96875 201.828125 171 C 202.019531 171.109375 202.207031 171.222656 202.394531 171.335938 C 202.757812 171.558594 203.105469 171.78125 203.425781 172 C 203.5 172.050781 203.566406 172.101562 203.640625 172.144531 C 203.878906 172.316406 204.105469 172.484375 204.320312 172.65625 C 204.320312 172.660156 204.320312 172.660156 204.324219 172.660156 C 204.394531 172.714844 204.464844 172.769531 204.53125 172.824219 C 204.589844 172.878906 204.652344 172.921875 204.707031 172.976562 C 204.90625 173.148438 205.085938 173.3125 205.253906 173.480469 C 205.3125 173.53125 205.363281 173.585938 205.414062 173.644531 C 205.4375 173.664062 205.457031 173.683594 205.476562 173.707031 C 205.550781 173.78125 205.621094 173.859375 205.683594 173.933594 C 205.695312 173.945312 205.703125 173.957031 205.710938 173.96875 C 205.800781 174.074219 205.886719 174.179688 205.964844 174.289062 C 206.003906 174.339844 206.042969 174.394531 206.078125 174.449219 C 206.125 174.511719 206.171875 174.582031 206.207031 174.644531 C 206.242188 174.699219 206.273438 174.757812 206.304688 174.808594 C 206.382812 174.949219 206.453125 175.09375 206.507812 175.242188 C 206.550781 175.34375 206.585938 175.445312 206.609375 175.554688 C 206.640625 175.65625 206.660156 175.757812 206.675781 175.863281 Z M 206.675781 175.863281 "/>
<use xlink:href="#surface5" mask="url(#mask0)"/>
</g>
</svg>
