<?xml version="1.0" encoding="UTF-8"?>
<svg xmlns="http://www.w3.org/2000/svg" xmlns:xlink="http://www.w3.org/1999/xlink" width="px" height="200px" viewBox="0 0 335 200" version="1.1">
<g id="surface1">
<path style=" stroke:none;fill-rule:nonzero;fill:rgb(94.117647%,94.117647%,94.117647%);fill-opacity:1;" d="M 19.730469 153.566406 C 9.875 149.972656 1.320312 141.375 0.234375 130.917969 C 9.800781 137.140625 21.257812 139.769531 32.570312 138.339844 C 36.933594 137.773438 41.726562 136.6875 45.457031 139.019531 C 47.78125 140.472656 49.222656 143.046875 49.886719 145.710938 C 50.546875 148.371094 50.515625 151.152344 50.484375 153.894531 L 50.789062 154.507812 C 40.496094 156.507812 29.585938 157.160156 19.730469 153.566406 Z M 19.730469 153.566406 "/>
<path style=" stroke:none;fill-rule:nonzero;fill:rgb(100%,100%,100%);fill-opacity:1;" d="M 0.449219 130.867188 C 5.46875 137.964844 12.59375 143.292969 20.8125 146.101562 C 22.570312 146.738281 24.417969 147.089844 26.285156 147.148438 C 28.109375 147.148438 29.894531 146.65625 31.464844 145.730469 C 32.945312 144.894531 34.363281 143.867188 36.019531 143.40625 C 37.742188 142.953125 39.574219 143.261719 41.058594 144.25 C 42.914062 145.417969 44.242188 147.1875 45.480469 148.960938 C 46.859375 150.933594 48.253906 153.003906 50.402344 154.199219 C 50.664062 154.34375 50.421875 154.738281 50.164062 154.59375 C 46.425781 152.511719 45.042969 148.097656 41.863281 145.414062 C 40.378906 144.160156 38.511719 143.347656 36.550781 143.753906 C 34.835938 144.105469 33.371094 145.164062 31.882812 146.023438 C 30.363281 146.953125 28.644531 147.492188 26.871094 147.601562 C 25.003906 147.636719 23.148438 147.355469 21.375 146.769531 C 17.367188 145.507812 13.582031 143.621094 10.160156 141.183594 C 6.238281 138.421875 2.816406 135.007812 0.0429688 131.089844 C -0.128906 130.847656 0.277344 130.625 0.449219 130.867188 Z M 0.449219 130.867188 "/>
<path style=" stroke:none;fill-rule:nonzero;fill:rgb(100%,100%,100%);fill-opacity:1;" d="M 18.113281 145.351562 C 16.757812 148.074219 13.632812 149.410156 10.734375 148.507812 C 10.449219 148.417969 10.574219 147.972656 10.859375 148.0625 C 13.558594 148.910156 16.46875 147.65625 17.71875 145.113281 C 17.851562 144.847656 18.246094 145.085938 18.113281 145.351562 Z M 18.113281 145.351562 "/>
<path style=" stroke:none;fill-rule:nonzero;fill:rgb(100%,100%,100%);fill-opacity:1;" d="M 30.769531 146.253906 C 29.84375 143.386719 27.875 140.976562 25.253906 139.503906 C 24.996094 139.355469 25.234375 138.960938 25.496094 139.105469 C 28.21875 140.644531 30.261719 143.15625 31.21875 146.140625 C 31.308594 146.425781 30.859375 146.535156 30.769531 146.253906 Z M 30.769531 146.253906 "/>
<path style=" stroke:none;fill-rule:nonzero;fill:rgb(100%,100%,100%);fill-opacity:1;" d="M 6.761719 138.101562 C 7.492188 137.171875 7.707031 135.9375 7.339844 134.816406 C 7.242188 134.53125 7.691406 134.421875 7.785156 134.703125 C 8.191406 135.945312 7.953125 137.308594 7.15625 138.339844 C 7.085938 138.445312 6.949219 138.480469 6.839844 138.417969 C 6.730469 138.351562 6.695312 138.210938 6.761719 138.101562 Z M 6.761719 138.101562 "/>
<path style=" stroke:none;fill-rule:nonzero;fill:rgb(94.117647%,94.117647%,94.117647%);fill-opacity:1;" d="M 25.109375 105.519531 C 25.171875 105.695312 25.234375 105.871094 25.304688 106.046875 C 26.175781 108.398438 27.238281 110.671875 28.480469 112.847656 C 28.574219 113.019531 28.671875 113.191406 28.769531 113.355469 C 31.8125 118.570312 35.796875 123.171875 40.519531 126.929688 C 42.398438 128.421875 44.390625 129.769531 46.472656 130.960938 C 49.351562 132.605469 52.601562 134.15625 54.707031 136.585938 C 54.929688 136.835938 55.136719 137.101562 55.328125 137.378906 L 51.511719 154.082031 C 51.484375 154.117188 51.457031 154.152344 51.429688 154.183594 L 51.308594 154.859375 C 51.199219 154.804688 51.082031 154.746094 50.972656 154.691406 C 50.90625 154.664062 50.839844 154.628906 50.777344 154.597656 C 50.734375 154.574219 50.691406 154.554688 50.652344 154.535156 C 50.636719 154.527344 50.621094 154.519531 50.613281 154.515625 C 50.570312 154.496094 50.535156 154.476562 50.5 154.460938 C 49.855469 154.136719 49.214844 153.808594 48.574219 153.472656 C 48.574219 153.472656 48.574219 153.472656 48.570312 153.46875 C 43.667969 150.96875 39.078125 147.894531 34.902344 144.3125 C 34.777344 144.203125 34.652344 144.09375 34.527344 143.980469 C 32.691406 142.34375 30.988281 140.558594 29.441406 138.644531 C 28.597656 137.589844 27.804688 136.5 27.074219 135.367188 C 25.179688 132.441406 23.761719 129.234375 22.863281 125.863281 C 21.078125 119.148438 21.453125 111.933594 24.84375 105.972656 C 24.929688 105.820312 25.015625 105.671875 25.109375 105.519531 Z M 25.109375 105.519531 "/>
<path style=" stroke:none;fill-rule:nonzero;fill:rgb(100%,100%,100%);fill-opacity:1;" d="M 25.3125 105.605469 C 25.058594 114.304688 27.546875 122.859375 32.421875 130.058594 C 33.441406 131.628906 34.707031 133.023438 36.160156 134.199219 C 37.617188 135.296875 39.339844 135.984375 41.148438 136.191406 C 42.832031 136.417969 44.582031 136.453125 46.179688 137.082031 C 47.828125 137.761719 49.105469 139.113281 49.699219 140.796875 C 50.480469 142.851562 50.476562 145.066406 50.398438 147.230469 C 50.316406 149.636719 50.1875 152.128906 51.183594 154.382812 C 51.304688 154.65625 50.875 154.828125 50.753906 154.554688 C 49.023438 150.636719 50.570312 146.277344 49.644531 142.214844 C 49.210938 140.320312 48.207031 138.542969 46.398438 137.683594 C 44.816406 136.929688 43.011719 136.890625 41.304688 136.679688 C 39.535156 136.503906 37.835938 135.898438 36.355469 134.914062 C 34.84375 133.816406 33.53125 132.46875 32.46875 130.933594 C 30.027344 127.507812 28.136719 123.71875 26.871094 119.703125 C 25.398438 115.132812 24.714844 110.339844 24.855469 105.539062 C 24.863281 105.242188 25.320312 105.3125 25.3125 105.605469 Z M 25.3125 105.605469 "/>
<path style=" stroke:none;fill-rule:nonzero;fill:rgb(100%,100%,100%);fill-opacity:1;" d="M 30.714844 127.832031 C 27.996094 129.1875 24.699219 128.371094 22.925781 125.898438 C 22.753906 125.65625 23.121094 125.375 23.296875 125.621094 C 24.941406 127.921875 28.019531 128.679688 30.542969 127.402344 C 30.808594 127.269531 30.980469 127.699219 30.714844 127.832031 Z M 30.714844 127.832031 "/>
<path style=" stroke:none;fill-rule:nonzero;fill:rgb(100%,100%,100%);fill-opacity:1;" d="M 40.28125 136.1875 C 41.261719 133.34375 41.136719 130.230469 39.933594 127.472656 C 39.8125 127.199219 40.242188 127.027344 40.363281 127.300781 C 41.609375 130.171875 41.734375 133.410156 40.707031 136.371094 C 40.605469 136.652344 40.183594 136.46875 40.28125 136.1875 Z M 40.28125 136.1875 "/>
<path style=" stroke:none;fill-rule:nonzero;fill:rgb(100%,100%,100%);fill-opacity:1;" d="M 26.007812 115.191406 C 27.148438 114.890625 28.0625 114.039062 28.441406 112.917969 C 28.535156 112.632812 28.960938 112.816406 28.867188 113.097656 C 28.441406 114.335938 27.4375 115.28125 26.179688 115.621094 C 26.058594 115.664062 25.929688 115.609375 25.878906 115.492188 C 25.832031 115.375 25.886719 115.238281 26.007812 115.191406 Z M 26.007812 115.191406 "/>
<path style=" stroke:none;fill-rule:nonzero;fill:rgb(94.117647%,94.117647%,94.117647%);fill-opacity:1;" d="M 318.035156 153.21875 C 327.375 148.441406 334.8125 138.855469 334.605469 128.34375 C 325.875 135.699219 314.828125 139.71875 303.421875 139.695312 C 299.023438 139.667969 294.136719 139.183594 290.71875 141.957031 C 288.589844 143.683594 287.476562 146.417969 287.144531 149.140625 C 286.816406 151.863281 287.183594 154.617188 287.554688 157.335938 L 287.324219 157.980469 C 297.789062 158.699219 308.695312 158 318.035156 153.21875 Z M 318.035156 153.21875 "/>
<path style=" stroke:none;fill-rule:nonzero;fill:rgb(100%,100%,100%);fill-opacity:1;" d="M 334.386719 128.320312 C 330.273438 135.980469 323.855469 142.148438 316.042969 145.945312 C 314.378906 146.792969 312.589844 147.371094 310.742188 147.660156 C 308.933594 147.882812 307.097656 147.617188 305.429688 146.890625 C 303.855469 146.242188 302.324219 145.398438 300.625 145.144531 C 298.859375 144.90625 297.078125 145.4375 295.726562 146.601562 C 294.027344 147.992188 292.925781 149.910156 291.914062 151.824219 C 290.789062 153.949219 289.65625 156.175781 287.671875 157.628906 C 287.429688 157.804688 287.71875 158.167969 287.957031 157.992188 C 291.410156 155.464844 292.242188 150.914062 295.066406 147.855469 C 296.386719 146.429688 298.144531 145.394531 300.140625 145.554688 C 301.882812 145.695312 303.464844 146.5625 305.050781 147.234375 C 306.667969 147.96875 308.445312 148.292969 310.21875 148.179688 C 312.074219 147.988281 313.882812 147.480469 315.566406 146.675781 C 319.390625 144.933594 322.914062 142.597656 326.011719 139.753906 C 329.566406 136.527344 332.546875 132.71875 334.816406 128.488281 C 334.957031 128.226562 334.527344 128.058594 334.386719 128.320312 Z M 334.386719 128.320312 "/>
<path style=" stroke:none;fill-rule:nonzero;fill:rgb(100%,100%,100%);fill-opacity:1;" d="M 318.632812 144.871094 C 320.3125 147.40625 323.574219 148.347656 326.34375 147.09375 C 326.613281 146.96875 326.433594 146.542969 326.164062 146.667969 C 323.589844 147.839844 320.546875 146.953125 318.996094 144.585938 C 318.832031 144.335938 318.46875 144.625 318.632812 144.871094 Z M 318.632812 144.871094 "/>
<path style=" stroke:none;fill-rule:nonzero;fill:rgb(100%,100%,100%);fill-opacity:1;" d="M 306.183594 147.324219 C 306.75 144.367188 308.40625 141.730469 310.824219 139.945312 C 311.066406 139.769531 310.78125 139.402344 310.539062 139.582031 C 308.027344 141.445312 306.304688 144.1875 305.722656 147.269531 C 305.667969 147.5625 306.125 147.613281 306.183594 147.324219 Z M 306.183594 147.324219 "/>
<path style=" stroke:none;fill-rule:nonzero;fill:rgb(100%,100%,100%);fill-opacity:1;" d="M 329.007812 136.273438 C 328.167969 135.445312 327.800781 134.246094 328.03125 133.085938 C 328.09375 132.792969 327.632812 132.742188 327.574219 133.03125 C 327.324219 134.3125 327.726562 135.636719 328.644531 136.5625 C 328.726562 136.660156 328.871094 136.675781 328.972656 136.601562 C 329.070312 136.519531 329.085938 136.375 329.007812 136.273438 Z M 329.007812 136.273438 "/>
<path style=" stroke:none;fill-rule:nonzero;fill:rgb(94.117647%,94.117647%,94.117647%);fill-opacity:1;" d="M 306.804688 106.203125 C 306.761719 106.382812 306.722656 106.566406 306.675781 106.75 C 306.097656 109.1875 305.320312 111.578125 304.359375 113.890625 C 304.285156 114.070312 304.210938 114.253906 304.132812 114.429688 C 301.75 119.980469 298.363281 125.039062 294.136719 129.347656 C 292.453125 131.0625 290.644531 132.644531 288.722656 134.082031 C 286.066406 136.066406 283.03125 138.007812 281.238281 140.679688 C 281.046875 140.957031 280.875 141.242188 280.722656 141.542969 L 286.558594 157.648438 C 286.589844 157.679688 286.617188 157.710938 286.648438 157.742188 L 286.851562 158.394531 C 286.957031 158.328125 287.0625 158.257812 287.167969 158.1875 C 287.230469 158.148438 287.289062 158.109375 287.347656 158.070312 C 287.390625 158.042969 287.429688 158.015625 287.46875 157.992188 C 287.480469 157.984375 287.492188 157.976562 287.503906 157.96875 C 287.542969 157.945312 287.574219 157.921875 287.609375 157.898438 C 288.207031 157.5 288.800781 157.09375 289.394531 156.683594 C 289.398438 156.683594 289.398438 156.683594 289.402344 156.675781 C 293.960938 153.59375 298.136719 149.976562 301.84375 145.90625 C 301.953125 145.785156 302.066406 145.660156 302.171875 145.53125 C 303.796875 143.679688 305.265625 141.699219 306.566406 139.605469 C 307.277344 138.460938 307.925781 137.277344 308.515625 136.066406 C 310.035156 132.925781 311.050781 129.570312 311.527344 126.117188 C 312.476562 119.230469 311.21875 112.117188 307.121094 106.621094 C 307.015625 106.480469 306.914062 106.339844 306.804688 106.203125 Z M 306.804688 106.203125 "/>
<path style=" stroke:none;fill-rule:nonzero;fill:rgb(100%,100%,100%);fill-opacity:1;" d="M 306.613281 106.3125 C 307.929688 114.914062 306.511719 123.710938 302.558594 131.457031 C 301.734375 133.136719 300.652344 134.679688 299.351562 136.027344 C 298.042969 137.292969 296.417969 138.1875 294.648438 138.617188 C 293.003906 139.046875 291.273438 139.296875 289.761719 140.121094 C 288.210938 141 287.105469 142.496094 286.726562 144.242188 C 286.203125 146.375 286.476562 148.574219 286.820312 150.710938 C 287.199219 153.089844 287.632812 155.550781 286.917969 157.90625 C 286.832031 158.191406 287.28125 158.308594 287.367188 158.023438 C 288.605469 153.921875 286.535156 149.785156 286.957031 145.640625 C 287.152344 143.707031 287.933594 141.820312 289.621094 140.742188 C 291.097656 139.800781 292.882812 139.542969 294.550781 139.117188 C 296.285156 138.726562 297.898438 137.917969 299.246094 136.757812 C 300.613281 135.484375 301.75 133.984375 302.613281 132.328125 C 304.617188 128.628906 306.03125 124.636719 306.796875 120.496094 C 307.699219 115.777344 307.785156 110.9375 307.058594 106.1875 C 307.015625 105.894531 306.570312 106.019531 306.613281 106.3125 Z M 306.613281 106.3125 "/>
<path style=" stroke:none;fill-rule:nonzero;fill:rgb(100%,100%,100%);fill-opacity:1;" d="M 303.976562 129.035156 C 306.839844 130.046875 310.011719 128.828125 311.46875 126.15625 C 311.609375 125.894531 311.210938 125.664062 311.070312 125.925781 C 309.714844 128.414062 306.757812 129.546875 304.09375 128.589844 C 303.8125 128.488281 303.699219 128.9375 303.976562 129.035156 Z M 303.976562 129.035156 "/>
<path style=" stroke:none;fill-rule:nonzero;fill:rgb(100%,100%,100%);fill-opacity:1;" d="M 295.507812 138.507812 C 294.183594 135.804688 293.925781 132.699219 294.785156 129.8125 C 294.871094 129.527344 294.421875 129.410156 294.339844 129.695312 C 293.449219 132.699219 293.726562 135.929688 295.109375 138.742188 C 295.242188 139.007812 295.640625 138.773438 295.507812 138.507812 Z M 295.507812 138.507812 "/>
<path style=" stroke:none;fill-rule:nonzero;fill:rgb(100%,100%,100%);fill-opacity:1;" d="M 307.097656 115.910156 C 305.929688 115.753906 304.917969 115.019531 304.40625 113.953125 C 304.277344 113.683594 303.878906 113.917969 304.003906 114.1875 C 304.578125 115.359375 305.691406 116.175781 306.980469 116.359375 C 307.105469 116.386719 307.226562 116.316406 307.265625 116.195312 C 307.296875 116.070312 307.222656 115.945312 307.097656 115.910156 Z M 307.097656 115.910156 "/>
<path style=" stroke:none;fill-rule:nonzero;fill:rgb(100%,100%,100%);fill-opacity:1;" d="M 291.675781 6.878906 L 225.867188 6.878906 L 225.867188 11.125 C 225.867188 11.339844 225.941406 11.550781 226.078125 11.71875 C 225.945312 15.035156 225.867188 19.269531 225.867188 23.871094 L 225.867188 137.3125 C 225.867188 147.945312 226.292969 156.597656 226.816406 156.597656 L 290.726562 156.597656 C 291.25 156.597656 291.675781 147.945312 291.675781 137.3125 L 291.675781 23.871094 C 291.675781 19.269531 291.597656 15.035156 291.464844 11.71875 C 291.601562 11.550781 291.675781 11.339844 291.675781 11.125 Z M 291.675781 6.878906 "/>
<path style=" stroke:none;fill-rule:nonzero;fill:rgb(89.411765%,89.411765%,89.411765%);fill-opacity:1;" d="M 290.726562 157.054688 L 226.816406 157.054688 C 226.316406 157.054688 225.988281 157.054688 225.6875 150.964844 C 225.507812 147.308594 225.410156 142.460938 225.410156 137.3125 L 225.410156 23.871094 C 225.410156 19.425781 225.484375 15.101562 225.621094 11.703125 C 225.707031 9.660156 225.804688 8.023438 225.910156 6.839844 C 226.121094 4.519531 226.320312 4.128906 226.816406 4.128906 L 290.726562 4.128906 C 291.21875 4.128906 291.421875 4.519531 291.632812 6.839844 C 291.738281 8.027344 291.835938 9.664062 291.921875 11.699219 L 291.921875 11.703125 C 292.058594 15.097656 292.132812 19.421875 292.132812 23.871094 L 292.132812 137.3125 C 292.132812 142.460938 292.03125 147.308594 291.851562 150.964844 C 291.554688 157.054688 291.226562 157.054688 290.726562 157.054688 Z M 227.074219 156.136719 L 290.464844 156.136719 C 290.796875 154.882812 291.214844 148.078125 291.214844 137.3125 L 291.214844 23.871094 C 291.214844 19.433594 291.140625 15.125 291.007812 11.738281 C 290.921875 9.71875 290.824219 8.097656 290.71875 6.921875 C 290.679688 6.292969 290.59375 5.664062 290.460938 5.046875 L 227.082031 5.046875 C 226.949219 5.664062 226.863281 6.292969 226.824219 6.921875 C 226.71875 8.09375 226.621094 9.710938 226.535156 11.738281 C 226.402344 15.128906 226.324219 19.4375 226.324219 23.871094 L 226.324219 137.3125 C 226.324219 148.078125 226.746094 154.882812 227.074219 156.136719 Z M 227.074219 156.136719 "/>
<path style=" stroke:none;fill-rule:nonzero;fill:rgb(79.215686%,79.215686%,79.215686%);fill-opacity:1;" d="M 290.726562 4.585938 L 226.816406 4.585938 C 226.292969 4.589844 225.871094 5.011719 225.867188 5.535156 L 225.867188 11.125 C 225.867188 11.339844 225.941406 11.550781 226.078125 11.71875 C 226.257812 11.941406 226.53125 12.074219 226.816406 12.074219 L 290.726562 12.074219 C 291.011719 12.074219 291.285156 11.941406 291.464844 11.71875 C 291.601562 11.550781 291.675781 11.339844 291.675781 11.125 L 291.675781 5.535156 C 291.671875 5.011719 291.25 4.589844 290.726562 4.585938 Z M 290.726562 4.585938 "/>
<path style=" stroke:none;fill-rule:nonzero;fill:rgb(100%,100%,100%);fill-opacity:1;" d="M 232.714844 8.058594 C 232.714844 8.800781 232.113281 9.40625 231.371094 9.40625 C 230.625 9.40625 230.023438 8.800781 230.023438 8.058594 C 230.023438 7.3125 230.625 6.710938 231.371094 6.710938 C 232.113281 6.710938 232.714844 7.3125 232.714844 8.058594 Z M 232.714844 8.058594 "/>
<path style=" stroke:none;fill-rule:nonzero;fill:rgb(100%,100%,100%);fill-opacity:1;" d="M 237.820312 8.058594 C 237.820312 8.800781 237.21875 9.40625 236.476562 9.40625 C 235.734375 9.40625 235.128906 8.800781 235.128906 8.058594 C 235.128906 7.3125 235.734375 6.710938 236.476562 6.710938 C 237.21875 6.710938 237.820312 7.3125 237.820312 8.058594 Z M 237.820312 8.058594 "/>
<path style=" stroke:none;fill-rule:nonzero;fill:rgb(100%,100%,100%);fill-opacity:1;" d="M 242.925781 8.058594 C 242.925781 8.800781 242.324219 9.40625 241.582031 9.40625 C 240.839844 9.40625 240.238281 8.800781 240.238281 8.058594 C 240.238281 7.3125 240.839844 6.710938 241.582031 6.710938 C 242.324219 6.710938 242.925781 7.3125 242.925781 8.058594 Z M 242.925781 8.058594 "/>
<path style=" stroke:none;fill-rule:nonzero;fill:rgb(100%,100%,100%);fill-opacity:1;" d="M 285.722656 6.257812 L 279.84375 6.257812 C 279.605469 6.257812 279.410156 6.453125 279.410156 6.691406 C 279.40625 6.757812 279.421875 6.824219 279.453125 6.878906 C 279.527344 7.03125 279.675781 7.128906 279.84375 7.128906 L 285.722656 7.128906 C 285.890625 7.128906 286.046875 7.03125 286.117188 6.878906 C 286.144531 6.820312 286.160156 6.757812 286.160156 6.691406 C 286.160156 6.578125 286.113281 6.464844 286.03125 6.382812 C 285.949219 6.300781 285.839844 6.257812 285.722656 6.257812 Z M 285.722656 6.257812 "/>
<path style=" stroke:none;fill-rule:nonzero;fill:rgb(100%,100%,100%);fill-opacity:1;" d="M 285.722656 7.894531 L 279.84375 7.894531 C 279.601562 7.894531 279.410156 8.089844 279.410156 8.332031 C 279.410156 8.570312 279.601562 8.765625 279.84375 8.765625 L 285.722656 8.765625 C 285.964844 8.765625 286.160156 8.570312 286.160156 8.332031 C 286.160156 8.089844 285.964844 7.894531 285.722656 7.894531 Z M 285.722656 7.894531 "/>
<path style=" stroke:none;fill-rule:nonzero;fill:rgb(100%,100%,100%);fill-opacity:1;" d="M 285.722656 9.53125 L 279.84375 9.53125 C 279.601562 9.53125 279.410156 9.726562 279.410156 9.96875 C 279.410156 10.207031 279.601562 10.402344 279.84375 10.402344 L 285.722656 10.402344 C 285.964844 10.402344 286.160156 10.207031 286.160156 9.96875 C 286.160156 9.726562 285.964844 9.53125 285.722656 9.53125 Z M 285.722656 9.53125 "/>
<path style=" stroke:none;fill-rule:nonzero;fill:rgb(0%,0%,54.509804%);fill-opacity:1;" d="M 265.128906 24.320312 L 253.03125 24.320312 C 251.765625 24.320312 250.742188 25.347656 250.742188 26.613281 L 250.742188 37.121094 C 250.742188 38.386719 251.765625 39.410156 253.03125 39.414062 L 265.128906 39.414062 C 266.390625 39.410156 267.414062 38.382812 267.417969 37.121094 L 267.417969 26.613281 C 267.417969 25.347656 266.394531 24.324219 265.128906 24.320312 Z M 265.128906 24.320312 "/>
<path style=" stroke:none;fill-rule:nonzero;fill:rgb(89.411765%,89.411765%,89.411765%);fill-opacity:1;" d="M 280.164062 46.273438 L 237.992188 46.273438 C 237.417969 46.273438 236.953125 46.742188 236.953125 47.316406 C 236.953125 47.890625 237.417969 48.359375 237.992188 48.359375 L 280.164062 48.359375 C 280.738281 48.359375 281.203125 47.890625 281.203125 47.316406 C 281.203125 46.742188 280.738281 46.273438 280.164062 46.273438 Z M 280.164062 46.273438 "/>
<path style=" stroke:none;fill-rule:nonzero;fill:rgb(89.411765%,89.411765%,89.411765%);fill-opacity:1;" d="M 254.007812 51.15625 L 237.992188 51.15625 C 237.417969 51.15625 236.953125 51.621094 236.953125 52.195312 C 236.953125 52.773438 237.417969 53.238281 237.992188 53.238281 L 254.007812 53.238281 C 254.582031 53.238281 255.046875 52.773438 255.046875 52.195312 C 255.046875 51.621094 254.582031 51.15625 254.007812 51.15625 Z M 254.007812 51.15625 "/>
<path style=" stroke:none;fill-rule:nonzero;fill:rgb(0%,0%,54.509804%);fill-opacity:1;" d="M 265.128906 69.734375 L 253.03125 69.734375 C 251.765625 69.734375 250.742188 70.761719 250.742188 72.027344 L 250.742188 82.53125 C 250.742188 83.796875 251.765625 84.824219 253.03125 84.824219 L 265.128906 84.824219 C 266.390625 84.820312 267.414062 83.796875 267.417969 82.53125 L 267.417969 72.027344 C 267.417969 70.761719 266.394531 69.734375 265.128906 69.734375 Z M 265.128906 69.734375 "/>
<path style=" stroke:none;fill-rule:nonzero;fill:rgb(89.411765%,89.411765%,89.411765%);fill-opacity:1;" d="M 280.164062 91.6875 L 237.992188 91.6875 C 237.417969 91.6875 236.953125 92.152344 236.953125 92.730469 C 236.953125 93.304688 237.417969 93.769531 237.992188 93.769531 L 280.164062 93.769531 C 280.738281 93.769531 281.203125 93.304688 281.203125 92.730469 C 281.203125 92.152344 280.738281 91.6875 280.164062 91.6875 Z M 280.164062 91.6875 "/>
<path style=" stroke:none;fill-rule:nonzero;fill:rgb(89.411765%,89.411765%,89.411765%);fill-opacity:1;" d="M 254.007812 96.570312 L 237.992188 96.570312 C 237.417969 96.570312 236.953125 97.035156 236.953125 97.609375 C 236.953125 98.183594 237.417969 98.652344 237.992188 98.652344 L 254.007812 98.652344 C 254.582031 98.652344 255.046875 98.183594 255.046875 97.609375 C 255.046875 97.035156 254.582031 96.570312 254.007812 96.570312 Z M 254.007812 96.570312 "/>
<path style=" stroke:none;fill-rule:nonzero;fill:rgb(0%,0%,54.509804%);fill-opacity:1;" d="M 265.128906 115.148438 L 253.03125 115.148438 C 251.765625 115.148438 250.742188 116.175781 250.742188 117.441406 L 250.742188 127.945312 C 250.742188 129.210938 251.765625 130.238281 253.03125 130.238281 L 265.128906 130.238281 C 266.390625 130.234375 267.414062 129.210938 267.417969 127.945312 L 267.417969 117.441406 C 267.417969 116.175781 266.394531 115.148438 265.128906 115.148438 Z M 265.128906 115.148438 "/>
<path style=" stroke:none;fill-rule:nonzero;fill:rgb(89.411765%,89.411765%,89.411765%);fill-opacity:1;" d="M 280.164062 137.101562 L 237.992188 137.101562 C 237.417969 137.101562 236.953125 137.566406 236.953125 138.140625 C 236.953125 138.71875 237.417969 139.183594 237.992188 139.183594 L 280.164062 139.183594 C 280.738281 139.183594 281.203125 138.71875 281.203125 138.140625 C 281.203125 137.566406 280.738281 137.101562 280.164062 137.101562 Z M 280.164062 137.101562 "/>
<path style=" stroke:none;fill-rule:nonzero;fill:rgb(89.411765%,89.411765%,89.411765%);fill-opacity:1;" d="M 254.007812 141.980469 L 237.992188 141.980469 C 237.417969 141.980469 236.953125 142.449219 236.953125 143.023438 C 236.953125 143.597656 237.417969 144.0625 237.992188 144.0625 L 254.007812 144.0625 C 254.582031 144.0625 255.046875 143.597656 255.046875 143.023438 C 255.046875 142.449219 254.582031 141.980469 254.007812 141.980469 Z M 254.007812 141.980469 "/>
<path style=" stroke:none;fill-rule:nonzero;fill:rgb(100%,100%,100%);fill-opacity:1;" d="M 207.925781 1.40625 C 207.921875 0.882812 207.5 0.460938 206.976562 0.457031 L 37.804688 0.457031 C 37.285156 0.460938 36.859375 0.882812 36.859375 1.40625 L 36.859375 6.996094 C 36.859375 7.226562 36.945312 7.453125 37.101562 7.625 C 36.949219 11.417969 36.859375 16.417969 36.859375 21.894531 L 36.859375 148 C 36.859375 159.824219 37.285156 169.441406 37.804688 169.441406 L 206.976562 169.441406 C 207.5 169.441406 207.925781 159.824219 207.925781 148 L 207.925781 21.894531 C 207.925781 16.417969 207.832031 11.417969 207.679688 7.625 C 207.839844 7.453125 207.925781 7.226562 207.925781 6.996094 Z M 207.925781 1.40625 "/>
<path style=" stroke:none;fill-rule:nonzero;fill:rgb(89.411765%,89.411765%,89.411765%);fill-opacity:1;" d="M 206.976562 169.898438 L 37.804688 169.898438 C 37.289062 169.898438 36.976562 169.898438 36.679688 163.175781 C 36.5 159.113281 36.402344 153.722656 36.402344 148 L 36.402344 21.894531 C 36.402344 16.617188 36.488281 11.542969 36.644531 7.605469 C 36.945312 0 37.289062 0 37.804688 0 L 206.976562 0 C 207.496094 0 207.835938 0 208.140625 7.605469 C 208.296875 11.539062 208.382812 16.613281 208.382812 21.894531 L 208.382812 148 C 208.382812 153.722656 208.28125 159.113281 208.101562 163.175781 C 207.804688 169.898438 207.492188 169.898438 206.976562 169.898438 Z M 38.074219 168.980469 L 206.710938 168.980469 C 207.082031 167.542969 207.464844 159.46875 207.464844 148 L 207.464844 21.894531 C 207.464844 16.625 207.378906 11.5625 207.222656 7.640625 C 207.035156 2.824219 206.8125 1.359375 206.703125 0.917969 L 38.078125 0.917969 C 37.972656 1.359375 37.75 2.824219 37.558594 7.640625 C 37.402344 11.566406 37.316406 16.628906 37.316406 21.894531 L 37.316406 148 C 37.316406 159.46875 37.699219 167.542969 38.074219 168.980469 Z M 38.074219 168.980469 "/>
<path style=" stroke:none;fill-rule:nonzero;fill:rgb(79.215686%,79.215686%,79.215686%);fill-opacity:1;" d="M 206.976562 0.457031 L 37.804688 0.457031 C 37.285156 0.460938 36.859375 0.882812 36.859375 1.40625 L 36.859375 6.996094 C 36.859375 7.226562 36.945312 7.453125 37.101562 7.625 C 37.28125 7.828125 37.535156 7.945312 37.804688 7.945312 L 206.976562 7.945312 C 207.246094 7.945312 207.503906 7.828125 207.679688 7.625 C 207.839844 7.453125 207.925781 7.226562 207.925781 6.996094 L 207.925781 1.40625 C 207.921875 0.882812 207.5 0.460938 206.976562 0.457031 Z M 206.976562 0.457031 "/>
<path style=" stroke:none;fill-rule:nonzero;fill:rgb(100%,100%,100%);fill-opacity:1;" d="M 43.703125 3.929688 C 43.703125 4.671875 43.101562 5.277344 42.359375 5.277344 C 41.617188 5.277344 41.015625 4.671875 41.015625 3.929688 C 41.015625 3.183594 41.617188 2.582031 42.359375 2.582031 C 43.101562 2.582031 43.703125 3.183594 43.703125 3.929688 Z M 43.703125 3.929688 "/>
<path style=" stroke:none;fill-rule:nonzero;fill:rgb(100%,100%,100%);fill-opacity:1;" d="M 48.8125 3.929688 C 48.8125 4.671875 48.210938 5.277344 47.464844 5.277344 C 46.722656 5.277344 46.121094 4.671875 46.121094 3.929688 C 46.121094 3.183594 46.722656 2.582031 47.464844 2.582031 C 48.210938 2.582031 48.8125 3.183594 48.8125 3.929688 Z M 48.8125 3.929688 "/>
<path style=" stroke:none;fill-rule:nonzero;fill:rgb(100%,100%,100%);fill-opacity:1;" d="M 53.917969 3.929688 C 53.917969 4.671875 53.316406 5.277344 52.574219 5.277344 C 51.828125 5.277344 51.226562 4.671875 51.226562 3.929688 C 51.226562 3.183594 51.828125 2.582031 52.574219 2.582031 C 53.316406 2.582031 53.917969 3.183594 53.917969 3.929688 Z M 53.917969 3.929688 "/>
<path style=" stroke:none;fill-rule:nonzero;fill:rgb(100%,100%,100%);fill-opacity:1;" d="M 201.972656 2.128906 L 196.09375 2.128906 C 195.851562 2.128906 195.660156 2.324219 195.660156 2.5625 C 195.660156 2.804688 195.851562 3 196.09375 3 L 201.972656 3 C 202.214844 3 202.410156 2.804688 202.410156 2.5625 C 202.410156 2.324219 202.214844 2.128906 201.972656 2.128906 Z M 201.972656 2.128906 "/>
<path style=" stroke:none;fill-rule:nonzero;fill:rgb(100%,100%,100%);fill-opacity:1;" d="M 201.972656 3.765625 L 196.09375 3.765625 C 195.851562 3.765625 195.660156 3.960938 195.660156 4.203125 C 195.660156 4.441406 195.851562 4.636719 196.09375 4.636719 L 201.972656 4.636719 C 202.214844 4.636719 202.410156 4.441406 202.410156 4.203125 C 202.410156 3.960938 202.214844 3.765625 201.972656 3.765625 Z M 201.972656 3.765625 "/>
<path style=" stroke:none;fill-rule:nonzero;fill:rgb(100%,100%,100%);fill-opacity:1;" d="M 201.972656 5.402344 L 196.09375 5.402344 C 195.851562 5.402344 195.660156 5.597656 195.660156 5.839844 C 195.660156 6.082031 195.851562 6.273438 196.09375 6.273438 L 201.972656 6.273438 C 202.214844 6.273438 202.410156 6.082031 202.410156 5.839844 C 202.410156 5.597656 202.214844 5.402344 201.972656 5.402344 Z M 201.972656 5.402344 "/>
<path style=" stroke:none;fill-rule:nonzero;fill:rgb(0%,0%,54.509804%);fill-opacity:1;" d="M 92.484375 28.449219 L 72.6875 28.449219 C 70.621094 28.453125 68.945312 30.128906 68.945312 32.203125 L 68.945312 49.390625 C 68.945312 51.460938 70.621094 53.140625 72.6875 53.140625 L 92.484375 53.140625 C 94.554688 53.140625 96.226562 51.460938 96.230469 49.390625 L 96.230469 32.203125 C 96.226562 30.128906 94.554688 28.453125 92.484375 28.449219 Z M 92.484375 28.449219 "/>
<path style=" stroke:none;fill-rule:nonzero;fill:rgb(89.411765%,89.411765%,89.411765%);fill-opacity:1;" d="M 174.144531 35.097656 L 105.140625 35.097656 C 104.203125 35.097656 103.441406 35.859375 103.441406 36.800781 C 103.441406 37.742188 104.203125 38.503906 105.140625 38.503906 L 174.144531 38.503906 C 175.082031 38.503906 175.84375 37.742188 175.84375 36.800781 C 175.84375 35.859375 175.082031 35.097656 174.144531 35.097656 Z M 174.144531 35.097656 "/>
<path style=" stroke:none;fill-rule:nonzero;fill:rgb(89.411765%,89.411765%,89.411765%);fill-opacity:1;" d="M 131.351562 43.082031 L 105.140625 43.082031 C 104.203125 43.082031 103.441406 43.84375 103.441406 44.785156 C 103.441406 45.726562 104.203125 46.492188 105.140625 46.492188 L 131.351562 46.492188 C 132.289062 46.492188 133.050781 45.726562 133.050781 44.785156 C 133.050781 43.84375 132.289062 43.082031 131.351562 43.082031 Z M 131.351562 43.082031 "/>
<path style=" stroke:none;fill-rule:nonzero;fill:rgb(0%,0%,54.509804%);fill-opacity:1;" d="M 92.484375 74.320312 L 72.6875 74.320312 C 70.621094 74.324219 68.945312 76.003906 68.945312 78.074219 L 68.945312 95.261719 C 68.945312 97.332031 70.621094 99.011719 72.6875 99.015625 L 92.484375 99.015625 C 94.554688 99.011719 96.226562 97.332031 96.230469 95.261719 L 96.230469 78.074219 C 96.226562 76.003906 94.554688 74.324219 92.484375 74.320312 Z M 92.484375 74.320312 "/>
<path style=" stroke:none;fill-rule:nonzero;fill:rgb(89.411765%,89.411765%,89.411765%);fill-opacity:1;" d="M 174.144531 80.96875 L 105.140625 80.96875 C 104.203125 80.96875 103.441406 81.730469 103.441406 82.671875 C 103.441406 83.613281 104.203125 84.375 105.140625 84.375 L 174.144531 84.375 C 175.082031 84.375 175.84375 83.613281 175.84375 82.671875 C 175.84375 81.730469 175.082031 80.96875 174.144531 80.96875 Z M 174.144531 80.96875 "/>
<path style=" stroke:none;fill-rule:nonzero;fill:rgb(89.411765%,89.411765%,89.411765%);fill-opacity:1;" d="M 131.351562 88.953125 L 105.140625 88.953125 C 104.203125 88.953125 103.441406 89.71875 103.441406 90.65625 C 103.441406 91.597656 104.203125 92.363281 105.140625 92.363281 L 131.351562 92.363281 C 132.289062 92.363281 133.050781 91.597656 133.050781 90.65625 C 133.050781 89.71875 132.289062 88.953125 131.351562 88.953125 Z M 131.351562 88.953125 "/>
<path style=" stroke:none;fill-rule:nonzero;fill:rgb(0%,0%,54.509804%);fill-opacity:1;" d="M 92.484375 120.191406 L 72.6875 120.191406 C 70.621094 120.195312 68.945312 121.875 68.945312 123.945312 L 68.945312 141.132812 C 68.945312 143.203125 70.621094 144.882812 72.6875 144.886719 L 92.484375 144.886719 C 94.554688 144.882812 96.226562 143.203125 96.230469 141.132812 L 96.230469 123.945312 C 96.226562 121.875 94.554688 120.195312 92.484375 120.191406 Z M 92.484375 120.191406 "/>
<path style=" stroke:none;fill-rule:nonzero;fill:rgb(89.411765%,89.411765%,89.411765%);fill-opacity:1;" d="M 174.144531 126.839844 L 105.140625 126.839844 C 104.203125 126.839844 103.441406 127.601562 103.441406 128.542969 C 103.441406 129.484375 104.203125 130.246094 105.140625 130.246094 L 174.144531 130.246094 C 175.082031 130.246094 175.84375 129.484375 175.84375 128.542969 C 175.84375 127.601562 175.082031 126.839844 174.144531 126.839844 Z M 174.144531 126.839844 "/>
<path style=" stroke:none;fill-rule:nonzero;fill:rgb(89.411765%,89.411765%,89.411765%);fill-opacity:1;" d="M 131.351562 134.824219 L 105.140625 134.824219 C 104.203125 134.824219 103.441406 135.589844 103.441406 136.53125 C 103.441406 137.472656 104.203125 138.234375 105.140625 138.234375 L 131.351562 138.234375 C 132.289062 138.234375 133.050781 137.472656 133.050781 136.53125 C 133.050781 135.589844 132.289062 134.824219 131.351562 134.824219 Z M 131.351562 134.824219 "/>
<path style=" stroke:none;fill-rule:nonzero;fill:rgb(100%,100%,100%);fill-opacity:1;" d="M 237.183594 199.714844 L 123.847656 199.714844 C 123.324219 199.714844 122.898438 191.664062 122.898438 181.769531 L 122.898438 76.203125 C 122.898438 66.308594 123.324219 58.257812 123.847656 58.257812 L 237.183594 58.257812 C 237.707031 58.257812 238.128906 66.308594 238.128906 76.203125 L 238.128906 181.769531 C 238.128906 191.664062 237.707031 199.714844 237.183594 199.714844 Z M 237.183594 199.714844 "/>
<path style=" stroke:none;fill-rule:nonzero;fill:rgb(89.411765%,89.411765%,89.411765%);fill-opacity:1;" d="M 237.183594 200.175781 L 123.847656 200.175781 C 123.367188 200.175781 123.019531 200.175781 122.71875 194.476562 C 122.539062 191.078125 122.441406 186.5625 122.441406 181.769531 L 122.441406 76.203125 C 122.441406 71.410156 122.539062 66.894531 122.71875 63.496094 C 123.019531 57.796875 123.367188 57.796875 123.847656 57.796875 L 237.183594 57.796875 C 237.664062 57.796875 238.007812 57.796875 238.308594 63.496094 C 238.488281 66.894531 238.589844 71.410156 238.589844 76.203125 L 238.589844 181.769531 C 238.589844 186.5625 238.488281 191.078125 238.308594 194.476562 C 238.007812 200.175781 237.664062 200.175781 237.183594 200.175781 Z M 124.097656 199.257812 L 236.929688 199.257812 C 237.257812 198.070312 237.671875 191.738281 237.671875 181.769531 L 237.671875 76.203125 C 237.671875 66.234375 237.257812 59.902344 236.929688 58.714844 L 124.097656 58.714844 C 123.769531 59.902344 123.355469 66.234375 123.355469 76.203125 L 123.355469 181.769531 C 123.355469 191.738281 123.769531 198.070312 124.097656 199.257812 Z M 124.097656 199.257812 "/>
<path style=" stroke:none;fill-rule:nonzero;fill:rgb(79.215686%,79.215686%,79.215686%);fill-opacity:1;" d="M 237.183594 65.742188 L 123.847656 65.742188 C 123.324219 65.742188 122.898438 65.316406 122.898438 64.792969 L 122.898438 59.207031 C 122.898438 58.683594 123.324219 58.257812 123.847656 58.257812 L 237.183594 58.257812 C 237.707031 58.257812 238.128906 58.683594 238.128906 59.207031 L 238.128906 64.792969 C 238.128906 65.316406 237.707031 65.742188 237.183594 65.742188 Z M 237.183594 65.742188 "/>
<path style=" stroke:none;fill-rule:nonzero;fill:rgb(100%,100%,100%);fill-opacity:1;" d="M 129.742188 61.726562 C 129.742188 62.472656 129.140625 63.074219 128.398438 63.074219 C 127.65625 63.074219 127.050781 62.472656 127.050781 61.726562 C 127.050781 60.984375 127.65625 60.378906 128.398438 60.378906 C 129.140625 60.378906 129.742188 60.984375 129.742188 61.726562 Z M 129.742188 61.726562 "/>
<path style=" stroke:none;fill-rule:nonzero;fill:rgb(100%,100%,100%);fill-opacity:1;" d="M 134.851562 61.726562 C 134.851562 62.472656 134.246094 63.074219 133.503906 63.074219 C 132.761719 63.074219 132.160156 62.472656 132.160156 61.726562 C 132.160156 60.984375 132.761719 60.378906 133.503906 60.378906 C 134.246094 60.378906 134.851562 60.984375 134.851562 61.726562 Z M 134.851562 61.726562 "/>
<path style=" stroke:none;fill-rule:nonzero;fill:rgb(100%,100%,100%);fill-opacity:1;" d="M 139.957031 61.726562 C 139.957031 62.472656 139.355469 63.074219 138.609375 63.074219 C 137.867188 63.074219 137.265625 62.472656 137.265625 61.726562 C 137.265625 60.984375 137.867188 60.378906 138.609375 60.378906 C 139.355469 60.378906 139.957031 60.984375 139.957031 61.726562 Z M 139.957031 61.726562 "/>
<path style=" stroke:none;fill-rule:nonzero;fill:rgb(100%,100%,100%);fill-opacity:1;" d="M 232.179688 60.800781 L 226.300781 60.800781 C 226.058594 60.800781 225.863281 60.605469 225.863281 60.363281 C 225.863281 60.121094 226.058594 59.925781 226.300781 59.925781 L 232.179688 59.925781 C 232.417969 59.925781 232.613281 60.121094 232.613281 60.363281 C 232.613281 60.601562 232.417969 60.796875 232.179688 60.800781 Z M 232.179688 60.800781 "/>
<path style=" stroke:none;fill-rule:nonzero;fill:rgb(100%,100%,100%);fill-opacity:1;" d="M 232.179688 62.4375 L 226.300781 62.4375 C 226.058594 62.4375 225.863281 62.242188 225.863281 62 C 225.863281 61.757812 226.058594 61.5625 226.300781 61.5625 L 232.179688 61.5625 C 232.421875 61.5625 232.617188 61.757812 232.617188 62 C 232.617188 62.242188 232.421875 62.4375 232.179688 62.4375 Z M 232.179688 62.4375 "/>
<path style=" stroke:none;fill-rule:nonzero;fill:rgb(100%,100%,100%);fill-opacity:1;" d="M 232.179688 64.074219 L 226.300781 64.074219 C 226.058594 64.074219 225.863281 63.878906 225.863281 63.636719 C 225.863281 63.394531 226.058594 63.199219 226.300781 63.199219 L 232.179688 63.199219 C 232.417969 63.199219 232.613281 63.394531 232.613281 63.636719 C 232.613281 63.878906 232.417969 64.074219 232.179688 64.074219 Z M 232.179688 64.074219 "/>
<path style=" stroke:none;fill-rule:nonzero;fill:rgb(0%,0%,54.509804%);fill-opacity:1;" d="M 158.671875 100.421875 L 144.214844 100.421875 C 142.707031 100.417969 141.480469 99.191406 141.480469 97.679688 L 141.480469 85.128906 C 141.480469 83.613281 142.707031 82.390625 144.214844 82.386719 L 158.671875 82.386719 C 160.183594 82.390625 161.40625 83.613281 161.40625 85.128906 L 161.40625 97.679688 C 161.40625 99.191406 160.183594 100.417969 158.671875 100.421875 Z M 158.671875 100.421875 "/>
<path style=" stroke:none;fill-rule:nonzero;fill:rgb(89.411765%,89.411765%,89.411765%);fill-opacity:1;" d="M 218.308594 89.730469 L 167.914062 89.730469 C 167.230469 89.730469 166.675781 89.175781 166.675781 88.488281 C 166.675781 87.800781 167.230469 87.242188 167.914062 87.242188 L 218.308594 87.242188 C 218.992188 87.242188 219.546875 87.800781 219.546875 88.488281 C 219.546875 89.175781 218.992188 89.730469 218.308594 89.730469 Z M 218.308594 89.730469 "/>
<path style=" stroke:none;fill-rule:nonzero;fill:rgb(89.411765%,89.411765%,89.411765%);fill-opacity:1;" d="M 187.054688 95.5625 L 167.914062 95.5625 C 167.230469 95.5625 166.675781 95.007812 166.675781 94.320312 C 166.675781 93.632812 167.230469 93.074219 167.914062 93.074219 L 187.054688 93.074219 C 187.5 93.074219 187.910156 93.3125 188.132812 93.695312 C 188.355469 94.082031 188.355469 94.558594 188.132812 94.941406 C 187.910156 95.328125 187.5 95.566406 187.054688 95.5625 Z M 187.054688 95.5625 "/>
<path style=" stroke:none;fill-rule:nonzero;fill:rgb(0%,0%,54.509804%);fill-opacity:1;" d="M 158.671875 137.578125 L 144.214844 137.578125 C 142.707031 137.574219 141.480469 136.347656 141.480469 134.835938 L 141.480469 122.285156 C 141.480469 120.769531 142.707031 119.546875 144.214844 119.542969 L 158.671875 119.542969 C 160.183594 119.546875 161.40625 120.769531 161.40625 122.285156 L 161.40625 134.835938 C 161.40625 136.347656 160.183594 137.574219 158.671875 137.578125 Z M 158.671875 137.578125 "/>
<path style=" stroke:none;fill-rule:nonzero;fill:rgb(89.411765%,89.411765%,89.411765%);fill-opacity:1;" d="M 218.308594 126.886719 L 167.914062 126.886719 C 167.230469 126.886719 166.675781 126.332031 166.675781 125.644531 C 166.675781 124.957031 167.230469 124.398438 167.914062 124.398438 L 218.308594 124.398438 C 218.992188 124.398438 219.546875 124.957031 219.546875 125.644531 C 219.546875 126.332031 218.992188 126.886719 218.308594 126.886719 Z M 218.308594 126.886719 "/>
<path style=" stroke:none;fill-rule:nonzero;fill:rgb(89.411765%,89.411765%,89.411765%);fill-opacity:1;" d="M 187.054688 132.71875 L 167.914062 132.71875 C 167.230469 132.71875 166.675781 132.164062 166.675781 131.476562 C 166.675781 130.789062 167.230469 130.230469 167.914062 130.230469 L 187.054688 130.230469 C 187.5 130.230469 187.910156 130.46875 188.132812 130.851562 C 188.355469 131.238281 188.355469 131.714844 188.132812 132.097656 C 187.910156 132.484375 187.5 132.722656 187.054688 132.71875 Z M 187.054688 132.71875 "/>
<path style=" stroke:none;fill-rule:nonzero;fill:rgb(0%,0%,54.509804%);fill-opacity:1;" d="M 158.671875 174.730469 L 144.214844 174.730469 C 142.707031 174.730469 141.480469 173.503906 141.480469 171.992188 L 141.480469 159.441406 C 141.480469 157.925781 142.707031 156.699219 144.214844 156.699219 L 158.671875 156.699219 C 160.183594 156.699219 161.40625 157.925781 161.40625 159.441406 L 161.40625 171.992188 C 161.40625 173.503906 160.183594 174.730469 158.671875 174.730469 Z M 158.671875 174.730469 "/>
<path style=" stroke:none;fill-rule:nonzero;fill:rgb(89.411765%,89.411765%,89.411765%);fill-opacity:1;" d="M 218.308594 164.042969 L 167.914062 164.042969 C 167.230469 164.042969 166.675781 163.488281 166.675781 162.800781 C 166.675781 162.113281 167.230469 161.554688 167.914062 161.554688 L 218.308594 161.554688 C 218.992188 161.554688 219.546875 162.113281 219.546875 162.800781 C 219.546875 163.488281 218.992188 164.042969 218.308594 164.042969 Z M 218.308594 164.042969 "/>
<path style=" stroke:none;fill-rule:nonzero;fill:rgb(89.411765%,89.411765%,89.411765%);fill-opacity:1;" d="M 187.054688 169.875 L 167.914062 169.875 C 167.230469 169.875 166.675781 169.320312 166.675781 168.632812 C 166.675781 167.945312 167.230469 167.386719 167.914062 167.386719 L 187.054688 167.386719 C 187.5 167.386719 187.910156 167.625 188.132812 168.007812 C 188.355469 168.394531 188.355469 168.871094 188.132812 169.253906 C 187.910156 169.640625 187.5 169.875 187.054688 169.875 Z M 187.054688 169.875 "/>
</g>
</svg>
