<?xml version="1.0" encoding="UTF-8"?>
<svg xmlns="http://www.w3.org/2000/svg" xmlns:xlink="http://www.w3.org/1999/xlink" width="px" height="200px" viewBox="0 0 281 200" version="1.1">
<defs>
<filter id="alpha" filterUnits="objectBoundingBox" x="0%" y="0%" width="100%" height="100%">
  <feColorMatrix type="matrix" in="SourceGraphic" values="0 0 0 0 1 0 0 0 0 1 0 0 0 0 1 0 0 0 1 0"/>
</filter>
<mask id="mask0">
  <g filter="url(#alpha)">
<rect x="0" y="0" width="281" height="200" style="fill:rgb(0%,0%,0%);fill-opacity:0.34902;stroke:none;"/>
  </g>
</mask>
<clipPath id="clip1">
  <rect x="0" y="0" width="281" height="200"/>
</clipPath>
<g id="surface5" clip-path="url(#clip1)">
<path style=" stroke:none;fill-rule:nonzero;fill:rgb(100%,100%,100%);fill-opacity:1;" d="M 233.8125 139.023438 C 235.925781 138.101562 231.640625 137.5625 226.78125 137.386719 C 221.917969 137.207031 216.035156 137.21875 212.929688 136.714844 C 209.925781 136.226562 210.144531 135.363281 209.894531 134.578125 C 209.640625 133.792969 208.484375 132.992188 203.796875 132.816406 C 197.953125 132.597656 188.316406 133.433594 183.90625 132.933594 C 179.792969 132.464844 182.238281 130.996094 176.234375 130.9375 C 172.808594 130.90625 168.394531 131.390625 164.578125 131.507812 C 161.875 131.625 159.167969 131.484375 156.492188 131.085938 C 154.632812 130.78125 153.339844 130.390625 151.246094 130.121094 C 145.753906 129.414062 135.007812 129.652344 125.417969 130.558594 C 115.828125 131.46875 107.605469 132.957031 102.96875 134.429688 C 98.332031 135.90625 97.050781 137.355469 98.132812 138.585938 C 98.820312 139.375 100.585938 140.109375 104.867188 140.425781 C 112.875 141.015625 127.128906 140 135.40625 140.535156 C 140.015625 140.835938 142.0625 141.578125 146.109375 141.984375 C 150.453125 142.421875 156.816406 142.445312 163.070312 142.433594 C 176.085938 142.410156 189.4375 142.277344 203.050781 142.03125 C 208.738281 141.929688 214.695312 141.796875 220.746094 141.304688 C 226.796875 140.816406 232.96875 139.871094 234.246094 138.984375 "/>
</g>
</defs>
<g id="surface1">
<path style=" stroke:none;fill-rule:nonzero;fill:rgb(100%,71.372549%,71.372549%);fill-opacity:1;" d="M 29.070312 194.851562 L 33.734375 194.847656 L 35.953125 176.792969 L 29.066406 176.792969 Z M 29.070312 194.851562 "/>
<path style=" stroke:none;fill-rule:nonzero;fill:rgb(18.431373%,18.039216%,25.490196%);fill-opacity:1;" d="M 28.902344 199.734375 L 43.25 199.730469 L 43.25 199.550781 C 43.25 196.457031 40.75 193.949219 37.664062 193.949219 L 35.042969 191.953125 L 30.15625 193.949219 L 28.902344 193.949219 Z M 28.902344 199.734375 "/>
<path style=" stroke:none;fill-rule:nonzero;fill:rgb(100%,71.372549%,71.372549%);fill-opacity:1;" d="M 36.601562 173.003906 L 40.273438 175.890625 L 53.117188 163.050781 L 47.695312 158.792969 Z M 36.601562 173.003906 "/>
<path style=" stroke:none;fill-rule:nonzero;fill:rgb(18.431373%,18.039216%,25.490196%);fill-opacity:1;" d="M 33.472656 176.746094 L 44.761719 185.625 L 44.875 185.480469 C 46.777344 183.042969 46.351562 179.523438 43.921875 177.613281 L 43.085938 174.421875 L 38.011719 172.96875 L 37.027344 172.195312 Z M 33.472656 176.746094 "/>
<path style=" stroke:none;fill-rule:nonzero;fill:rgb(18.431373%,18.039216%,25.490196%);fill-opacity:1;" d="M 58.5625 90.738281 C 58.5625 90.738281 64.753906 97.183594 62.003906 112.136719 L 64.3125 137.746094 L 64.910156 138.933594 C 65.636719 140.378906 65.355469 142.136719 64.214844 143.28125 L 63.722656 144.8125 L 63.261719 147.800781 L 46.179688 173.574219 L 39.644531 166.671875 L 50.195312 142.511719 L 47.328125 136.296875 L 40.675781 114.667969 L 36.089844 154.246094 L 37.007812 188.296875 L 28.230469 188.296875 L 22.792969 150.332031 L 17.058594 96.953125 L 20.042969 90.738281 Z M 58.5625 90.738281 "/>
<path style=" stroke:none;fill-rule:nonzero;fill:rgb(24.705882%,23.921569%,33.72549%);fill-opacity:1;" d="M 18.488281 101.808594 L 18.425781 101.722656 C 15.085938 97.027344 20.109375 85.75 20.867188 84.113281 C 19.011719 83.511719 17.839844 81.675781 18.070312 79.730469 L 18.394531 76.945312 L 18.734375 74.210938 L 16.296875 71.761719 L 16.289062 71.703125 L 14.886719 59.375 L 12.84375 51.1875 C 11.277344 44.882812 13.222656 38.222656 17.929688 33.765625 L 22.648438 33.015625 L 28.382812 27.46875 L 37.628906 27.46875 L 40.800781 30.507812 C 46.71875 31.550781 47.734375 31.210938 52.820312 37.332031 L 50.511719 56.367188 L 49.933594 58.988281 L 49.933594 62.539062 L 51.402344 64.171875 C 52.472656 65.367188 52.917969 66.996094 52.601562 68.570312 L 52.410156 69.539062 C 53.921875 70.1875 55.363281 81.738281 55.707031 83.351562 L 56.222656 85.761719 C 56.664062 86.34375 59.570312 90.230469 59.570312 91.292969 C 59.570312 91.453125 59.453125 91.609375 59.199219 91.78125 C 57.21875 93.125 49.324219 102.671875 44.476562 100.726562 C 39.316406 98.65625 18.800781 101.761719 18.597656 101.792969 Z M 18.488281 101.808594 "/>
<path style=" stroke:none;fill-rule:nonzero;fill:rgb(100%,71.372549%,71.372549%);fill-opacity:1;" d="M 17.246094 79.675781 C 17.246094 79.675781 19.621094 66.207031 17.230469 61.144531 L 7.738281 61.824219 L 9.183594 81.035156 L 17.480469 102.367188 C 17.128906 104.1875 18.136719 105.992188 19.867188 106.640625 C 21.59375 107.292969 23.535156 106.59375 24.460938 104.992188 C 25.386719 103.390625 25.027344 101.351562 23.605469 100.171875 Z M 17.246094 79.675781 "/>
<path style=" stroke:none;fill-rule:nonzero;fill:rgb(24.705882%,23.921569%,33.72549%);fill-opacity:1;" d="M 7.738281 54 L 8.324219 47.582031 C 8.773438 42.703125 11.140625 38.203125 14.902344 35.082031 C 17.265625 33.136719 20.519531 32.703125 23.304688 33.96875 C 27.132812 35.734375 28.9375 40.175781 27.441406 44.125 C 25.246094 49.898438 26.039062 56.003906 21.761719 56.75 L 22.226562 58.96875 L 18.023438 72.738281 L 6.042969 71.347656 Z M 7.738281 54 "/>
<path style=" stroke:none;fill-rule:nonzero;fill:rgb(100%,71.372549%,71.372549%);fill-opacity:1;" d="M 70.914062 73.292969 C 70.914062 73.292969 63.960938 61.527344 58.855469 59.253906 L 52.101562 65.980469 L 65.683594 79.601562 L 85.835938 90.34375 C 86.753906 91.953125 88.691406 92.660156 90.421875 92.023438 C 92.15625 91.382812 93.175781 89.585938 92.835938 87.765625 C 92.496094 85.945312 90.898438 84.636719 89.054688 84.667969 Z M 70.914062 73.292969 "/>
<path style=" stroke:none;fill-rule:nonzero;fill:rgb(24.705882%,23.921569%,33.72549%);fill-opacity:1;" d="M 47.019531 60.050781 L 43.292969 54.800781 C 40.460938 50.808594 39.332031 45.847656 40.15625 41.019531 C 40.679688 38 42.871094 35.539062 45.800781 34.675781 C 49.851562 33.511719 54.105469 35.695312 55.539062 39.671875 C 57.628906 45.484375 65.246094 55.035156 62.488281 58.398438 L 64.28125 59.777344 L 66.992188 67.527344 L 57.007812 74.308594 Z M 47.019531 60.050781 "/>
<path style=" stroke:none;fill-rule:nonzero;fill:rgb(100%,71.372549%,71.372549%);fill-opacity:1;" d="M 42.652344 14.484375 C 42.652344 20.175781 38.054688 24.789062 32.382812 24.789062 C 26.710938 24.789062 22.109375 20.175781 22.109375 14.484375 C 22.109375 8.792969 26.710938 4.179688 32.382812 4.179688 C 38.054688 4.179688 42.652344 8.792969 42.652344 14.484375 Z M 42.652344 14.484375 "/>
<path style=" stroke:none;fill-rule:nonzero;fill:rgb(18.431373%,18.039216%,25.490196%);fill-opacity:1;" d="M 24.929688 21.75 C 24.839844 21.671875 24.753906 21.585938 24.667969 21.503906 C 24.664062 21.511719 24.664062 21.523438 24.660156 21.53125 Z M 24.929688 21.75 "/>
<path style=" stroke:none;fill-rule:nonzero;fill:rgb(18.431373%,18.039216%,25.490196%);fill-opacity:1;" d="M 40.796875 3.601562 C 40.289062 2.777344 39.582031 2.09375 38.742188 1.613281 C 38.167969 1.332031 37.5625 1.117188 36.941406 0.972656 L 35.316406 0.527344 C 34.484375 0.269531 33.628906 0.0976562 32.761719 0.0117188 C 30.304688 -0.109375 27.984375 1.152344 26.75 3.285156 C 26.257812 4.160156 25.863281 5.246094 24.914062 5.566406 C 24.152344 5.824219 23.316406 5.460938 22.515625 5.53125 C 21.558594 5.671875 20.734375 6.28125 20.320312 7.15625 C 19.917969 8.023438 19.722656 8.96875 19.742188 9.925781 C 19.679688 14.308594 21.46875 18.515625 24.667969 21.503906 C 24.929688 20.804688 24.496094 20.046875 24.148438 19.375 C 23.800781 18.699219 23.585938 17.75 24.167969 17.261719 C 24.820312 16.71875 25.863281 17.246094 26.632812 16.890625 C 27.132812 16.601562 27.457031 16.082031 27.492188 15.503906 C 27.566406 14.941406 27.488281 14.367188 27.523438 13.800781 C 27.59375 12.664062 28.113281 11.605469 28.96875 10.855469 C 29.820312 10.105469 30.9375 9.730469 32.070312 9.8125 C 33.820312 9.9375 35.523438 11.136719 37.207031 10.644531 C 38 10.414062 38.675781 9.820312 39.492188 9.722656 C 40.398438 9.613281 41.253906 10.125 42.023438 10.617188 C 42.585938 8.210938 42.144531 5.675781 40.796875 3.601562 Z M 40.796875 3.601562 "/>
<path style=" stroke:none;fill-rule:nonzero;fill:rgb(94.117647%,94.117647%,94.117647%);fill-opacity:1;" d="M 76.402344 193.941406 L 73.789062 189.726562 L 73.265625 192.136719 C 73.175781 192.558594 73.082031 192.988281 73 193.410156 C 72.257812 192.777344 71.464844 192.1875 70.695312 191.621094 C 68.320312 189.894531 65.949219 188.164062 63.578125 186.433594 L 64.320312 190.753906 C 64.777344 193.410156 65.257812 196.125 66.390625 198.558594 C 66.515625 198.832031 66.648438 199.105469 66.796875 199.371094 L 77.824219 199.371094 C 77.914062 199.125 77.976562 198.871094 78.007812 198.609375 C 78.011719 198.59375 78.011719 198.574219 78.011719 198.558594 C 78.183594 196.910156 77.277344 195.355469 76.402344 193.941406 Z M 76.402344 193.941406 "/>
<path style=" stroke:none;fill-rule:nonzero;fill:rgb(94.117647%,94.117647%,94.117647%);fill-opacity:1;" d="M 267.605469 189.390625 L 262.863281 181.746094 L 261.917969 186.113281 C 261.75 186.878906 261.585938 187.65625 261.433594 188.429688 C 260.085938 187.273438 258.652344 186.207031 257.25 185.183594 C 252.949219 182.050781 248.644531 178.910156 244.34375 175.769531 L 245.691406 183.605469 C 246.523438 188.429688 247.390625 193.351562 249.441406 197.761719 C 249.671875 198.261719 249.917969 198.757812 250.179688 199.238281 L 270.1875 199.238281 C 270.347656 198.792969 270.460938 198.328125 270.519531 197.855469 C 270.523438 197.824219 270.527344 197.792969 270.527344 197.761719 C 270.839844 194.769531 269.191406 191.953125 267.605469 189.390625 Z M 267.605469 189.390625 "/>
<path style=" stroke:none;fill-rule:nonzero;fill:rgb(79.215686%,79.215686%,79.215686%);fill-opacity:1;" d="M 280.640625 199.785156 L 0.402344 199.890625 C 0.179688 199.890625 0 199.707031 0 199.484375 C 0 199.261719 0.179688 199.082031 0.402344 199.078125 L 280.640625 198.976562 C 280.863281 198.976562 281.042969 199.15625 281.042969 199.378906 C 281.042969 199.605469 280.863281 199.785156 280.640625 199.785156 Z M 280.640625 199.785156 "/>
<path style=" stroke:none;fill-rule:nonzero;fill:rgb(24.705882%,23.921569%,33.72549%);fill-opacity:1;" d="M 87.925781 81.054688 L 87.925781 178.679688 C 87.929688 181.269531 90.019531 183.371094 92.601562 183.371094 L 236.777344 183.371094 C 239.359375 183.371094 241.449219 181.269531 241.453125 178.679688 L 241.453125 81.054688 C 241.445312 78.464844 239.355469 76.371094 236.777344 76.367188 L 92.601562 76.367188 C 90.023438 76.371094 87.933594 78.464844 87.925781 81.054688 Z M 87.925781 81.054688 "/>
<path style=" stroke:none;fill-rule:nonzero;fill:rgb(100%,100%,100%);fill-opacity:1;" d="M 91.308594 82.269531 L 91.308594 177.476562 C 91.3125 178.859375 92.429688 179.980469 93.808594 179.984375 L 235.578125 179.984375 C 236.957031 179.980469 238.074219 178.859375 238.074219 177.476562 L 238.074219 82.269531 C 238.074219 80.882812 236.957031 79.757812 235.578125 79.753906 L 93.808594 79.753906 C 92.425781 79.757812 91.308594 80.882812 91.308594 82.269531 Z M 91.308594 82.269531 "/>
<path style=" stroke:none;fill-rule:nonzero;fill:rgb(18.431373%,18.039216%,25.490196%);fill-opacity:1;" d="M 84.910156 197.71875 C 85.445312 198.394531 86.257812 198.785156 87.117188 198.78125 L 241.492188 198.78125 C 242.347656 198.777344 243.15625 198.390625 243.695312 197.726562 C 244.234375 197.058594 244.445312 196.183594 244.269531 195.34375 L 241.875 183.921875 C 241.671875 182.976562 241.007812 182.195312 240.105469 181.851562 C 239.785156 181.726562 239.441406 181.660156 239.097656 181.660156 L 89.503906 181.660156 C 89.160156 181.660156 88.816406 181.726562 88.496094 181.851562 C 87.59375 182.195312 86.929688 182.976562 86.726562 183.921875 L 84.332031 195.34375 C 84.15625 196.183594 84.371094 197.054688 84.910156 197.71875 Z M 84.910156 197.71875 "/>
<path style=" stroke:none;fill-rule:nonzero;fill:rgb(24.705882%,23.921569%,33.72549%);fill-opacity:1;" d="M 237.835938 186.582031 L 233.410156 186.582031 C 233.320312 186.582031 233.246094 186.507812 233.246094 186.414062 L 233.246094 183.882812 C 233.246094 183.792969 233.320312 183.71875 233.410156 183.71875 L 237.835938 183.71875 C 237.925781 183.71875 238 183.792969 238 183.882812 L 238 186.414062 C 238 186.507812 237.925781 186.582031 237.835938 186.582031 Z M 237.835938 186.582031 "/>
<path style=" stroke:none;fill-rule:nonzero;fill:rgb(24.705882%,23.921569%,33.72549%);fill-opacity:1;" d="M 228.324219 186.582031 L 223.902344 186.582031 C 223.8125 186.582031 223.738281 186.507812 223.738281 186.414062 L 223.738281 183.882812 C 223.738281 183.792969 223.8125 183.71875 223.902344 183.71875 L 228.324219 183.71875 C 228.417969 183.71875 228.492188 183.792969 228.492188 183.882812 L 228.492188 186.414062 C 228.492188 186.507812 228.417969 186.582031 228.324219 186.582031 Z M 228.324219 186.582031 "/>
<path style=" stroke:none;fill-rule:nonzero;fill:rgb(24.705882%,23.921569%,33.72549%);fill-opacity:1;" d="M 218.816406 186.582031 L 214.394531 186.582031 C 214.300781 186.582031 214.226562 186.507812 214.226562 186.414062 L 214.226562 183.882812 C 214.226562 183.792969 214.300781 183.71875 214.394531 183.71875 L 218.816406 183.71875 C 218.90625 183.71875 218.980469 183.792969 218.980469 183.882812 L 218.980469 186.414062 C 218.980469 186.507812 218.90625 186.582031 218.816406 186.582031 Z M 218.816406 186.582031 "/>
<path style=" stroke:none;fill-rule:nonzero;fill:rgb(24.705882%,23.921569%,33.72549%);fill-opacity:1;" d="M 209.308594 186.582031 L 204.882812 186.582031 C 204.792969 186.582031 204.71875 186.507812 204.71875 186.414062 L 204.71875 183.882812 C 204.71875 183.792969 204.792969 183.71875 204.882812 183.71875 L 209.308594 183.71875 C 209.398438 183.71875 209.472656 183.792969 209.472656 183.882812 L 209.472656 186.414062 C 209.472656 186.507812 209.398438 186.582031 209.308594 186.582031 Z M 209.308594 186.582031 "/>
<path style=" stroke:none;fill-rule:nonzero;fill:rgb(24.705882%,23.921569%,33.72549%);fill-opacity:1;" d="M 199.796875 186.582031 L 195.375 186.582031 C 195.28125 186.582031 195.207031 186.507812 195.207031 186.414062 L 195.207031 183.882812 C 195.207031 183.792969 195.28125 183.71875 195.375 183.71875 L 199.796875 183.71875 C 199.890625 183.71875 199.964844 183.792969 199.964844 183.882812 L 199.964844 186.414062 C 199.964844 186.507812 199.890625 186.582031 199.796875 186.582031 Z M 199.796875 186.582031 "/>
<path style=" stroke:none;fill-rule:nonzero;fill:rgb(24.705882%,23.921569%,33.72549%);fill-opacity:1;" d="M 190.289062 186.582031 L 185.863281 186.582031 C 185.773438 186.582031 185.699219 186.507812 185.699219 186.414062 L 185.699219 183.882812 C 185.699219 183.792969 185.773438 183.71875 185.863281 183.71875 L 190.289062 183.71875 C 190.378906 183.71875 190.453125 183.792969 190.453125 183.882812 L 190.453125 186.414062 C 190.453125 186.507812 190.378906 186.582031 190.289062 186.582031 Z M 190.289062 186.582031 "/>
<path style=" stroke:none;fill-rule:nonzero;fill:rgb(24.705882%,23.921569%,33.72549%);fill-opacity:1;" d="M 180.777344 186.582031 L 176.355469 186.582031 C 176.261719 186.582031 176.191406 186.507812 176.191406 186.414062 L 176.191406 183.882812 C 176.191406 183.792969 176.261719 183.71875 176.355469 183.71875 L 180.777344 183.71875 C 180.871094 183.71875 180.945312 183.792969 180.945312 183.882812 L 180.945312 186.414062 C 180.945312 186.507812 180.871094 186.582031 180.777344 186.582031 Z M 180.777344 186.582031 "/>
<path style=" stroke:none;fill-rule:nonzero;fill:rgb(24.705882%,23.921569%,33.72549%);fill-opacity:1;" d="M 171.269531 186.582031 L 166.84375 186.582031 C 166.753906 186.582031 166.679688 186.507812 166.679688 186.414062 L 166.679688 183.882812 C 166.679688 183.792969 166.753906 183.71875 166.84375 183.71875 L 171.269531 183.71875 C 171.359375 183.71875 171.433594 183.792969 171.433594 183.882812 L 171.433594 186.414062 C 171.433594 186.507812 171.359375 186.582031 171.269531 186.582031 Z M 171.269531 186.582031 "/>
<path style=" stroke:none;fill-rule:nonzero;fill:rgb(24.705882%,23.921569%,33.72549%);fill-opacity:1;" d="M 161.761719 186.582031 L 157.335938 186.582031 C 157.246094 186.582031 157.171875 186.507812 157.171875 186.414062 L 157.171875 183.882812 C 157.171875 183.792969 157.246094 183.71875 157.335938 183.71875 L 161.761719 183.71875 C 161.851562 183.71875 161.925781 183.792969 161.925781 183.882812 L 161.925781 186.414062 C 161.925781 186.507812 161.851562 186.582031 161.761719 186.582031 Z M 161.761719 186.582031 "/>
<path style=" stroke:none;fill-rule:nonzero;fill:rgb(24.705882%,23.921569%,33.72549%);fill-opacity:1;" d="M 152.25 186.582031 L 147.828125 186.582031 C 147.734375 186.582031 147.660156 186.507812 147.660156 186.414062 L 147.660156 183.882812 C 147.660156 183.792969 147.734375 183.71875 147.828125 183.71875 L 152.25 183.71875 C 152.339844 183.71875 152.414062 183.792969 152.414062 183.882812 L 152.414062 186.414062 C 152.414062 186.507812 152.339844 186.582031 152.25 186.582031 Z M 152.25 186.582031 "/>
<path style=" stroke:none;fill-rule:nonzero;fill:rgb(24.705882%,23.921569%,33.72549%);fill-opacity:1;" d="M 142.742188 186.582031 L 138.316406 186.582031 C 138.226562 186.582031 138.152344 186.507812 138.152344 186.414062 L 138.152344 183.882812 C 138.152344 183.792969 138.226562 183.71875 138.316406 183.71875 L 142.742188 183.71875 C 142.832031 183.71875 142.90625 183.792969 142.90625 183.882812 L 142.90625 186.414062 C 142.90625 186.507812 142.832031 186.582031 142.742188 186.582031 Z M 142.742188 186.582031 "/>
<path style=" stroke:none;fill-rule:nonzero;fill:rgb(24.705882%,23.921569%,33.72549%);fill-opacity:1;" d="M 133.230469 186.582031 L 128.808594 186.582031 C 128.714844 186.582031 128.640625 186.507812 128.640625 186.414062 L 128.640625 183.882812 C 128.640625 183.792969 128.714844 183.71875 128.808594 183.71875 L 133.230469 183.71875 C 133.324219 183.71875 133.398438 183.792969 133.398438 183.882812 L 133.398438 186.414062 C 133.398438 186.507812 133.324219 186.582031 133.230469 186.582031 Z M 133.230469 186.582031 "/>
<path style=" stroke:none;fill-rule:nonzero;fill:rgb(24.705882%,23.921569%,33.72549%);fill-opacity:1;" d="M 123.722656 186.582031 L 119.296875 186.582031 C 119.207031 186.582031 119.132812 186.507812 119.132812 186.414062 L 119.132812 183.882812 C 119.132812 183.792969 119.207031 183.71875 119.296875 183.71875 L 123.722656 183.71875 C 123.8125 183.71875 123.886719 183.792969 123.886719 183.882812 L 123.886719 186.414062 C 123.886719 186.507812 123.8125 186.582031 123.722656 186.582031 Z M 123.722656 186.582031 "/>
<path style=" stroke:none;fill-rule:nonzero;fill:rgb(24.705882%,23.921569%,33.72549%);fill-opacity:1;" d="M 114.210938 186.582031 L 109.789062 186.582031 C 109.699219 186.582031 109.625 186.507812 109.625 186.414062 L 109.625 183.882812 C 109.625 183.792969 109.699219 183.71875 109.789062 183.71875 L 114.210938 183.71875 C 114.304688 183.71875 114.378906 183.792969 114.378906 183.882812 L 114.378906 186.414062 C 114.378906 186.507812 114.304688 186.582031 114.210938 186.582031 Z M 114.210938 186.582031 "/>
<path style=" stroke:none;fill-rule:nonzero;fill:rgb(24.705882%,23.921569%,33.72549%);fill-opacity:1;" d="M 104.703125 186.582031 L 100.277344 186.582031 C 100.1875 186.582031 100.113281 186.507812 100.113281 186.414062 L 100.113281 183.882812 C 100.113281 183.792969 100.1875 183.71875 100.277344 183.71875 L 104.703125 183.71875 C 104.792969 183.71875 104.867188 183.792969 104.867188 183.882812 L 104.867188 186.414062 C 104.867188 186.507812 104.792969 186.582031 104.703125 186.582031 Z M 104.703125 186.582031 "/>
<path style=" stroke:none;fill-rule:nonzero;fill:rgb(24.705882%,23.921569%,33.72549%);fill-opacity:1;" d="M 95.195312 186.582031 L 90.769531 186.582031 C 90.679688 186.582031 90.605469 186.507812 90.605469 186.414062 L 90.605469 183.882812 C 90.605469 183.792969 90.679688 183.71875 90.769531 183.71875 L 95.195312 183.71875 C 95.285156 183.71875 95.359375 183.792969 95.359375 183.882812 L 95.359375 186.414062 C 95.359375 186.507812 95.285156 186.582031 95.195312 186.582031 Z M 95.195312 186.582031 "/>
<path style=" stroke:none;fill-rule:nonzero;fill:rgb(24.705882%,23.921569%,33.72549%);fill-opacity:1;" d="M 237.949219 191.351562 L 233.523438 191.351562 C 233.433594 191.351562 233.359375 191.277344 233.359375 191.1875 L 233.359375 188.65625 C 233.359375 188.5625 233.433594 188.488281 233.523438 188.488281 L 237.949219 188.488281 C 238.039062 188.488281 238.113281 188.5625 238.113281 188.65625 L 238.113281 191.1875 C 238.113281 191.277344 238.039062 191.351562 237.949219 191.351562 Z M 237.949219 191.351562 "/>
<path style=" stroke:none;fill-rule:nonzero;fill:rgb(24.705882%,23.921569%,33.72549%);fill-opacity:1;" d="M 228.4375 191.351562 L 224.015625 191.351562 C 223.921875 191.351562 223.847656 191.277344 223.847656 191.1875 L 223.847656 188.65625 C 223.847656 188.5625 223.921875 188.488281 224.015625 188.488281 L 228.4375 188.488281 C 228.53125 188.488281 228.605469 188.5625 228.605469 188.65625 L 228.605469 191.1875 C 228.605469 191.277344 228.53125 191.351562 228.4375 191.351562 Z M 228.4375 191.351562 "/>
<path style=" stroke:none;fill-rule:nonzero;fill:rgb(24.705882%,23.921569%,33.72549%);fill-opacity:1;" d="M 218.929688 191.351562 L 214.503906 191.351562 C 214.414062 191.351562 214.339844 191.277344 214.339844 191.1875 L 214.339844 188.65625 C 214.339844 188.5625 214.414062 188.488281 214.503906 188.488281 L 218.929688 188.488281 C 219.019531 188.488281 219.09375 188.5625 219.09375 188.65625 L 219.09375 191.1875 C 219.09375 191.277344 219.019531 191.351562 218.929688 191.351562 Z M 218.929688 191.351562 "/>
<path style=" stroke:none;fill-rule:nonzero;fill:rgb(24.705882%,23.921569%,33.72549%);fill-opacity:1;" d="M 209.417969 191.351562 L 204.996094 191.351562 C 204.90625 191.351562 204.832031 191.277344 204.832031 191.1875 L 204.832031 188.65625 C 204.832031 188.5625 204.90625 188.488281 204.996094 188.488281 L 209.417969 188.488281 C 209.511719 188.488281 209.585938 188.5625 209.585938 188.65625 L 209.585938 191.1875 C 209.585938 191.277344 209.511719 191.351562 209.417969 191.351562 Z M 209.417969 191.351562 "/>
<path style=" stroke:none;fill-rule:nonzero;fill:rgb(24.705882%,23.921569%,33.72549%);fill-opacity:1;" d="M 199.910156 191.351562 L 195.484375 191.351562 C 195.394531 191.351562 195.320312 191.277344 195.320312 191.1875 L 195.320312 188.65625 C 195.320312 188.5625 195.394531 188.488281 195.484375 188.488281 L 199.910156 188.488281 C 200 188.488281 200.074219 188.5625 200.074219 188.65625 L 200.074219 191.1875 C 200.074219 191.277344 200 191.351562 199.910156 191.351562 Z M 199.910156 191.351562 "/>
<path style=" stroke:none;fill-rule:nonzero;fill:rgb(24.705882%,23.921569%,33.72549%);fill-opacity:1;" d="M 190.402344 191.351562 L 185.976562 191.351562 C 185.886719 191.351562 185.8125 191.277344 185.8125 191.1875 L 185.8125 188.65625 C 185.8125 188.5625 185.886719 188.488281 185.976562 188.488281 L 190.402344 188.488281 C 190.492188 188.488281 190.566406 188.5625 190.566406 188.65625 L 190.566406 191.1875 C 190.566406 191.277344 190.492188 191.351562 190.402344 191.351562 Z M 190.402344 191.351562 "/>
<path style=" stroke:none;fill-rule:nonzero;fill:rgb(24.705882%,23.921569%,33.72549%);fill-opacity:1;" d="M 180.890625 191.351562 L 176.46875 191.351562 C 176.375 191.351562 176.300781 191.277344 176.300781 191.1875 L 176.300781 188.65625 C 176.300781 188.5625 176.375 188.488281 176.46875 188.488281 L 180.890625 188.488281 C 180.984375 188.488281 181.054688 188.5625 181.054688 188.65625 L 181.054688 191.1875 C 181.054688 191.277344 180.984375 191.351562 180.890625 191.351562 Z M 180.890625 191.351562 "/>
<path style=" stroke:none;fill-rule:nonzero;fill:rgb(24.705882%,23.921569%,33.72549%);fill-opacity:1;" d="M 171.382812 191.351562 L 166.957031 191.351562 C 166.867188 191.351562 166.792969 191.277344 166.792969 191.1875 L 166.792969 188.65625 C 166.792969 188.5625 166.867188 188.488281 166.957031 188.488281 L 171.382812 188.488281 C 171.472656 188.488281 171.546875 188.5625 171.546875 188.65625 L 171.546875 191.1875 C 171.546875 191.277344 171.472656 191.351562 171.382812 191.351562 Z M 171.382812 191.351562 "/>
<path style=" stroke:none;fill-rule:nonzero;fill:rgb(24.705882%,23.921569%,33.72549%);fill-opacity:1;" d="M 161.871094 191.351562 L 157.449219 191.351562 C 157.355469 191.351562 157.28125 191.277344 157.28125 191.1875 L 157.28125 188.65625 C 157.28125 188.5625 157.355469 188.488281 157.449219 188.488281 L 161.871094 188.488281 C 161.964844 188.488281 162.039062 188.5625 162.039062 188.65625 L 162.039062 191.1875 C 162.039062 191.277344 161.964844 191.351562 161.871094 191.351562 Z M 161.871094 191.351562 "/>
<path style=" stroke:none;fill-rule:nonzero;fill:rgb(24.705882%,23.921569%,33.72549%);fill-opacity:1;" d="M 152.363281 191.351562 L 147.9375 191.351562 C 147.847656 191.351562 147.773438 191.277344 147.773438 191.1875 L 147.773438 188.65625 C 147.773438 188.5625 147.847656 188.488281 147.9375 188.488281 L 152.363281 188.488281 C 152.453125 188.488281 152.527344 188.5625 152.527344 188.65625 L 152.527344 191.1875 C 152.527344 191.277344 152.453125 191.351562 152.363281 191.351562 Z M 152.363281 191.351562 "/>
<path style=" stroke:none;fill-rule:nonzero;fill:rgb(24.705882%,23.921569%,33.72549%);fill-opacity:1;" d="M 142.851562 191.351562 L 138.429688 191.351562 C 138.339844 191.351562 138.265625 191.277344 138.265625 191.1875 L 138.265625 188.65625 C 138.265625 188.5625 138.339844 188.488281 138.429688 188.488281 L 142.851562 188.488281 C 142.945312 188.488281 143.019531 188.5625 143.019531 188.65625 L 143.019531 191.1875 C 143.019531 191.277344 142.945312 191.351562 142.851562 191.351562 Z M 142.851562 191.351562 "/>
<path style=" stroke:none;fill-rule:nonzero;fill:rgb(24.705882%,23.921569%,33.72549%);fill-opacity:1;" d="M 133.34375 191.351562 L 128.921875 191.351562 C 128.828125 191.351562 128.753906 191.277344 128.753906 191.1875 L 128.753906 188.65625 C 128.753906 188.5625 128.828125 188.488281 128.921875 188.488281 L 133.34375 188.488281 C 133.433594 188.488281 133.507812 188.5625 133.507812 188.65625 L 133.507812 191.1875 C 133.507812 191.277344 133.433594 191.351562 133.34375 191.351562 Z M 133.34375 191.351562 "/>
<path style=" stroke:none;fill-rule:nonzero;fill:rgb(24.705882%,23.921569%,33.72549%);fill-opacity:1;" d="M 123.835938 191.351562 L 119.410156 191.351562 C 119.320312 191.351562 119.246094 191.277344 119.246094 191.1875 L 119.246094 188.65625 C 119.246094 188.5625 119.320312 188.488281 119.410156 188.488281 L 123.835938 188.488281 C 123.925781 188.488281 124 188.5625 124 188.65625 L 124 191.1875 C 124 191.277344 123.925781 191.351562 123.835938 191.351562 Z M 123.835938 191.351562 "/>
<path style=" stroke:none;fill-rule:nonzero;fill:rgb(24.705882%,23.921569%,33.72549%);fill-opacity:1;" d="M 114.324219 191.351562 L 109.902344 191.351562 C 109.808594 191.351562 109.734375 191.277344 109.734375 191.1875 L 109.734375 188.65625 C 109.734375 188.5625 109.808594 188.488281 109.902344 188.488281 L 114.324219 188.488281 C 114.417969 188.488281 114.492188 188.5625 114.492188 188.65625 L 114.492188 191.1875 C 114.492188 191.277344 114.417969 191.351562 114.324219 191.351562 Z M 114.324219 191.351562 "/>
<path style=" stroke:none;fill-rule:nonzero;fill:rgb(24.705882%,23.921569%,33.72549%);fill-opacity:1;" d="M 104.816406 191.351562 L 100.390625 191.351562 C 100.300781 191.351562 100.226562 191.277344 100.226562 191.1875 L 100.226562 188.65625 C 100.226562 188.5625 100.300781 188.488281 100.390625 188.488281 L 104.816406 188.488281 C 104.90625 188.488281 104.980469 188.5625 104.980469 188.65625 L 104.980469 191.1875 C 104.980469 191.277344 104.90625 191.351562 104.816406 191.351562 Z M 104.816406 191.351562 "/>
<path style=" stroke:none;fill-rule:nonzero;fill:rgb(24.705882%,23.921569%,33.72549%);fill-opacity:1;" d="M 95.304688 191.351562 L 90.882812 191.351562 C 90.789062 191.351562 90.714844 191.277344 90.714844 191.1875 L 90.714844 188.65625 C 90.714844 188.5625 90.789062 188.488281 90.882812 188.488281 L 95.304688 188.488281 C 95.398438 188.488281 95.472656 188.5625 95.472656 188.65625 L 95.472656 191.1875 C 95.472656 191.277344 95.398438 191.351562 95.304688 191.351562 Z M 95.304688 191.351562 "/>
<path style=" stroke:none;fill-rule:nonzero;fill:rgb(24.705882%,23.921569%,33.72549%);fill-opacity:1;" d="M 181.792969 197.078125 L 144.085938 197.078125 C 143.996094 197.078125 143.921875 197.003906 143.921875 196.910156 L 143.921875 194.378906 C 143.921875 194.289062 143.996094 194.214844 144.085938 194.214844 L 181.792969 194.214844 C 181.886719 194.214844 181.960938 194.289062 181.960938 194.378906 L 181.960938 196.910156 C 181.960938 197.003906 181.886719 197.078125 181.792969 197.078125 Z M 181.792969 197.078125 "/>
<path style=" stroke:none;fill-rule:nonzero;fill:rgb(24.705882%,23.921569%,33.72549%);fill-opacity:1;" d="M 196.988281 137.429688 C 196.957031 154.085938 184.261719 167.96875 167.726562 169.433594 C 151.191406 170.894531 136.273438 159.457031 133.335938 143.0625 C 130.398438 126.667969 140.410156 110.730469 156.417969 106.320312 C 172.429688 101.914062 189.144531 110.488281 194.957031 126.09375 C 195.027344 126.28125 195.09375 126.472656 195.160156 126.660156 L 195.160156 126.664062 C 195.457031 127.503906 195.71875 128.355469 195.945312 129.226562 C 196.640625 131.90625 196.992188 134.660156 196.988281 137.429688 Z M 196.988281 137.429688 "/>
<path style=" stroke:none;fill-rule:nonzero;fill:rgb(0%,0%,54.509804%);fill-opacity:1;" d="M 161.160156 115.5625 C 158.21875 113.96875 154.707031 113.824219 151.644531 115.171875 C 150.316406 115.753906 148.914062 116.796875 148.472656 118.675781 C 150.265625 117.613281 152.589844 119.292969 153.050781 121.988281 L 152.941406 122.015625 C 152.699219 123.882812 153.242188 125.914062 154.296875 127.070312 C 154.457031 126.015625 155.082031 125.085938 155.996094 124.539062 C 156.773438 124.03125 157.628906 123.660156 158.21875 122.78125 C 158.921875 121.738281 159.097656 120.21875 159.378906 118.828125 C 159.65625 117.441406 160.183594 115.949219 161.160156 115.5625 Z M 161.160156 115.5625 "/>
<path style=" stroke:none;fill-rule:nonzero;fill:rgb(0%,0%,54.509804%);fill-opacity:1;" d="M 151.113281 131.441406 C 150.617188 132.1875 149.953125 132.660156 149.355469 133.246094 C 148.667969 133.871094 148.21875 134.71875 148.078125 135.640625 C 148.003906 136.292969 148.121094 136.953125 148.105469 137.613281 C 148.089844 138.273438 147.867188 139.015625 147.421875 139.179688 C 146.71875 139.433594 146.179688 138.121094 145.453125 138.027344 C 144.878906 137.957031 144.359375 138.867188 144.527344 139.652344 C 144.691406 140.441406 145.476562 140.792969 145.925781 140.277344 C 146.335938 140.960938 146.046875 142.207031 145.4375 142.417969 C 145.371094 142.851562 145.308594 143.28125 145.242188 143.710938 C 143.699219 142.625 142.132812 141.523438 140.820312 139.933594 C 139.355469 138.179688 138.449219 136.027344 138.214844 133.753906 C 138.042969 131.925781 138.296875 129.835938 137.460938 128.429688 C 136.792969 127.304688 135.644531 127.054688 134.609375 127.125 C 134.421875 127.140625 134.230469 127.160156 134.042969 127.183594 C 134.652344 125.347656 135.425781 123.570312 136.355469 121.871094 C 136.566406 121.78125 136.761719 121.660156 136.933594 121.511719 C 137.898438 120.691406 138.324219 119.035156 139.105469 117.886719 C 139.15625 117.8125 139.207031 117.742188 139.261719 117.671875 C 140.058594 116.625 141.128906 116.085938 142.160156 115.585938 C 144.449219 114.472656 146.804688 113.34375 149.21875 113.496094 L 148.53125 113.5625 C 147.730469 115.816406 146.925781 118.070312 146.125 120.324219 C 146 120.671875 145.878906 121.019531 145.753906 121.363281 C 145.296875 122.648438 144.828125 124.011719 144.898438 125.445312 C 144.9375 126.296875 145.234375 127.203125 145.792969 127.496094 C 146.316406 127.765625 146.886719 127.433594 147.390625 127.105469 C 147.605469 126.96875 147.816406 126.832031 148.027344 126.695312 C 148.792969 126.199219 149.644531 125.691406 150.453125 126.023438 C 151.195312 126.324219 151.742188 127.335938 151.84375 128.425781 C 151.941406 129.484375 151.683594 130.542969 151.113281 131.441406 Z M 151.113281 131.441406 "/>
<path style=" stroke:none;fill-rule:nonzero;fill:rgb(0%,0%,54.509804%);fill-opacity:1;" d="M 155.667969 146.828125 C 153.433594 145.449219 151.195312 144.066406 148.957031 142.683594 L 148.996094 142.585938 C 147.605469 143.117188 147.027344 145.597656 147.257812 147.628906 C 147.484375 149.65625 148.265625 151.46875 148.660156 153.449219 C 149.191406 156.152344 148.988281 158.953125 148.078125 161.554688 C 151.019531 158.242188 153.625 154.640625 155.851562 150.808594 C 156.164062 150.324219 156.398438 149.796875 156.554688 149.242188 C 156.71875 148.652344 156.660156 148.023438 156.390625 147.472656 C 156.207031 147.203125 155.960938 146.980469 155.667969 146.828125 Z M 155.667969 146.828125 "/>
<path style=" stroke:none;fill-rule:nonzero;fill:rgb(0%,0%,54.509804%);fill-opacity:1;" d="M 146.839844 121.679688 C 146.574219 122.246094 146.535156 122.890625 146.726562 123.484375 C 146.945312 123.964844 147.347656 124.335938 147.839844 124.519531 L 149.074219 125.132812 C 149.488281 125.339844 149.929688 125.546875 150.351562 125.378906 C 150.855469 125.175781 151.207031 124.378906 151.117188 123.640625 C 151.019531 122.855469 150.523438 122.3125 150.070312 121.851562 C 149.429688 121.210938 148.789062 120.566406 148.152344 119.921875 L 147.792969 120.363281 C 147.402344 120.746094 147.078125 121.1875 146.839844 121.679688 Z M 146.839844 121.679688 "/>
<path style=" stroke:none;fill-rule:nonzero;fill:rgb(0%,0%,54.509804%);fill-opacity:1;" d="M 190.359375 130.082031 C 190.917969 130.210938 191.472656 130.34375 192.027344 130.476562 C 191.933594 132.359375 191 134.105469 189.753906 134.738281 C 189.230469 135 188.652344 135.097656 188.222656 135.589844 C 187.832031 136.035156 187.636719 136.730469 187.453125 137.394531 C 187.136719 138.554688 186.820312 139.714844 186.5 140.871094 C 186.160156 142.121094 185.722656 143.511719 184.835938 143.960938 C 184.074219 144.347656 183.203125 143.875 182.621094 143.082031 C 182.035156 142.285156 181.679688 141.21875 181.332031 140.179688 C 181.351562 141.3125 180.828125 142.425781 180.082031 142.820312 C 179.335938 143.214844 178.429688 142.855469 177.929688 141.976562 C 177.570312 141.34375 177.421875 140.511719 177.070312 139.871094 C 176.71875 139.230469 175.980469 138.863281 175.597656 139.464844 C 175.34375 139.863281 175.375 140.476562 175.25 140.984375 C 175.121094 141.671875 174.570312 142.207031 173.875 142.308594 C 173.25 142.296875 172.652344 142.023438 172.230469 141.554688 C 171.132812 140.425781 170.417969 138.980469 170.1875 137.417969 C 170.03125 136.671875 170.050781 135.898438 170.246094 135.15625 C 170.464844 134.457031 171 133.917969 171.527344 134.050781 C 171.875 133.3125 171.1875 132.332031 170.570312 132.417969 C 169.949219 132.507812 169.460938 133.175781 168.953125 133.6875 C 168.445312 134.199219 167.734375 134.574219 167.222656 134.0625 C 167.234375 134.257812 167.164062 134.453125 167.03125 134.59375 C 166.894531 134.734375 166.707031 134.8125 166.511719 134.8125 C 166.171875 134.710938 165.855469 134.542969 165.582031 134.316406 C 164.410156 133.585938 162.925781 134.070312 162.09375 135.457031 C 162.613281 133.234375 163.375 130.6875 164.972656 130.164062 C 165.625 129.949219 166.339844 130.125 166.957031 129.753906 C 168.050781 129.097656 168.269531 126.613281 167.324219 125.589844 C 167.445312 126.558594 167.421875 127.691406 166.914062 128.351562 C 166.402344 129.015625 165.335938 128.582031 165.398438 127.605469 C 165.367188 127.886719 165.160156 128.117188 164.882812 128.175781 C 164.605469 128.234375 164.324219 128.109375 164.183594 127.863281 C 163.84375 127.34375 163.871094 126.496094 164.113281 125.875 C 164.359375 125.316406 164.714844 124.808594 165.160156 124.386719 C 166.011719 123.46875 166.875 122.542969 167.863281 121.964844 C 168.851562 121.390625 169.992188 121.195312 170.984375 121.769531 C 171.503906 122.070312 171.964844 122.574219 172.496094 122.839844 C 172.753906 123 173.066406 123.050781 173.359375 122.976562 C 173.65625 122.902344 173.90625 122.710938 174.058594 122.449219 C 174.457031 121.75 174.269531 120.714844 174.417969 119.839844 C 174.679688 118.296875 176.21875 117.574219 177.070312 118.59375 C 176.433594 118.429688 175.773438 119.1875 175.695312 120.101562 C 175.617188 121.019531 176.078125 121.945312 176.695312 122.222656 C 177.730469 122.683594 178.746094 121.523438 179.53125 120.449219 C 180.347656 119.328125 181.167969 118.203125 181.988281 117.082031 C 182.121094 116.890625 182.265625 116.710938 182.429688 116.546875 C 182.960938 116.023438 183.804688 116.007812 184.359375 116.503906 C 185.1875 117.183594 185.578125 118.574219 186.257812 119.535156 C 187.246094 120.925781 188.722656 121.265625 190.097656 121.535156 C 191.121094 121.734375 192.144531 121.933594 193.171875 122.136719 C 193.855469 123.414062 194.453125 124.734375 194.957031 126.09375 C 193.078125 126.953125 191.480469 128.335938 190.359375 130.082031 Z M 190.359375 130.082031 "/>
<path style=" stroke:none;fill-rule:nonzero;fill:rgb(0%,0%,54.509804%);fill-opacity:1;" d="M 195.945312 129.226562 C 195.734375 129.847656 195.617188 130.5 195.601562 131.15625 C 194.722656 130.078125 194.582031 128.0625 195.160156 126.664062 C 195.457031 127.503906 195.71875 128.355469 195.945312 129.226562 Z M 195.945312 129.226562 "/>
<path style=" stroke:none;fill-rule:nonzero;fill:rgb(0%,0%,54.509804%);fill-opacity:1;" d="M 193.671875 151.742188 C 192.902344 153.308594 192.007812 154.8125 191 156.234375 C 190.351562 155.957031 189.660156 156.449219 189.054688 156.914062 C 188.421875 157.402344 187.664062 157.875 187.015625 157.429688 C 186.355469 156.976562 186.140625 155.707031 186.351562 154.703125 C 186.589844 153.773438 187.011719 152.902344 187.589844 152.136719 C 188.128906 151.332031 188.707031 150.496094 189.453125 150.179688 C 190.203125 149.867188 191.167969 150.3125 191.386719 151.378906 L 191.917969 151.363281 C 191.621094 150.953125 191.777344 150.101562 192.175781 149.953125 C 192.636719 149.777344 193.039062 150.414062 193.308594 150.976562 C 193.433594 151.230469 193.554688 151.484375 193.671875 151.742188 Z M 193.671875 151.742188 "/>
<path style=" stroke:none;fill-rule:nonzero;fill:rgb(0%,0%,54.509804%);fill-opacity:1;" d="M 173.332031 144.140625 C 172.191406 144.210938 171.285156 142.800781 170.683594 141.414062 C 170.085938 140.027344 169.535156 138.441406 168.507812 137.734375 C 167.917969 137.332031 167.246094 137.273438 166.609375 137.078125 C 165.875 136.894531 165.273438 136.363281 164.996094 135.65625 L 164.273438 135.363281 C 163.257812 135.871094 162.332031 136.535156 161.523438 137.328125 C 160.597656 138.3125 160.023438 139.578125 159.882812 140.921875 C 159.746094 142.378906 160.257812 144 161.210938 144.546875 C 161.964844 144.976562 162.84375 144.707031 163.609375 145.101562 C 164.5625 145.59375 165.128906 147.027344 165.34375 148.445312 C 165.558594 149.859375 165.503906 151.332031 165.65625 152.765625 C 165.808594 154.199219 166.234375 155.6875 167.109375 156.421875 C 168.203125 157.339844 169.8125 156.578125 170.300781 154.90625 C 170.542969 154.085938 170.535156 153.160156 170.714844 152.308594 C 171.03125 150.808594 171.890625 149.695312 172.570312 148.464844 C 173.25 147.238281 173.785156 145.566406 173.332031 144.140625 Z M 173.332031 144.140625 "/>
<path style=" stroke:none;fill-rule:nonzero;fill:rgb(0%,0%,54.509804%);fill-opacity:1;" d="M 162.050781 129.40625 C 162.15625 129.503906 162.257812 129.609375 162.347656 129.722656 C 162.542969 130.054688 162.535156 130.46875 162.332031 130.796875 C 162.609375 130.78125 162.867188 130.648438 163.042969 130.433594 C 163.253906 130.195312 163.4375 129.9375 163.589844 129.660156 C 163.738281 129.46875 163.796875 129.222656 163.753906 128.984375 C 163.699219 128.832031 163.570312 128.765625 163.480469 128.648438 C 163.355469 128.421875 163.273438 128.175781 163.230469 127.917969 C 163.128906 127.429688 162.761719 127.042969 162.28125 126.914062 L 162.339844 126.925781 C 162.140625 127.046875 162.035156 127.277344 162.085938 127.507812 C 162.117188 127.730469 162.261719 127.917969 162.25 128.148438 C 162.226562 128.476562 161.898438 128.632812 161.878906 128.960938 C 161.875 129.125 161.9375 129.285156 162.050781 129.40625 Z M 162.050781 129.40625 "/>
<path style=" stroke:none;fill-rule:nonzero;fill:rgb(0%,0%,54.509804%);fill-opacity:1;" d="M 160.097656 123.804688 L 160.101562 123.804688 C 160.136719 123.773438 160.167969 123.738281 160.199219 123.699219 Z M 160.097656 123.804688 "/>
<path style=" stroke:none;fill-rule:nonzero;fill:rgb(0%,0%,54.509804%);fill-opacity:1;" d="M 160.4375 125.351562 C 160.71875 125.105469 160.835938 124.726562 160.75 124.363281 C 160.664062 123.988281 160.371094 123.734375 160.101562 123.804688 C 159.941406 123.96875 159.710938 124.035156 159.488281 123.988281 C 159.320312 123.941406 159.136719 123.832031 158.992188 123.957031 C 158.910156 124.054688 158.851562 124.167969 158.820312 124.289062 C 158.769531 124.453125 158.714844 124.621094 158.660156 124.785156 C 158.636719 124.84375 158.628906 124.910156 158.640625 124.972656 C 158.664062 125.027344 158.710938 125.0625 158.765625 125.070312 C 159.085938 125.167969 159.410156 125.261719 159.730469 125.359375 C 159.957031 125.460938 160.214844 125.460938 160.4375 125.351562 Z M 160.4375 125.351562 "/>
<path style=" stroke:none;fill-rule:nonzero;fill:rgb(0%,0%,54.509804%);fill-opacity:1;" d="M 184.777344 146.707031 C 184.625 146.460938 184.476562 146.214844 184.328125 145.972656 C 184.183594 145.6875 183.980469 145.4375 183.738281 145.230469 C 183.632812 145.140625 183.492188 145.09375 183.351562 145.109375 C 183.210938 145.125 183.082031 145.195312 182.996094 145.304688 L 183.015625 145.445312 C 183.414062 145.875 183.683594 146.40625 183.800781 146.980469 C 183.832031 147.230469 183.820312 147.492188 183.851562 147.742188 C 183.859375 147.976562 183.957031 148.199219 184.128906 148.363281 C 184.363281 148.519531 184.636719 148.289062 184.804688 148.003906 C 184.953125 147.773438 185.019531 147.496094 184.996094 147.21875 C 184.957031 147.035156 184.882812 146.859375 184.777344 146.707031 Z M 184.777344 146.707031 "/>
<path style=" stroke:none;fill-rule:nonzero;fill:rgb(0%,0%,54.509804%);fill-opacity:1;" d="M 187.113281 147.023438 C 187.140625 146.796875 187.125 146.5625 187.058594 146.339844 C 187.046875 146.042969 187.128906 145.746094 187.285156 145.492188 C 187.445312 145.25 187.5625 144.988281 187.640625 144.710938 C 187.671875 144.585938 187.667969 144.453125 187.625 144.328125 C 187.574219 144.21875 187.453125 144.167969 187.386719 144.253906 L 187.53125 144.347656 C 187.335938 144.3125 187.132812 144.324219 186.9375 144.378906 C 186.714844 144.464844 186.546875 144.65625 186.488281 144.886719 C 186.460938 145.066406 186.421875 145.246094 186.367188 145.417969 C 186.28125 145.597656 186.113281 145.660156 186.003906 145.816406 C 185.859375 146.101562 185.863281 146.441406 186.019531 146.722656 C 186.152344 146.949219 186.367188 147.117188 186.617188 147.191406 C 186.796875 147.257812 187.03125 147.261719 187.113281 147.023438 Z M 187.113281 147.023438 "/>
<path style=" stroke:none;fill-rule:nonzero;fill:rgb(0%,0%,54.509804%);fill-opacity:1;" d="M 191.277344 148.285156 C 191.339844 148.453125 191.429688 148.613281 191.535156 148.761719 C 191.734375 148.960938 192.003906 148.835938 192.246094 148.789062 C 192.691406 148.71875 193.144531 148.898438 193.417969 149.261719 C 193.226562 148.308594 192.585938 147.507812 191.703125 147.113281 C 191.136719 146.917969 190.539062 146.824219 189.941406 146.835938 L 189.835938 146.863281 C 190.097656 147.625 190.917969 147.609375 191.277344 148.285156 Z M 191.277344 148.285156 "/>
<path style=" stroke:none;fill-rule:nonzero;fill:rgb(0%,0%,54.509804%);fill-opacity:1;" d="M 173.644531 149.84375 L 173.644531 149.847656 L 173.675781 149.789062 Z M 173.644531 149.84375 "/>
<path style=" stroke:none;fill-rule:nonzero;fill:rgb(0%,0%,54.509804%);fill-opacity:1;" d="M 173.011719 151.070312 C 172.875 151.320312 172.757812 151.582031 172.660156 151.851562 C 172.527344 152.289062 172.441406 152.734375 172.402344 153.1875 C 172.371094 153.445312 172.359375 153.773438 172.519531 153.898438 C 172.617188 153.964844 172.742188 153.945312 172.820312 153.859375 C 172.90625 153.765625 172.980469 153.65625 173.035156 153.535156 C 173.351562 152.992188 173.597656 152.40625 173.765625 151.796875 C 173.941406 151.152344 173.898438 150.464844 173.644531 149.847656 C 173.433594 150.253906 173.222656 150.664062 173.011719 151.070312 Z M 173.011719 151.070312 "/>
<path style=" stroke:none;fill-rule:nonzero;fill:rgb(0%,0%,54.509804%);fill-opacity:1;" d="M 166.921875 118.390625 C 167.125 118.589844 167.429688 118.648438 167.695312 118.542969 C 167.964844 118.421875 168.210938 118.257812 168.425781 118.058594 C 168.601562 117.925781 168.75 117.761719 168.867188 117.574219 C 168.992188 117.347656 169.027344 117.078125 168.957031 116.828125 C 168.855469 116.585938 168.636719 116.410156 168.378906 116.367188 C 168.023438 116.261719 167.664062 116.15625 167.304688 116.050781 L 167.566406 115.816406 C 167.296875 115.671875 167.003906 115.9375 166.835938 116.265625 C 166.730469 116.484375 166.65625 116.710938 166.617188 116.949219 C 166.503906 117.449219 166.613281 117.976562 166.921875 118.390625 Z M 166.921875 118.390625 "/>
<path style=" stroke:none;fill-rule:nonzero;fill:rgb(0%,0%,54.509804%);fill-opacity:1;" d="M 173.238281 116.261719 C 173.445312 116.492188 173.800781 116.519531 174.042969 116.328125 C 174.246094 116.171875 174.378906 115.9375 174.398438 115.683594 C 174.425781 115.402344 174.285156 115.085938 174.085938 115.0625 L 174.132812 114.796875 C 173.75 114.726562 173.277344 114.714844 173.074219 115.179688 C 172.933594 115.542969 172.996094 115.957031 173.238281 116.261719 Z M 173.238281 116.261719 "/>
<path style=" stroke:none;fill-rule:nonzero;fill:rgb(79.215686%,79.215686%,79.215686%);fill-opacity:1;" d="M 230.335938 96.992188 L 99.046875 96.992188 C 98.859375 96.988281 98.710938 96.832031 98.710938 96.644531 C 98.710938 96.457031 98.859375 96.304688 99.046875 96.300781 L 230.335938 96.300781 C 230.523438 96.304688 230.671875 96.457031 230.671875 96.644531 C 230.671875 96.832031 230.523438 96.988281 230.335938 96.992188 Z M 230.335938 96.992188 "/>
<path style=" stroke:none;fill-rule:nonzero;fill:rgb(24.705882%,23.921569%,33.72549%);fill-opacity:1;" d="M 110.328125 88.355469 C 110.328125 86.257812 108.671875 84.558594 106.625 84.558594 C 104.582031 84.558594 102.921875 86.257812 102.921875 88.355469 C 102.921875 90.457031 104.582031 92.15625 106.625 92.15625 C 108.671875 92.15625 110.328125 90.457031 110.328125 88.355469 Z M 110.328125 88.355469 "/>
<path style=" stroke:none;fill-rule:nonzero;fill:rgb(24.705882%,23.921569%,33.72549%);fill-opacity:1;" d="M 123.121094 88.355469 C 123.121094 86.257812 121.464844 84.558594 119.417969 84.558594 C 117.375 84.558594 115.714844 86.257812 115.714844 88.355469 C 115.714844 90.457031 117.375 92.15625 119.417969 92.15625 C 121.464844 92.15625 123.121094 90.457031 123.121094 88.355469 Z M 123.121094 88.355469 "/>
<path style=" stroke:none;fill-rule:nonzero;fill:rgb(24.705882%,23.921569%,33.72549%);fill-opacity:1;" d="M 135.914062 88.355469 C 135.914062 86.257812 134.257812 84.558594 132.210938 84.558594 C 130.167969 84.558594 128.507812 86.257812 128.507812 88.355469 C 128.507812 90.457031 130.167969 92.15625 132.210938 92.15625 C 134.257812 92.15625 135.914062 90.457031 135.914062 88.355469 Z M 135.914062 88.355469 "/>
<path style=" stroke:none;fill-rule:nonzero;fill:rgb(24.705882%,23.921569%,33.72549%);fill-opacity:1;" d="M 222.667969 85.5 L 213.582031 85.5 C 213.207031 85.507812 212.90625 85.816406 212.90625 86.191406 C 212.90625 86.566406 213.207031 86.875 213.582031 86.882812 L 222.667969 86.882812 C 223.042969 86.875 223.34375 86.566406 223.34375 86.191406 C 223.34375 85.816406 223.042969 85.507812 222.667969 85.5 Z M 222.667969 85.5 "/>
<path style=" stroke:none;fill-rule:nonzero;fill:rgb(24.705882%,23.921569%,33.72549%);fill-opacity:1;" d="M 222.667969 88.09375 L 213.582031 88.09375 C 213.207031 88.097656 212.90625 88.40625 212.90625 88.78125 C 212.90625 89.160156 213.207031 89.464844 213.582031 89.472656 L 222.667969 89.472656 C 223.042969 89.464844 223.34375 89.160156 223.34375 88.78125 C 223.34375 88.40625 223.042969 88.097656 222.667969 88.09375 Z M 222.667969 88.09375 "/>
<path style=" stroke:none;fill-rule:nonzero;fill:rgb(24.705882%,23.921569%,33.72549%);fill-opacity:1;" d="M 222.667969 90.679688 L 213.582031 90.679688 C 213.207031 90.6875 212.90625 90.996094 212.90625 91.371094 C 212.90625 91.746094 213.207031 92.054688 213.582031 92.0625 L 222.667969 92.0625 C 223.042969 92.054688 223.34375 91.746094 223.34375 91.371094 C 223.34375 90.996094 223.042969 90.6875 222.667969 90.679688 Z M 222.667969 90.679688 "/>
<use xlink:href="#surface5" mask="url(#mask0)"/>
</g>
</svg>
