<?xml version="1.0" encoding="UTF-8"?>
<svg xmlns="http://www.w3.org/2000/svg" xmlns:xlink="http://www.w3.org/1999/xlink" width="1280px" height="857px" viewBox="0 0 1279 857" version="1.1">
<g id="surface1">
<path style=" stroke:none;fill-rule:nonzero;fill:rgb(90.196078%,90.196078%,90.196078%);fill-opacity:1;" d="M 1276.144531 106.417969 L 2.246094 106.417969 C 1.007812 106.417969 0 105.410156 0 104.167969 C 0 102.925781 1.007812 101.917969 2.246094 101.917969 L 1276.144531 101.917969 C 1277.386719 101.917969 1278.394531 102.925781 1278.394531 104.167969 C 1278.394531 105.410156 1277.386719 106.417969 1276.144531 106.417969 Z M 1276.144531 106.417969 "/>
<path style=" stroke:none;fill-rule:nonzero;fill:rgb(90.196078%,90.196078%,90.196078%);fill-opacity:1;" d="M 84.992188 19.445312 C 84.992188 8.707031 76.480469 0 65.984375 0 C 55.484375 0 46.976562 8.707031 46.976562 19.445312 C 46.976562 30.183594 55.484375 38.890625 65.984375 38.890625 C 76.480469 38.890625 84.992188 30.183594 84.992188 19.445312 Z M 84.992188 19.445312 "/>
<path style=" stroke:none;fill-rule:nonzero;fill:rgb(90.196078%,90.196078%,90.196078%);fill-opacity:1;" d="M 150.660156 19.445312 C 150.660156 8.707031 142.148438 0 131.652344 0 C 121.152344 0 112.640625 8.707031 112.640625 19.445312 C 112.640625 30.183594 121.152344 38.890625 131.652344 38.890625 C 142.148438 38.890625 150.660156 30.183594 150.660156 19.445312 Z M 150.660156 19.445312 "/>
<path style=" stroke:none;fill-rule:nonzero;fill:rgb(90.196078%,90.196078%,90.196078%);fill-opacity:1;" d="M 216.328125 19.445312 C 216.328125 8.707031 207.816406 0 197.316406 0 C 186.820312 0 178.308594 8.707031 178.308594 19.445312 C 178.308594 30.183594 186.820312 38.890625 197.316406 38.890625 C 207.816406 38.890625 216.328125 30.183594 216.328125 19.445312 Z M 216.328125 19.445312 "/>
<path style=" stroke:none;fill-rule:nonzero;fill:rgb(90.196078%,90.196078%,90.196078%);fill-opacity:1;" d="M 272.195312 34.816406 C 271.589844 34.816406 271.011719 34.570312 270.589844 34.136719 L 257.761719 21.019531 C 256.90625 20.144531 256.90625 18.746094 257.761719 17.871094 L 270.589844 4.753906 C 271.457031 3.878906 272.871094 3.871094 273.753906 4.734375 C 274.632812 5.597656 274.65625 7.007812 273.800781 7.898438 L 262.511719 19.445312 L 273.800781 30.992188 C 274.433594 31.640625 274.617188 32.605469 274.265625 33.4375 C 273.914062 34.273438 273.097656 34.816406 272.195312 34.816406 Z M 272.195312 34.816406 "/>
<path style=" stroke:none;fill-rule:nonzero;fill:rgb(90.196078%,90.196078%,90.196078%);fill-opacity:1;" d="M 293.746094 34.816406 C 292.84375 34.816406 292.027344 34.273438 291.675781 33.4375 C 291.324219 32.605469 291.507812 31.640625 292.140625 30.992188 L 303.429688 19.445312 L 292.140625 7.898438 C 291.285156 7.007812 291.308594 5.597656 292.191406 4.734375 C 293.074219 3.871094 294.484375 3.878906 295.355469 4.753906 L 308.179688 17.871094 C 309.035156 18.746094 309.035156 20.144531 308.179688 21.019531 L 295.355469 34.136719 C 294.933594 34.570312 294.351562 34.816406 293.746094 34.816406 Z M 293.746094 34.816406 "/>
<path style=" stroke:none;fill-rule:nonzero;fill:rgb(90.196078%,90.196078%,90.196078%);fill-opacity:1;" d="M 1162.546875 2.25 L 1138.695312 2.25 C 1135.976562 2.25 1133.773438 4.457031 1133.773438 7.175781 L 1133.773438 31.066406 C 1133.773438 33.785156 1135.976562 35.992188 1138.695312 35.992188 L 1162.546875 35.992188 C 1165.269531 35.996094 1167.480469 33.789062 1167.492188 31.066406 L 1167.492188 7.175781 C 1167.480469 4.453125 1165.269531 2.25 1162.546875 2.25 Z M 1162.546875 2.25 "/>
<path style=" stroke:none;fill-rule:nonzero;fill:rgb(90.196078%,90.196078%,90.196078%);fill-opacity:1;" d="M 1104.101562 2.25 L 1080.253906 2.25 C 1077.535156 2.25 1075.332031 4.457031 1075.332031 7.175781 L 1075.332031 31.066406 C 1075.332031 33.785156 1077.535156 35.992188 1080.253906 35.992188 L 1104.101562 35.992188 C 1106.828125 35.996094 1109.039062 33.789062 1109.046875 31.066406 L 1109.046875 7.175781 C 1109.039062 4.453125 1106.828125 2.25 1104.101562 2.25 Z M 1104.101562 2.25 "/>
<path style=" stroke:none;fill-rule:nonzero;fill:rgb(90.196078%,90.196078%,90.196078%);fill-opacity:1;" d="M 1217.617188 3.375 L 1193.769531 3.375 C 1191.046875 3.375 1188.84375 5.582031 1188.84375 8.300781 L 1188.84375 32.191406 C 1188.84375 34.910156 1191.046875 37.117188 1193.769531 37.117188 L 1217.617188 37.117188 C 1220.339844 37.117188 1222.550781 34.914062 1222.5625 32.191406 L 1222.5625 8.300781 C 1222.550781 5.578125 1220.339844 3.375 1217.617188 3.375 Z M 1217.617188 3.375 "/>
<path style=" stroke:none;fill-rule:nonzero;fill:rgb(90.196078%,90.196078%,90.196078%);fill-opacity:1;" d="M 734.515625 12.464844 L 543.878906 12.464844 C 540.566406 12.464844 537.878906 15.152344 537.878906 18.46875 C 537.878906 21.785156 540.566406 24.476562 543.878906 24.476562 L 734.515625 24.476562 C 737.828125 24.476562 740.515625 21.785156 740.515625 18.46875 C 740.515625 15.152344 737.828125 12.464844 734.515625 12.464844 Z M 734.515625 12.464844 "/>
<path style=" stroke:none;fill-rule:nonzero;fill:rgb(100%,100%,100%);fill-opacity:1;" d="M 414.878906 597.875 L 226.0625 597.875 C 206.820312 597.875 191.222656 613.484375 191.222656 632.742188 C 191.222656 651.996094 206.820312 667.605469 226.0625 667.605469 L 414.878906 667.605469 C 434.121094 667.605469 449.71875 651.996094 449.71875 632.742188 C 449.71875 613.484375 434.121094 597.875 414.878906 597.875 Z M 414.878906 597.875 "/>
<path style=" stroke:none;fill-rule:nonzero;fill:rgb(0%,0%,54.509804%);fill-opacity:1;" d="M 414.878906 669.855469 L 226.0625 669.855469 C 205.578125 669.855469 188.976562 653.238281 188.976562 632.742188 C 188.976562 612.242188 205.578125 595.628906 226.0625 595.628906 L 414.878906 595.628906 C 435.363281 595.628906 451.96875 612.242188 451.96875 632.742188 C 451.96875 653.238281 435.363281 669.855469 414.878906 669.855469 Z M 226.0625 600.125 C 208.0625 600.125 193.46875 614.726562 193.46875 632.742188 C 193.46875 650.753906 208.0625 665.355469 226.0625 665.355469 L 414.878906 665.355469 C 432.878906 665.355469 447.472656 650.753906 447.472656 632.742188 C 447.472656 614.726562 432.878906 600.125 414.878906 600.125 Z M 226.0625 600.125 "/>
<path style=" stroke:none;fill-rule:nonzero;fill:rgb(94.901961%,94.901961%,94.901961%);fill-opacity:1;" d="M 655.621094 233.007812 L 1165.859375 233.007812 C 1199.058594 233.007812 1225.972656 259.941406 1225.972656 293.164062 L 1225.972656 797.246094 C 1225.972656 830.472656 1199.058594 857.402344 1165.859375 857.402344 L 655.621094 857.402344 C 622.421875 857.402344 595.507812 830.472656 595.507812 797.246094 L 595.507812 293.164062 C 595.507812 259.941406 622.421875 233.007812 655.621094 233.007812 Z M 655.621094 233.007812 "/>
<path style=" stroke:none;fill-rule:nonzero;fill:rgb(100%,71.372549%,71.372549%);fill-opacity:1;" d="M 935.328125 490.542969 C 932.066406 486.972656 932.238281 481.453125 935.714844 478.089844 C 936.058594 477.769531 936.429688 477.472656 936.824219 477.210938 L 929.300781 446.976562 L 943.289062 437.757812 L 949.121094 480.292969 C 951.09375 483.824219 950.4375 488.242188 947.53125 491.050781 C 944.113281 494.285156 938.722656 494.136719 935.488281 490.714844 C 935.433594 490.660156 935.382812 490.601562 935.328125 490.542969 Z M 935.328125 490.542969 "/>
<path style=" stroke:none;fill-rule:nonzero;fill:rgb(0%,0%,54.509804%);fill-opacity:1;" d="M 949.832031 460.734375 L 931.484375 462.4375 L 904.238281 366.542969 C 904.15625 366.277344 896.089844 339.34375 887.941406 335.132812 C 884.902344 333.5625 883.792969 332.625 883.835938 331.675781 C 883.882812 330.691406 885.113281 330.191406 886.820312 329.5 C 888.535156 328.890625 890.152344 328.035156 891.628906 326.964844 C 895.347656 324.023438 893.710938 321.191406 891.449219 317.269531 C 891.011719 316.511719 890.554688 315.71875 890.117188 314.890625 C 888.828125 312.449219 890.269531 302.066406 894.402344 284.03125 C 896.925781 272.960938 906.296875 264.78125 917.597656 263.785156 C 924.632812 263.15625 931.625 265.390625 936.988281 269.992188 C 942.351562 274.589844 945.632812 281.160156 946.085938 288.210938 L 949.667969 343.746094 Z M 949.832031 460.734375 "/>
<path style=" stroke:none;fill-rule:nonzero;fill:rgb(100%,71.372549%,71.372549%);fill-opacity:1;" d="M 877.773438 802.285156 L 865.011719 802.179688 L 859.359375 751.765625 L 878.199219 751.925781 Z M 877.773438 802.285156 "/>
<path style=" stroke:none;fill-rule:nonzero;fill:rgb(18.431373%,18.039216%,25.490196%);fill-opacity:1;" d="M 836.890625 822.597656 C 836.867188 825.75 839.398438 828.328125 842.550781 828.359375 L 867.925781 828.570312 L 872.367188 819.558594 L 874 828.617188 L 883.574219 828.703125 L 881.15625 796.398438 L 877.824219 796.175781 L 864.238281 795.238281 L 859.855469 794.945312 L 859.777344 804.085938 L 839.390625 817.921875 C 837.84375 818.976562 836.90625 820.722656 836.890625 822.597656 Z M 836.890625 822.597656 "/>
<path style=" stroke:none;fill-rule:nonzero;fill:rgb(100%,71.372549%,71.372549%);fill-opacity:1;" d="M 1012.152344 792.957031 L 999.957031 796.707031 L 979.359375 750.355469 L 997.367188 744.816406 Z M 1012.152344 792.957031 "/>
<path style=" stroke:none;fill-rule:nonzero;fill:rgb(18.431373%,18.039216%,25.490196%);fill-opacity:1;" d="M 979.304688 824.667969 C 980.234375 827.679688 983.425781 829.371094 986.4375 828.449219 L 1010.695312 820.988281 L 1012.210938 811.054688 L 1016.5 819.195312 L 1025.652344 816.386719 L 1013.605469 786.320312 L 1010.359375 787.117188 L 997.125 790.328125 L 992.855469 791.371094 L 995.539062 800.105469 L 980.28125 819.457031 C 979.121094 820.925781 978.753906 822.875 979.304688 824.667969 Z M 979.304688 824.667969 "/>
<path style=" stroke:none;fill-rule:nonzero;fill:rgb(18.431373%,18.039216%,25.490196%);fill-opacity:1;" d="M 852.101562 378.386719 L 827.742188 449.21875 L 826.941406 454.890625 C 820.800781 460.71875 828.511719 462.640625 825.621094 464.179688 C 822.730469 465.714844 820.785156 470.027344 824.683594 470.796875 C 828.578125 471.566406 827.050781 751.933594 843.617188 762.664062 C 860.1875 773.390625 898.433594 785.300781 895.390625 769.59375 C 892.347656 753.886719 893.460938 559.902344 893.460938 559.902344 C 893.460938 559.902344 974.785156 766.433594 980.34375 766.5 C 985.902344 766.5625 1025.636719 751.628906 1023.796875 744.46875 C 1021.960938 737.308594 949.792969 558.007812 954.691406 551.113281 C 959.589844 544.214844 961.453125 541.21875 956.625 540.765625 C 951.792969 540.316406 950.367188 542.964844 950.105469 536.277344 C 949.84375 529.585938 949.011719 513.089844 949.011719 513.089844 C 949.011719 513.089844 945.511719 447.851562 921.007812 411.808594 L 918.917969 390.390625 Z M 852.101562 378.386719 "/>
<path style=" stroke:none;fill-rule:nonzero;fill:rgb(0%,0%,54.509804%);fill-opacity:1;" d="M 912.953125 243.148438 L 880.652344 247.75 L 878.703125 271.15625 L 862.761719 296.105469 C 862.761719 296.105469 827.332031 321.058594 852.042969 360.472656 L 850.441406 382.332031 L 930.351562 414.511719 L 938.042969 274.304688 Z M 912.953125 243.148438 "/>
<path style=" stroke:none;fill-rule:nonzero;fill:rgb(100%,71.372549%,71.372549%);fill-opacity:1;" d="M 858.796875 498.625 C 856.683594 494.273438 858.417969 489.03125 862.707031 486.796875 C 863.128906 486.585938 863.570312 486.410156 864.019531 486.269531 L 865.40625 455.144531 L 881.4375 450.289062 L 874.933594 492.726562 C 875.820312 496.671875 873.9375 500.722656 870.347656 502.585938 C 866.152344 504.714844 861.027344 503.035156 858.902344 498.835938 C 858.867188 498.765625 858.832031 498.695312 858.796875 498.625 Z M 858.796875 498.625 "/>
<path style=" stroke:none;fill-rule:nonzero;fill:rgb(0%,0%,54.509804%);fill-opacity:1;" d="M 881.175781 474.175781 L 863.101562 470.585938 L 864.246094 370.898438 C 864.246094 370.621094 864.167969 342.503906 857.554688 336.144531 C 855.089844 333.777344 854.289062 332.5625 854.601562 331.660156 C 854.925781 330.730469 856.25 330.605469 858.082031 330.429688 C 859.898438 330.328125 861.695312 329.972656 863.414062 329.367188 C 867.8125 327.605469 867.050781 324.425781 865.996094 320.023438 C 865.792969 319.167969 865.578125 318.277344 865.398438 317.359375 C 864.855469 314.652344 869.1875 305.109375 878.277344 288.996094 C 883.84375 279.101562 895.152344 273.929688 906.273438 276.191406 C 913.195312 277.589844 919.261719 281.726562 923.09375 287.660156 C 926.929688 293.59375 928.207031 300.828125 926.636719 307.71875 L 914.285156 361.976562 Z M 881.175781 474.175781 "/>
<path style=" stroke:none;fill-rule:nonzero;fill:rgb(100%,71.372549%,71.372549%);fill-opacity:1;" d="M 929.652344 206.179688 C 929.652344 226.125 913.496094 242.296875 893.558594 242.296875 C 873.625 242.296875 857.46875 226.125 857.46875 206.179688 C 857.46875 186.230469 873.625 170.0625 893.558594 170.0625 C 913.496094 170.0625 929.652344 186.230469 929.652344 206.179688 Z M 929.652344 206.179688 "/>
<path style=" stroke:none;fill-rule:nonzero;fill:rgb(18.431373%,18.039216%,25.490196%);fill-opacity:1;" d="M 941.390625 256.261719 C 946.234375 263.199219 949.476562 271.128906 950.878906 279.476562 C 946.972656 281.976562 942.429688 283.289062 937.796875 283.253906 C 937.636719 282.648438 937.480469 282.039062 937.300781 281.433594 C 935.957031 276.730469 933.960938 272.238281 931.367188 268.09375 C 931.722656 272.5625 931.117188 277.058594 929.589844 281.273438 C 927.140625 280.160156 924.519531 279.484375 921.835938 279.273438 C 919.652344 279.273438 917.496094 279.78125 915.542969 280.757812 C 913.273438 273.222656 911.183594 266.292969 909.699219 261.324219 C 909.652344 273.785156 891.402344 284.648438 871.484375 283.074219 C 870.765625 282.625 877.980469 262.132812 877.285156 261.660156 C 875.6875 260.601562 874.136719 259.457031 872.585938 258.332031 C 879.105469 248.253906 886.1875 237.457031 884.972656 235.839844 C 885.0625 237.839844 877.914062 247.46875 870.136719 256.554688 C 865.820312 253.382812 890.34375 201.78125 878.230469 197.597656 C 878.027344 199.421875 875.351562 199.421875 872.09375 199.039062 C 871.234375 196.03125 869.953125 193.164062 868.292969 190.515625 C 868.507812 193.183594 868.1875 195.867188 867.347656 198.410156 C 864.132812 198.410156 860.921875 198.75 857.773438 199.421875 C 857.046875 198.273438 856.242188 197.175781 855.367188 196.136719 C 855.453125 197.40625 855.417969 198.679688 855.257812 199.9375 C 853.039062 200.191406 850.90625 200.925781 849.007812 202.097656 C 846.488281 201.175781 850.785156 197.015625 849.210938 194.855469 C 845.207031 189.457031 851.144531 181.585938 854.898438 176.003906 C 863.265625 164.417969 878.890625 160.777344 891.511719 167.480469 C 892.054688 165.613281 894.816406 164.375 898.371094 163.542969 C 899.875 163.210938 901.414062 163.070312 902.953125 163.117188 C 918.238281 163.386719 939.460938 176.003906 940.289062 191.277344 C 940.359375 192.808594 940.46875 194.472656 940.582031 196.25 C 941.660156 213.34375 940.335938 229.113281 952 241.621094 C 956.226562 246.140625 956.273438 267.554688 954.652344 278.574219 C 950.449219 274.144531 947.460938 256.914062 941.390625 256.261719 Z M 941.390625 256.261719 "/>
<path style=" stroke:none;fill-rule:nonzero;fill:rgb(80%,80%,80%);fill-opacity:1;" d="M 734.554688 826.804688 C 734.550781 827.515625 734.832031 828.199219 735.335938 828.699219 C 735.835938 829.203125 736.519531 829.484375 737.226562 829.480469 L 1108.765625 829.480469 C 1110.246094 829.480469 1111.441406 828.28125 1111.441406 826.804688 C 1111.441406 825.328125 1110.246094 824.128906 1108.765625 824.128906 L 737.226562 824.128906 C 736.519531 824.125 735.835938 824.40625 735.335938 824.910156 C 734.832031 825.414062 734.550781 826.09375 734.554688 826.804688 Z M 734.554688 826.804688 "/>
<path style=" stroke:none;fill-rule:nonzero;fill:rgb(24.705882%,23.921569%,33.72549%);fill-opacity:1;" d="M 555.722656 275.527344 L 96.257812 275.527344 C 90.785156 275.527344 86.347656 271.085938 86.347656 265.613281 C 86.347656 260.136719 90.785156 255.695312 96.257812 255.695312 L 555.722656 255.695312 C 561.195312 255.695312 565.628906 260.136719 565.628906 265.613281 C 565.628906 271.085938 561.195312 275.527344 555.722656 275.527344 Z M 555.722656 275.527344 "/>
<path style=" stroke:none;fill-rule:nonzero;fill:rgb(0%,0%,54.509804%);fill-opacity:1;" d="M 555.722656 486.964844 L 96.257812 486.964844 C 90.785156 486.964844 86.347656 482.527344 86.347656 477.050781 C 86.347656 471.574219 90.785156 467.132812 96.257812 467.132812 L 555.722656 467.132812 C 561.195312 467.132812 565.628906 471.574219 565.628906 477.050781 C 565.628906 482.527344 561.195312 486.964844 555.722656 486.964844 Z M 555.722656 486.964844 "/>
<path style=" stroke:none;fill-rule:nonzero;fill:rgb(0%,0%,54.509804%);fill-opacity:1;" d="M 788.3125 381.316406 L 96.257812 381.316406 C 90.785156 381.316406 86.347656 376.875 86.347656 371.398438 C 86.347656 365.925781 90.785156 361.484375 96.257812 361.484375 L 788.3125 361.484375 C 793.78125 361.484375 798.21875 365.925781 798.21875 371.398438 C 798.21875 376.875 793.78125 381.316406 788.3125 381.316406 Z M 788.3125 381.316406 "/>
<path style=" stroke:none;fill-rule:nonzero;fill:rgb(24.705882%,23.921569%,33.72549%);fill-opacity:1;" d="M 565.628906 516.757812 C 564.386719 516.757812 563.382812 515.75 563.378906 514.507812 L 563.378906 439.589844 C 563.378906 438.347656 564.386719 437.339844 565.628906 437.339844 C 566.871094 437.339844 567.875 438.347656 567.875 439.589844 L 567.875 514.507812 C 567.875 515.75 566.871094 516.757812 565.628906 516.757812 Z M 565.628906 516.757812 "/>
<path style=" stroke:none;fill-rule:nonzero;fill:rgb(24.705882%,23.921569%,33.72549%);fill-opacity:1;" d="M 47.097656 227.40625 C 47.097656 226.164062 48.105469 225.160156 49.347656 225.160156 L 124.214844 225.160156 C 125.453125 225.160156 126.460938 226.164062 126.460938 227.40625 C 126.460938 228.648438 125.453125 229.65625 124.214844 229.65625 L 49.347656 229.65625 C 48.105469 229.65625 47.097656 228.648438 47.097656 227.40625 Z M 47.097656 227.40625 "/>
<path style=" stroke:none;fill-rule:nonzero;fill:rgb(24.705882%,23.921569%,33.72549%);fill-opacity:1;" d="M 86.78125 305.320312 C 85.539062 305.320312 84.53125 304.3125 84.53125 303.070312 L 84.53125 228.152344 C 84.53125 226.910156 85.539062 225.902344 86.78125 225.902344 C 88.019531 225.902344 89.027344 226.910156 89.027344 228.152344 L 89.027344 303.070312 C 89.027344 304.3125 88.019531 305.320312 86.78125 305.320312 Z M 86.78125 305.320312 "/>
</g>
</svg>
