<?xml version="1.0" encoding="UTF-8"?>
<svg xmlns="http://www.w3.org/2000/svg" xmlns:xlink="http://www.w3.org/1999/xlink" width="600px" height="402px" viewBox="0 0 600 402" version="1.1">
<g id="surface1">
<path style=" stroke:none;fill-rule:nonzero;fill:rgb(90.196078%,90.196078%,90.196078%);fill-opacity:1;" d="M 598.660156 49.917969 L 1.054688 49.917969 C 0.472656 49.917969 0 49.445312 0 48.863281 C 0 48.28125 0.472656 47.808594 1.054688 47.808594 L 598.660156 47.808594 C 599.242188 47.808594 599.714844 48.28125 599.714844 48.863281 C 599.714844 49.445312 599.242188 49.917969 598.660156 49.917969 Z M 598.660156 49.917969 "/>
<path style=" stroke:none;fill-rule:nonzero;fill:rgb(90.196078%,90.196078%,90.196078%);fill-opacity:1;" d="M 39.871094 9.121094 C 39.871094 4.082031 35.878906 0 30.953125 0 C 26.027344 0 22.035156 4.082031 22.035156 9.121094 C 22.035156 14.160156 26.027344 18.242188 30.953125 18.242188 C 35.878906 18.242188 39.871094 14.160156 39.871094 9.121094 Z M 39.871094 9.121094 "/>
<path style=" stroke:none;fill-rule:nonzero;fill:rgb(90.196078%,90.196078%,90.196078%);fill-opacity:1;" d="M 70.675781 9.121094 C 70.675781 4.082031 66.683594 0 61.757812 0 C 56.835938 0 52.84375 4.082031 52.84375 9.121094 C 52.84375 14.160156 56.835938 18.242188 61.757812 18.242188 C 66.683594 18.242188 70.675781 14.160156 70.675781 9.121094 Z M 70.675781 9.121094 "/>
<path style=" stroke:none;fill-rule:nonzero;fill:rgb(90.196078%,90.196078%,90.196078%);fill-opacity:1;" d="M 101.480469 9.121094 C 101.480469 4.082031 97.488281 0 92.566406 0 C 87.640625 0 83.648438 4.082031 83.648438 9.121094 C 83.648438 14.160156 87.640625 18.242188 92.566406 18.242188 C 97.488281 18.242188 101.480469 14.160156 101.480469 9.121094 Z M 101.480469 9.121094 "/>
<path style=" stroke:none;fill-rule:nonzero;fill:rgb(90.196078%,90.196078%,90.196078%);fill-opacity:1;" d="M 127.691406 16.332031 C 127.40625 16.332031 127.136719 16.21875 126.9375 16.011719 L 120.921875 9.859375 C 120.519531 9.449219 120.519531 8.792969 120.921875 8.382812 L 126.9375 2.230469 C 127.347656 1.820312 128.007812 1.816406 128.421875 2.21875 C 128.835938 2.625 128.84375 3.289062 128.445312 3.707031 L 123.148438 9.121094 L 128.445312 14.539062 C 128.742188 14.839844 128.828125 15.292969 128.664062 15.683594 C 128.5 16.078125 128.117188 16.332031 127.691406 16.332031 Z M 127.691406 16.332031 "/>
<path style=" stroke:none;fill-rule:nonzero;fill:rgb(90.196078%,90.196078%,90.196078%);fill-opacity:1;" d="M 137.800781 16.332031 C 137.378906 16.332031 136.996094 16.078125 136.828125 15.683594 C 136.664062 15.292969 136.75 14.839844 137.046875 14.539062 L 142.34375 9.121094 L 137.046875 3.707031 C 136.648438 3.289062 136.65625 2.625 137.070312 2.21875 C 137.484375 1.816406 138.148438 1.820312 138.554688 2.230469 L 144.570312 8.382812 C 144.972656 8.792969 144.972656 9.449219 144.570312 9.859375 L 138.554688 16.011719 C 138.359375 16.21875 138.085938 16.332031 137.800781 16.332031 Z M 137.800781 16.332031 "/>
<path style=" stroke:none;fill-rule:nonzero;fill:rgb(90.196078%,90.196078%,90.196078%);fill-opacity:1;" d="M 545.371094 1.054688 L 534.179688 1.054688 C 532.90625 1.054688 531.871094 2.089844 531.871094 3.367188 L 531.871094 14.570312 C 531.871094 15.847656 532.90625 16.882812 534.179688 16.882812 L 545.371094 16.882812 C 546.648438 16.882812 547.683594 15.851562 547.6875 14.570312 L 547.6875 3.367188 C 547.683594 2.089844 546.648438 1.054688 545.371094 1.054688 Z M 545.371094 1.054688 "/>
<path style=" stroke:none;fill-rule:nonzero;fill:rgb(90.196078%,90.196078%,90.196078%);fill-opacity:1;" d="M 517.953125 1.054688 L 506.765625 1.054688 C 505.488281 1.054688 504.457031 2.089844 504.457031 3.367188 L 504.457031 14.570312 C 504.457031 15.847656 505.488281 16.882812 506.765625 16.882812 L 517.953125 16.882812 C 519.230469 16.882812 520.269531 15.851562 520.273438 14.570312 L 520.273438 3.367188 C 520.269531 2.089844 519.230469 1.054688 517.953125 1.054688 Z M 517.953125 1.054688 "/>
<path style=" stroke:none;fill-rule:nonzero;fill:rgb(90.196078%,90.196078%,90.196078%);fill-opacity:1;" d="M 571.203125 1.582031 L 560.015625 1.582031 C 558.742188 1.582031 557.707031 2.617188 557.707031 3.894531 L 557.707031 15.101562 C 557.707031 16.375 558.742188 17.410156 560.015625 17.410156 L 571.203125 17.410156 C 572.480469 17.410156 573.519531 16.378906 573.523438 15.101562 L 573.523438 3.894531 C 573.519531 2.617188 572.480469 1.582031 571.203125 1.582031 Z M 571.203125 1.582031 "/>
<path style=" stroke:none;fill-rule:nonzero;fill:rgb(90.196078%,90.196078%,90.196078%);fill-opacity:1;" d="M 344.574219 5.847656 L 255.144531 5.847656 C 253.585938 5.847656 252.328125 7.109375 252.328125 8.664062 C 252.328125 10.21875 253.585938 11.480469 255.144531 11.480469 L 344.574219 11.480469 C 346.128906 11.480469 347.390625 10.21875 347.390625 8.664062 C 347.390625 7.109375 346.128906 5.847656 344.574219 5.847656 Z M 344.574219 5.847656 "/>
<path style=" stroke:none;fill-rule:nonzero;fill:rgb(100%,100%,100%);fill-opacity:1;" d="M 194.625 280.449219 L 106.050781 280.449219 C 97.023438 280.449219 89.707031 287.773438 89.707031 296.804688 C 89.707031 305.835938 97.023438 313.160156 106.050781 313.160156 L 194.625 313.160156 C 203.652344 313.160156 210.972656 305.835938 210.972656 296.804688 C 210.972656 287.773438 203.652344 280.449219 194.625 280.449219 Z M 194.625 280.449219 "/>
<path style=" stroke:none;fill-rule:nonzero;fill:rgb(0%,0%,54.509804%);fill-opacity:1;" d="M 194.625 314.214844 L 106.050781 314.214844 C 96.441406 314.214844 88.652344 306.421875 88.652344 296.804688 C 88.652344 287.191406 96.441406 279.394531 106.050781 279.394531 L 194.625 279.394531 C 204.234375 279.394531 212.027344 287.191406 212.027344 296.804688 C 212.027344 306.421875 204.234375 314.214844 194.625 314.214844 Z M 106.050781 281.507812 C 97.605469 281.507812 90.761719 288.355469 90.761719 296.804688 C 90.761719 305.253906 97.605469 312.105469 106.050781 312.105469 L 194.625 312.105469 C 203.070312 312.105469 209.917969 305.253906 209.917969 296.804688 C 209.917969 288.355469 203.070312 281.507812 194.625 281.507812 Z M 106.050781 281.507812 "/>
<path style=" stroke:none;fill-rule:nonzero;fill:rgb(94.901961%,94.901961%,94.901961%);fill-opacity:1;" d="M 307.5625 109.300781 L 546.921875 109.300781 C 562.5 109.300781 575.125 121.933594 575.125 137.515625 L 575.125 373.972656 C 575.125 389.554688 562.5 402.191406 546.921875 402.191406 L 307.5625 402.191406 C 291.988281 402.191406 279.363281 389.554688 279.363281 373.972656 L 279.363281 137.515625 C 279.363281 121.933594 291.988281 109.300781 307.5625 109.300781 Z M 307.5625 109.300781 "/>
<path style=" stroke:none;fill-rule:nonzero;fill:rgb(100%,71.372549%,71.372549%);fill-opacity:1;" d="M 438.777344 230.101562 C 437.246094 228.429688 437.328125 225.839844 438.960938 224.261719 C 439.121094 224.109375 439.296875 223.972656 439.480469 223.851562 L 435.949219 209.667969 L 442.511719 205.34375 L 445.25 225.296875 C 446.171875 226.953125 445.867188 229.023438 444.5 230.339844 C 442.898438 231.859375 440.371094 231.789062 438.851562 230.183594 C 438.828125 230.15625 438.804688 230.128906 438.777344 230.101562 Z M 438.777344 230.101562 "/>
<path style=" stroke:none;fill-rule:nonzero;fill:rgb(0%,0%,54.509804%);fill-opacity:1;" d="M 445.582031 216.121094 L 436.972656 216.921875 L 424.191406 171.9375 C 424.15625 171.8125 420.371094 159.179688 416.546875 157.203125 C 415.125 156.46875 414.601562 156.027344 414.621094 155.582031 C 414.644531 155.121094 415.222656 154.886719 416.023438 154.5625 C 416.828125 154.273438 417.585938 153.875 418.277344 153.371094 C 420.023438 151.992188 419.253906 150.664062 418.195312 148.824219 C 417.988281 148.46875 417.773438 148.097656 417.570312 147.707031 C 416.964844 146.5625 417.640625 141.691406 419.578125 133.234375 C 420.761719 128.039062 425.15625 124.203125 430.460938 123.738281 C 433.761719 123.441406 437.039062 124.488281 439.554688 126.648438 C 442.070312 128.804688 443.609375 131.886719 443.824219 135.195312 L 445.503906 161.242188 Z M 445.582031 216.121094 "/>
<path style=" stroke:none;fill-rule:nonzero;fill:rgb(100%,71.372549%,71.372549%);fill-opacity:1;" d="M 411.777344 376.335938 L 405.789062 376.285156 L 403.140625 352.636719 L 411.976562 352.710938 Z M 411.777344 376.335938 "/>
<path style=" stroke:none;fill-rule:nonzero;fill:rgb(18.431373%,18.039216%,25.490196%);fill-opacity:1;" d="M 392.601562 385.863281 C 392.589844 387.339844 393.777344 388.550781 395.253906 388.566406 L 407.160156 388.664062 L 409.242188 384.4375 L 410.007812 388.6875 L 414.5 388.726562 L 413.367188 373.574219 L 411.800781 373.46875 L 405.429688 373.03125 L 403.371094 372.890625 L 403.335938 377.179688 L 393.773438 383.667969 C 393.046875 384.164062 392.605469 384.984375 392.601562 385.863281 Z M 392.601562 385.863281 "/>
<path style=" stroke:none;fill-rule:nonzero;fill:rgb(100%,71.372549%,71.372549%);fill-opacity:1;" d="M 474.816406 371.957031 L 469.09375 373.71875 L 459.433594 351.976562 L 467.882812 349.378906 Z M 474.816406 371.957031 "/>
<path style=" stroke:none;fill-rule:nonzero;fill:rgb(18.431373%,18.039216%,25.490196%);fill-opacity:1;" d="M 459.410156 386.832031 C 459.84375 388.246094 461.339844 389.039062 462.753906 388.609375 L 474.132812 385.105469 L 474.84375 380.449219 L 476.855469 384.265625 L 481.152344 382.949219 L 475.5 368.847656 L 473.976562 369.21875 L 467.765625 370.726562 L 465.765625 371.214844 L 467.023438 375.3125 L 459.863281 384.390625 C 459.320312 385.078125 459.148438 385.992188 459.410156 386.832031 Z M 459.410156 386.832031 "/>
<path style=" stroke:none;fill-rule:nonzero;fill:rgb(18.431373%,18.039216%,25.490196%);fill-opacity:1;" d="M 399.734375 177.492188 L 388.308594 210.71875 L 387.929688 213.378906 C 385.050781 216.113281 388.667969 217.015625 387.3125 217.734375 C 385.957031 218.457031 385.042969 220.480469 386.871094 220.839844 C 388.699219 221.203125 387.984375 352.714844 395.753906 357.75 C 403.527344 362.78125 421.46875 368.367188 420.042969 361 C 418.613281 353.632812 419.136719 262.636719 419.136719 262.636719 C 419.136719 262.636719 457.285156 359.515625 459.894531 359.546875 C 462.503906 359.578125 481.144531 352.574219 480.28125 349.214844 C 479.417969 345.855469 445.5625 261.75 447.859375 258.515625 C 450.160156 255.28125 451.035156 253.875 448.769531 253.660156 C 446.5 253.449219 445.832031 254.695312 445.710938 251.554688 C 445.585938 248.417969 445.195312 240.679688 445.195312 240.679688 C 445.195312 240.679688 443.554688 210.078125 432.058594 193.167969 L 431.078125 183.125 Z M 399.734375 177.492188 "/>
<path style=" stroke:none;fill-rule:nonzero;fill:rgb(0%,0%,54.509804%);fill-opacity:1;" d="M 428.28125 114.054688 L 413.128906 116.214844 L 412.214844 127.195312 L 404.738281 138.898438 C 404.738281 138.898438 388.117188 150.601562 399.707031 169.089844 L 398.957031 179.34375 L 436.445312 194.4375 L 440.050781 128.671875 Z M 428.28125 114.054688 "/>
<path style=" stroke:none;fill-rule:nonzero;fill:rgb(100%,71.372549%,71.372549%);fill-opacity:1;" d="M 402.875 233.894531 C 401.886719 231.851562 402.699219 229.394531 404.710938 228.347656 C 404.910156 228.246094 405.113281 228.164062 405.328125 228.097656 L 405.976562 213.496094 L 413.496094 211.21875 L 410.445312 231.128906 C 410.863281 232.976562 409.976562 234.878906 408.296875 235.75 C 406.328125 236.75 403.921875 235.960938 402.925781 233.992188 C 402.90625 233.960938 402.890625 233.925781 402.875 233.894531 Z M 402.875 233.894531 "/>
<path style=" stroke:none;fill-rule:nonzero;fill:rgb(0%,0%,54.509804%);fill-opacity:1;" d="M 413.375 222.425781 L 404.894531 220.742188 L 405.433594 173.980469 C 405.433594 173.847656 405.394531 160.660156 402.292969 157.679688 C 401.136719 156.566406 400.761719 155.996094 400.910156 155.574219 C 401.058594 155.140625 401.679688 155.078125 402.539062 154.996094 C 403.394531 154.949219 404.234375 154.78125 405.039062 154.5 C 407.105469 153.671875 406.746094 152.179688 406.253906 150.113281 C 406.15625 149.714844 406.058594 149.296875 405.972656 148.867188 C 405.71875 147.597656 407.75 143.121094 412.015625 135.5625 C 414.625 130.921875 419.929688 128.492188 425.148438 129.554688 C 428.394531 130.210938 431.242188 132.152344 433.039062 134.933594 C 434.839844 137.71875 435.4375 141.113281 434.699219 144.34375 L 428.90625 169.796875 Z M 413.375 222.425781 "/>
<path style=" stroke:none;fill-rule:nonzero;fill:rgb(100%,71.372549%,71.372549%);fill-opacity:1;" d="M 436.117188 96.714844 C 436.117188 106.070312 428.535156 113.65625 419.183594 113.65625 C 409.832031 113.65625 402.25 106.070312 402.25 96.714844 C 402.25 87.355469 409.832031 79.773438 419.183594 79.773438 C 428.535156 79.773438 436.117188 87.355469 436.117188 96.714844 Z M 436.117188 96.714844 "/>
<path style=" stroke:none;fill-rule:nonzero;fill:rgb(18.431373%,18.039216%,25.490196%);fill-opacity:1;" d="M 441.621094 120.207031 C 443.894531 123.460938 445.414062 127.179688 446.074219 131.097656 C 444.242188 132.269531 442.109375 132.882812 439.933594 132.867188 C 439.863281 132.582031 439.789062 132.296875 439.703125 132.015625 C 439.074219 129.808594 438.136719 127.703125 436.917969 125.757812 C 437.085938 127.855469 436.800781 129.960938 436.085938 131.941406 C 434.9375 131.417969 433.707031 131.101562 432.449219 131 C 431.421875 131 430.414062 131.238281 429.496094 131.699219 C 428.429688 128.164062 427.449219 124.914062 426.753906 122.582031 C 426.734375 128.425781 418.171875 133.523438 408.828125 132.785156 C 408.492188 132.574219 411.875 122.960938 411.546875 122.738281 C 410.800781 122.242188 410.074219 121.707031 409.34375 121.179688 C 412.402344 116.449219 415.722656 111.386719 415.15625 110.625 C 415.199219 111.566406 411.84375 116.082031 408.195312 120.34375 C 406.171875 118.855469 417.675781 94.652344 411.992188 92.691406 C 411.898438 93.542969 410.640625 93.542969 409.113281 93.363281 C 408.710938 91.953125 408.109375 90.609375 407.332031 89.367188 C 407.433594 90.617188 407.28125 91.878906 406.886719 93.070312 C 405.378906 93.070312 403.871094 93.230469 402.394531 93.542969 C 402.054688 93.007812 401.675781 92.492188 401.269531 92.003906 C 401.308594 92.597656 401.289062 93.195312 401.214844 93.785156 C 400.175781 93.90625 399.175781 94.25 398.285156 94.800781 C 397.101562 94.367188 399.117188 92.414062 398.378906 91.402344 C 396.5 88.871094 399.285156 85.175781 401.046875 82.558594 C 404.972656 77.125 412.304688 75.417969 418.222656 78.5625 C 418.476562 77.6875 419.773438 77.105469 421.441406 76.714844 C 422.144531 76.558594 422.867188 76.492188 423.589844 76.515625 C 430.761719 76.640625 440.714844 82.558594 441.105469 89.726562 C 441.136719 90.441406 441.191406 91.222656 441.242188 92.054688 C 441.75 100.074219 441.128906 107.472656 446.601562 113.339844 C 448.582031 115.460938 448.601562 125.503906 447.84375 130.675781 C 445.871094 128.59375 444.46875 120.511719 441.621094 120.207031 Z M 441.621094 120.207031 "/>
<path style=" stroke:none;fill-rule:nonzero;fill:rgb(80%,80%,80%);fill-opacity:1;" d="M 344.589844 387.835938 C 344.589844 388.167969 344.722656 388.488281 344.957031 388.726562 C 345.191406 388.960938 345.511719 389.09375 345.847656 389.089844 L 520.140625 389.089844 C 520.835938 389.089844 521.394531 388.53125 521.394531 387.835938 C 521.394531 387.144531 520.835938 386.582031 520.140625 386.582031 L 345.847656 386.582031 C 345.511719 386.578125 345.191406 386.710938 344.957031 386.945312 C 344.722656 387.183594 344.589844 387.503906 344.589844 387.835938 Z M 344.589844 387.835938 "/>
<path style=" stroke:none;fill-rule:nonzero;fill:rgb(24.705882%,23.921569%,33.72549%);fill-opacity:1;" d="M 260.699219 129.242188 L 45.15625 129.242188 C 42.589844 129.242188 40.507812 127.160156 40.507812 124.59375 C 40.507812 122.023438 42.589844 119.941406 45.15625 119.941406 L 260.699219 119.941406 C 263.265625 119.941406 265.347656 122.023438 265.347656 124.59375 C 265.347656 127.160156 263.265625 129.242188 260.699219 129.242188 Z M 260.699219 129.242188 "/>
<path style=" stroke:none;fill-rule:nonzero;fill:rgb(0%,0%,54.509804%);fill-opacity:1;" d="M 260.699219 228.425781 L 45.15625 228.425781 C 42.589844 228.425781 40.507812 226.34375 40.507812 223.773438 C 40.507812 221.203125 42.589844 219.121094 45.15625 219.121094 L 260.699219 219.121094 C 263.265625 219.121094 265.347656 221.203125 265.347656 223.773438 C 265.347656 226.34375 263.265625 228.425781 260.699219 228.425781 Z M 260.699219 228.425781 "/>
<path style=" stroke:none;fill-rule:nonzero;fill:rgb(0%,0%,54.509804%);fill-opacity:1;" d="M 369.808594 178.867188 L 45.15625 178.867188 C 42.589844 178.867188 40.507812 176.785156 40.507812 174.214844 C 40.507812 171.648438 42.589844 169.566406 45.15625 169.566406 L 369.808594 169.566406 C 372.375 169.566406 374.457031 171.648438 374.457031 174.214844 C 374.457031 176.785156 372.375 178.867188 369.808594 178.867188 Z M 369.808594 178.867188 "/>
<path style=" stroke:none;fill-rule:nonzero;fill:rgb(24.705882%,23.921569%,33.72549%);fill-opacity:1;" d="M 265.347656 242.398438 C 264.761719 242.398438 264.292969 241.925781 264.292969 241.34375 L 264.292969 206.203125 C 264.292969 205.621094 264.761719 205.148438 265.347656 205.148438 C 265.929688 205.148438 266.398438 205.621094 266.398438 206.203125 L 266.398438 241.34375 C 266.398438 241.925781 265.929688 242.398438 265.347656 242.398438 Z M 265.347656 242.398438 "/>
<path style=" stroke:none;fill-rule:nonzero;fill:rgb(24.705882%,23.921569%,33.72549%);fill-opacity:1;" d="M 22.09375 106.671875 C 22.09375 106.089844 22.566406 105.617188 23.148438 105.617188 L 58.269531 105.617188 C 58.851562 105.617188 59.324219 106.089844 59.324219 106.671875 C 59.324219 107.253906 58.851562 107.726562 58.269531 107.726562 L 23.148438 107.726562 C 22.566406 107.726562 22.09375 107.253906 22.09375 106.671875 Z M 22.09375 106.671875 "/>
<path style=" stroke:none;fill-rule:nonzero;fill:rgb(24.705882%,23.921569%,33.72549%);fill-opacity:1;" d="M 40.710938 143.21875 C 40.128906 143.21875 39.65625 142.746094 39.65625 142.164062 L 39.65625 107.019531 C 39.65625 106.4375 40.128906 105.964844 40.710938 105.964844 C 41.292969 105.964844 41.765625 106.4375 41.765625 107.019531 L 41.765625 142.164062 C 41.765625 142.746094 41.292969 143.21875 40.710938 143.21875 Z M 40.710938 143.21875 "/>
</g>
</svg>
